<svg xmlns="http://www.w3.org/2000/svg" viewBox="0 0 1400 1400" id="Girltalkingaboutbooks"><ellipse cx="701" cy="1249.759" fill="#595bd4" opacity=".31" rx="658.528" ry="67.5" class="color26292c svgShape"></ellipse><rect width="185.753" height="193.631" x="1039.049" y="526.454" fill="#167ffc" class="colore0e0e0 svgShape"></rect><rect width="185.752" height="193.631" x="1026.47" y="526.454" fill="#fafafa" class="colorfafafa svgShape"></rect><path fill="#167ffc" d="M1212.2793,720.1429H1026.412V526.3965h185.8673Zm-185.7523-.1155h185.6368V526.5115H1026.527Z" class="colore0e0e0 svgShape"></path><rect width="135.812" height="141.572" x="1051.439" y="552.484" fill="#fafafa" class="colorfafafa svgShape"></rect><path fill="#167ffc" d="M1051.4394 694.9971c.1071.1265-1.1826 1.6076-3.351 3.8965s-5.2169 5.3864-8.6331 8.7519c-3.4177 3.3664-6.5573 6.3645-8.8726 8.4927s-3.8083 3.3872-3.9254 3.2694 1.1645-1.5915 3.3336-3.8806 5.225-5.3941 8.6522-8.7689 6.5731-6.38 8.8889-8.508S1051.3326 694.87 1051.4394 694.9971zM1187.2514 694.6494c.1269-.1068 1.6078 1.1824 3.8969 3.3511s5.3866 5.2171 8.7521 8.6331 6.3643 6.5575 8.4927 8.8728 3.3868 3.8078 3.27 3.9249-1.5915-1.1644-3.8807-3.3329-5.394-5.2257-8.7693-8.6527-6.3794-6.5733-8.5081-8.8891S1187.1247 694.7562 1187.2514 694.6494zM1186.88 552.8614c-.1068-.1274 1.1827-1.608 3.3516-3.8967s5.2166-5.3871 8.6333-8.7518c3.4167-3.3667 6.5571-6.3645 8.8723-8.4932s3.8076-3.3871 3.9255-3.2688c.1164.1181-1.165 1.5908-3.3337 3.88s-5.2249 5.3938-8.6524 8.77-6.5731 6.3791-8.8894 8.5081S1186.9872 552.9883 1186.88 552.8614zM1051.0678 553.2087c-.127.107-1.6076-1.1822-3.8963-3.3514s-5.3866-5.217-8.7521-8.6333-6.3647-6.5568-8.4922-8.8723c-2.1292-2.316-3.3875-3.8083-3.2692-3.9245.1173-.118 1.5905 1.1633 3.8794 3.3325s5.3943 5.2254 8.7691 8.6524 6.38 6.5739 8.5083 8.89S1051.1949 553.1009 1051.0678 553.2087z" class="colore0e0e0 svgShape"></path><path fill="#167ffc" d="M1186.88,694.0554a6.6094,6.6094,0,0,1-.0292-.6878c-.0077-.4829-.017-1.1333-.03-1.9757-.0149-1.7752-.0345-4.3278-.0614-7.6425-.0316-6.7067-.0783-16.4638-.137-28.8534-.0644-24.7954-.1559-60.1182-.2663-102.4125l.5238.5235c-39.5364.0228-85.9669.0491-135.4265.0781h-.0135l.6012-.6016c-.0312,51.9625-.06,100.5745-.0846,141.5714l-.5166-.5154c40.5847.1088,74.376.2,98.0675.2635,11.8361.0579,21.1475.1037,27.546.1346q4.7407.0394,7.2878.06c.8011.0124,1.4212.0222,1.883.0292a6.1886,6.1886,0,0,1,.6557.0287,4.2474,4.2474,0,0,1-.5983.0295c-.4483.0072-1.05.016-1.8276.029q-2.5065.02-7.1891.0594c-6.3712.0313-15.6423.0771-27.4289.135-23.7705.0635-57.6751.1548-98.3961.2637l-.5158.0015,0-.5186c-.0247-40.9969-.0542-89.6089-.0853-141.5714l0-.6012h.6156c49.46.0276,95.89.0544,135.4265.0774h.5255l-.001.5238c-.1106,42.4329-.2021,77.872-.2663,102.7478-.06,12.3389-.1059,22.0561-.1377,28.7349-.0264,3.2711-.0467,5.79-.0613,7.5414-.0122.8184-.0225,1.45-.0293,1.9191A4.5739,4.5739,0,0,1,1186.88,694.0554Z" class="colore0e0e0 svgShape"></path><rect width="45.318" height="45.318" x="1096.686" y="600.61" fill="#ebebeb" class="colorebebeb svgShape"></rect><rect width="616.922" height="905.743" x="438.37" y="251.168" fill="#167ffc" transform="rotate(-1.598 746.824 704.032)" class="colore0e0e0 svgShape"></rect><rect width="616.922" height="905.743" x="366.617" y="252.649" fill="#f5f5f5" transform="rotate(3.142 675.086 705.53)" class="colorf5f5f5 svgShape"></rect><rect width="616.922" height="905.743" x="461.374" y="300.823" fill="#ebebeb" transform="rotate(4.867 769.839 753.7)" class="colorebebeb svgShape"></rect><g fill="#000000" class="color000000 svgShape"><rect width="228.531" height="331.247" x="141.236" y="323.35" fill="#167ffc" class="colore0e0e0 svgShape"></rect><rect width="228.531" height="331.247" x="129.788" y="323.35" fill="#f5f5f5" class="colorf5f5f5 svgShape"></rect><rect width="171.745" height="259.494" x="158.181" y="359.226" fill="#ffffff" class="colorffffff svgShape"></rect><path fill="#167ffc" d="M329.926,618.72s-.0225-.439-.0338-1.2689c-.0076-.8569-.0189-2.08-.0335-3.68-.0158-3.261-.039-8.035-.069-14.2331-.0356-12.4368-.0879-30.56-.1535-53.4545-.0687-45.7578-.166-110.5532-.28-186.8574l.57.57c-52.4712.0158-110.6138.033-171.724.0515h-.0206l.6213-.6213c-.0475,97.8914-.0915,188.1488-.1263,259.4934l-.495-.4951,125.0078.26c14.9226.0546,26.5767.0969,34.537.1262l9.0654.0553c2.0525.018,3.1346.0534,3.1346.0534s-1.0109.0357-3.03.0536l-8.9729.0554-34.426.126c-29.9065.0622-72.8836.1516-125.3155.26l-.4953.0012,0-.4967c-.0348-71.3446-.0786-161.602-.1262-259.4934l0-.622h.6426c61.11.0185,119.2528.0359,171.724.0515l.5712,0-.001.57c-.1145,76.457-.2117,141.3823-.28,187.2317-.0657,22.8389-.1176,40.9186-.1533,53.3252-.03,6.1485-.0534,10.8842-.0692,14.1191-.0146,1.5724-.0257,2.7735-.0336,3.6155C329.9485,618.3258,329.926,618.72,329.926,618.72Z" class="colore0e0e0 svgShape"></path><path fill="#167ffc" d="M358.9608,323.35c.1334.1035-1.4184,2.368-4.0735,5.9183s-6.4229,8.3792-10.7224,13.6006c-4.3025,5.2223-8.32,9.8459-11.2961,13.1321s-4.9007,5.2424-5.0279,5.1313c-.1312-.1147,1.5592-2.2752,4.3616-5.7044,3.0637-3.7173,6.8334-8.2906,11.0029-13.3494,4.1645-5.0594,7.9306-9.6351,10.9919-13.3543C357.0261,325.3163,358.8228,323.243,358.9608,323.35Z" class="colore0e0e0 svgShape"></path><path fill="#ffffff" d="M330.8009,617.8844a212.6822,212.6822,0,0,0,29.9549,37.4626" class="colorffffff svgShape"></path><path fill="#167ffc" d="M360.7561,655.347c-.1128.1142-2.1517-1.655-5.2224-4.751a167.4374,167.4374,0,0,1-21.2473-26.5727c-2.3448-3.6766-3.6218-6.0541-3.4855-6.1389.1547-.0973,1.693,2.1117,4.2136,5.6465,2.5188,3.536,6.0591,8.3729,10.19,13.5447,4.1348,5.1661,8.0741,9.6833,10.9692,12.9185S360.8847,655.2174,360.7561,655.347Z" class="colore0e0e0 svgShape"></path><path fill="#ffffff" d="M129.755,654.3341q14.9669-18.4662,29.9339-36.9326" class="colorffffff svgShape"></path><path fill="#167ffc" d="M159.6889 617.4013c.2668.2163-6.2187 8.66-14.4834 18.8569-8.2676 10.2006-15.1839 18.2919-15.4505 18.0759s6.2172-8.658 14.4848-18.8586C152.5045 625.2785 159.4223 617.1853 159.6889 617.4013zM129.7878 323.35c.2695-.2129 6.775 7.5642 14.5291 17.3684 7.7568 9.8078 13.8245 17.9284 13.5553 18.1413s-6.7735-7.5625-14.53-17.37C135.5878 331.6852 129.5189 323.5627 129.7878 323.35z" class="colore0e0e0 svgShape"></path><rect width="57.507" height="163.278" x="218.911" y="411.914" fill="#167ffc" class="colore0e0e0 svgShape"></rect></g><g fill="#000000" class="color000000 svgShape"><path fill="#fe9526" d="M601.3155,1037.864H419.306A50.5562,50.5562,0,0,1,368.75,987.3077h0a50.5562,50.5562,0,0,1,50.5561-50.5564h182.01Z" class="colorffcc05 svgShape"></path><path fill="#fe9526" d="M550.9414 936.7513H956.5166a7.4484 7.4484 0 017.4484 7.4484v1.8888a7.4483 7.4483 0 01-7.4483 7.4483H550.9414a0 0 0 010 0V936.7513A0 0 0 01550.9414 936.7513zM550.9414 1021.0788H956.5166a7.4484 7.4484 0 017.4484 7.4484v1.8886a7.4483 7.4483 0 01-7.4483 7.4483H550.9414a0 0 0 010 0v-16.7852A0 0 0 01550.9414 1021.0788z" class="colorffcc05 svgShape"></path><path fill="#f5f5f5" d="M951.6456,1021.0788H597.0316a33.7711,33.7711,0,0,1-33.7709-33.7711h0a33.7711,33.7711,0,0,1,33.7709-33.7709h354.614Q937.3809,987.3079,951.6456,1021.0788Z" class="colorf5f5f5 svgShape"></path><path d="M563.2607,1037.864h-143.8A50.7113,50.7113,0,0,1,368.75,987.1526h0a50.4012,50.4012,0,0,1,50.4012-50.4013H567.1094C530.499,958.929,533.2345,1012.0393,563.2607,1037.864Z" opacity=".3" fill="#000000" class="color000000 svgShape"></path><path d="M908.5612 990.4428c0 .3341-72.7864.6049-162.5521.6049-89.7972 0-162.5678-.2708-162.5678-.6049s72.7706-.6046 162.5678-.6046C835.7748 989.8382 908.5612 990.109 908.5612 990.4428zM942.0171 1005.4547c0 .3343-72.7865.6048-162.5524.6048-89.7969 0-162.5681-.27-162.5681-.6048s72.7712-.6041 162.5681-.6041C869.2306 1004.8506 942.0171 1005.1211 942.0171 1005.4547zM932.1521 969.1535c0 .3338-72.7865.6046-162.5524.6046-89.7969 0-162.5681-.2708-162.5681-.6046s72.7712-.6046 162.5681-.6046C859.3656 968.5489 932.1521 968.8194 932.1521 969.1535zM545.4575 1030.7782c0 .3341-34.0709.6047-76.0895.6047-42.0333 0-76.0968-.2706-76.0968-.6047s34.0635-.6046 76.0968-.6046C511.3866 1030.1736 545.4575 1030.4447 545.4575 1030.7782zM545.4575 945.1442c0 .3341-34.0709.6046-76.0895.6046-42.0333 0-76.0968-.27-76.0968-.6046s34.0635-.6046 76.0968-.6046C511.3866 944.54 545.4575 944.81 545.4575 945.1442z" fill="#000000" class="color000000 svgShape"></path><g fill="#000000" class="color000000 svgShape"><path fill="#fe9526" d="M348.7918,1108.8422h234.4a0,0,0,0,1,0,0v130.217a0,0,0,0,1,0,0h-234.4a65.1085,65.1085,0,0,1-65.1085-65.1085v0A65.1083,65.1083,0,0,1,348.7918,1108.8422Z" class="colorffcc05 svgShape"></path><path fill="#fe9526" d="M518.3178 1108.8422h524.4611a7.4483 7.4483 0 017.4483 7.4483v6.72a7.4483 7.4483 0 01-7.4483 7.4483H518.3178a0 0 0 010 0v-21.6168A0 0 0 01518.3178 1108.8422zM518.3178 1217.4421h524.4611a7.4483 7.4483 0 017.4483 7.4483v6.72a7.4483 7.4483 0 01-7.4483 7.4483H518.3178a0 0 0 010 0v-21.6171A0 0 0 01518.3178 1217.4421z" class="colorffcc05 svgShape"></path><path fill="#f5f5f5" d="M1034.3616,1217.4424l-456.6868,0a43.4915,43.4915,0,0,1-43.4917-43.4914v0a43.4915,43.4915,0,0,1,43.4917-43.4914h456.6868Q1015.991,1173.9511,1034.3616,1217.4424Z" class="colorf5f5f5 svgShape"></path><path d="M534.1831,1239.0592H348.0941a64.4106,64.4106,0,0,1-64.4106-64.4106v0a65.8063,65.8063,0,0,1,65.8062-65.8062H539.14C491.9912,1137.4031,495.5144,1205.8009,534.1831,1239.0592Z" opacity=".4" fill="#000000" class="color000000 svgShape"></path><path d="M978.8763 1177.988c0 .3341-93.7376.6048-209.3419.6048-115.6448 0-209.3621-.2707-209.3621-.6048s93.7173-.6044 209.3621-.6044C885.1387 1177.3836 978.8763 1177.6544 978.8763 1177.988zM1021.962 1197.3213c0 .3341-93.7379.6049-209.342.6049-115.6445 0-209.362-.2708-209.362-.6049s93.7175-.6043 209.362-.6043C928.2241 1196.717 1021.962 1196.9878 1021.962 1197.3213zM1009.2572 1160.0476c0 .3341-93.7378.6047-209.3419.6047-115.6448 0-209.3621-.2706-209.3621-.6047s93.7173-.6046 209.3621-.6046C915.5194 1159.443 1009.2572 1159.7138 1009.2572 1160.0476zM511.2549 1229.9338c0 .3341-43.8777.6046-97.991.6046-54.1322 0-98.0007-.27-98.0007-.6046s43.8685-.6046 98.0007-.6046C467.3772 1229.3292 511.2549 1229.6 511.2549 1229.9338zM511.2549 1119.6507c0 .3336-43.8777.6044-97.991.6044-54.1322 0-98.0007-.2708-98.0007-.6044s43.8685-.6048 98.0007-.6048C467.3772 1119.0459 511.2549 1119.3166 511.2549 1119.6507z" fill="#000000" class="color000000 svgShape"></path></g><g fill="#000000" class="color000000 svgShape"><path d="M660.9708,1109.3164H454.9077a37.2785,37.2785,0,0,1-37.2785-37.2786h0a37.2782,37.2782,0,0,1,37.2785-37.2782H660.9708Z" fill="#000000" class="color000000 svgShape"></path><path d="M608.263 1034.76H1032.63a7.7934 7.7934 0 017.7934 7.7934v1.9761a7.7936 7.7936 0 01-7.7936 7.7936H608.263a0 0 0 010 0V1034.76A0 0 0 01608.263 1034.76zM608.263 1091.7531H1032.63a7.7936 7.7936 0 017.7936 7.7936v1.9761a7.7936 7.7936 0 01-7.7936 7.7936H608.263a0 0 0 010 0v-17.5633A0 0 0 01608.263 1091.7531z" fill="#000000" class="color000000 svgShape"></path><path fill="#f5f5f5" d="M1027.5334,1091.7531H640.868a19.7154,19.7154,0,0,1-19.7152-19.7153h0a19.7153,19.7153,0,0,1,19.7152-19.7152h386.6654Q1012.6078,1072.038,1027.5334,1091.7531Z" class="colorf5f5f5 svgShape"></path><path d="M621.1528,1109.3164H454.6084a36.9792,36.9792,0,0,1-36.9792-36.9793v0a37.5774,37.5774,0,0,1,37.5775-37.5772H625.18C586.8732,1051.1121,589.7356,1090.2741,621.1528,1109.3164Z" opacity=".3" fill="#000000" class="color000000 svgShape"></path><path d="M982.4529 1068.9332c0 .3343-76.1591.6048-170.0841.6048-93.9578 0-170.1-.2705-170.1-.6048s76.1425-.6046 170.1-.6046C906.2938 1068.3286 982.4529 1068.6 982.4529 1068.9332zM1017.4586 1079.5457c0 .3341-76.1588.6046-170.084.6046-93.9578 0-170.1-.2705-170.1-.6046s76.1426-.6046 170.1-.6046C941.3 1078.9411 1017.4586 1079.2118 1017.4586 1079.5457zM602.5247 1101.9024c0 .334-35.65.6048-79.6151.6048-43.9809 0-79.6225-.2708-79.6225-.6048s35.6416-.6049 79.6225-.6049C566.8752 1101.2975 602.5247 1101.5685 602.5247 1101.9024zM602.5247 1043.541c0 .334-35.65.6046-79.6151.6046-43.9809 0-79.6225-.2706-79.6225-.6046s35.6416-.6047 79.6225-.6047C566.8752 1042.9363 602.5247 1043.2071 602.5247 1043.541zM1035.3491 1034.7593c0 .3341-130.7733.6046-292.0528.6046-161.3355 0-292.0809-.2705-292.0809-.6046s130.7454-.6043 292.0809-.6043C904.5758 1034.155 1035.3491 1034.4257 1035.3491 1034.7593z" fill="#000000" class="color000000 svgShape"></path></g><polygon fill="#fe9526" points="713.589 969.59 713.589 1010.086 727.626 1001.085 743.282 1010.086 743.282 969.59 713.589 969.59" class="colorffcc05 svgShape"></polygon></g><g fill="#000000" class="color000000 svgShape"><path fill="#fbce9e" d="M1050.0164,736.0966c5.854-2.6978,12.5108-5.4588,12.5108-5.4588l5.782-2.766a7.256,7.256,0,0,1,.0239,1.2868,4.7933,4.7933,0,0,0,.2654,2.39c.6822,1.38,2.5336,1.7256,4.0675,1.508a9.3609,9.3609,0,0,0,7.2633-5.73,9.2378,9.2378,0,0,0-1.2632-8.7817,6.7646,6.7646,0,0,0-.2722-2.6228c-1.7539-5.7576-10.129-8.2871-10.129-8.2871l1.8878-1.25s6.8878-1.3022,13.8609,8.0449a7.17,7.17,0,0,0,4.2587,2.7883,3.6456,3.6456,0,0,0,3.0643-.54c2.2308-1.7518,1.56-3.7769-2.7132-9.6713s-10.3564-10.1734-15.2536-10.24a48.8116,48.8116,0,0,0-6.8155.2217s16.3724-12.2725,17.3769-13.0907c2.9066-2.3666,4.2768-5.6416,2.8756-7.7221-.8988-1.3349-3.022-2.3564-6.4918.2957-3.0028,2.2946-36.7751,21.9168-36.7751,21.9168l-14.4281,9.5523-10.6186,9.8116-7.3,4.5018,14.9231,24.2854,10.2293-9.3313A20.0193,20.0193,0,0,0,1050.0164,736.0966Z" class="colorfbbf9e svgShape"></path><path fill="#fbce9e" d="M1032.2864,709.74c.8444,2.0472,3.438,2.8306,5.6551,2.5931s4.288-1.2128,6.4822-1.6079c6.5617-1.181,13.3058,2.9161,19.8029,1.4246.9059-.2077,1.9573-.7465,1.9443-1.6681-.0122-.8546-.9283-1.3725-1.7188-1.7129q-10.1305-4.3684-20.2619-8.7359" class="colorfbbf9e svgShape"></path><path fill="#ecaf6f" d="M1044.19 700.0327a8.9256 8.9256 0 012.2891.7218c1.4408.5395 3.5092 1.3582 6.055 2.3938 2.64 1.0956 5.6406 2.34 8.9151 3.6979q1.26.5319 2.57 1.0851c.7879.4055 1.9989.5878 2.6592 1.9577a1.837 1.837 0 01-.5383 2.0028 3.8351 3.8351 0 01-1.6058.8222 14.5934 14.5934 0 01-3.2341.38c-4.3874-.0036-8.2233-1.4-11.7572-1.83a16.7788 16.7788 0 00-4.9795-.0354c-1.5314.25-2.9519.7577-4.3109 1.09-2.7078.8009-5.2617.3585-6.5554-.6142-1.3493-.9657-1.4619-1.9852-1.4108-1.9654.1081-.0674.3875.8205 1.6717 1.5535a7.5885 7.5885 0 006.06.1741c1.2957-.3717 2.7058-.9369 4.3627-1.2585a17.2969 17.2969 0 015.3081-.087c3.6848.3992 7.54 1.7356 11.5972 1.7229a13.68 13.68 0 002.9241-.3318c.89-.2192 1.5367-.7735 1.3077-1.2072-.176-.5113-1.1065-.9141-1.9779-1.28q-1.3012-.5724-2.5529-1.1238c-3.2349-1.4482-6.1992-2.7749-8.8078-3.9434-2.5-1.1391-4.5143-2.0809-5.8951-2.7579A8.85 8.85 0 011044.19 700.0327zM1068.0114 707.4838a9.1507 9.1507 0 013.9521-1.3285 7.0877 7.0877 0 014.2272 1.2426 17.9613 17.9613 0 014.0129 3.8771 28.59 28.59 0 003.933 4.25 9.297 9.297 0 004.3328 2.0892 3.6309 3.6309 0 003.11-.9234c.5443-.5594.6844-.97.657-.9848-.0636-.047-.3008.3029-.8645.7478a3.4316 3.4316 0 01-2.8113.5972 9.2127 9.2127 0 01-3.9437-2.0963 31.59 31.59 0 01-3.7828-4.19 17.4476 17.4476 0 00-4.2422-3.9946 7.4244 7.4244 0 00-4.67-1.1835 6.5918 6.5918 0 00-3.0523 1.0864C1068.2382 707.1108 1067.98 707.4505 1068.0114 707.4838zM1085.0377 682.9685a22.9727 22.9727 0 00-3.2717 2.4187c-2.2 1.715-4.8224 3.7586-7.7212 6.0174-2.933 2.2161-5.5861 4.2209-7.8124 5.9028a22.956 22.956 0 00-3.1819 2.5326 18.29 18.29 0 003.5147-2.0679c2.1-1.3844 4.9338-3.396 7.9777-5.73 3.0409-2.3353 5.7154-4.55 7.5938-6.2188A18.2026 18.2026 0 001085.0377 682.9685zM1067.1678 713.92c-.0251.0562.3878.2616 1.0933.658a3.7693 3.7693 0 012.0422 2.3882 2.0042 2.0042 0 01-.7046 1.8652 10.8123 10.8123 0 01-2.22 1.4515 4.5491 4.5491 0 00-2.25 2.3234 3.8363 3.8363 0 00.6186 3.439 4.43 4.43 0 003.06 1.6849 5.573 5.573 0 003.1868-.5316 17.9093 17.9093 0 004.1128-3.2369 10.4575 10.4575 0 002.0424-2.8606 2.3337 2.3337 0 00.2825-1.26c-.073-.0135-.1711.4271-.5655 1.1189a12.4129 12.4129 0 01-2.1672 2.6 19.202 19.202 0 01-4.0449 2.9763c-1.55.7587-4.0315.6575-5.2506-.9672a3.0831 3.0831 0 01-.5189-2.7126 3.8835 3.8835 0 011.8789-1.9361 10.7765 10.7765 0 002.3188-1.6222 2.5959 2.5959 0 00.7841-2.4461 3.943 3.943 0 00-2.4625-2.554A3.3362 3.3362 0 001067.1678 713.92z" class="colorec996f svgShape"></path><path fill="#ecaf6f" d="M1069.0953 727.09c-.0183-.0351-.4327.14-.8494.7892a3.4973 3.4973 0 00-.2182 3.1459 4.7346 4.7346 0 003.839 2.6945 7.7876 7.7876 0 005.5033-1.6859 9.2883 9.2883 0 003.2735-4.6889 8.8118 8.8118 0 00.0963-4.6539 8.37 8.37 0 00-1.2923-2.8456c-.4361-.598-.7521-.8627-.7882-.8321a14.57 14.57 0 011.5189 3.7995 8.6945 8.6945 0 01-.25 4.3121 8.8538 8.8538 0 01-3.0526 4.2687 7.2385 7.2385 0 01-4.9251 1.588 4.2078 4.2078 0 01-3.3981-2.1891 3.3168 3.3168 0 01-.0269-2.765C1068.8151 727.4 1069.1426 727.1419 1069.0953 727.09zM1049.6079 724.266c.0623-.0407-.27-.7111-1.2161-1.525a7.7319 7.7319 0 00-4.6534-1.7973l.2609.6636a22.6588 22.6588 0 001.8916-2.0091c3.4635-4.1281 4.4172-8.4915 4.211-8.5009-.2306-.0928-1.4994 4.0192-4.8377 7.9873-.598.7185-1.2135 1.38-1.8062 1.9674l-.6552.6489.9163.0147a8.1143 8.1143 0 014.3755 1.41C1049.062 723.7829 1049.5245 724.3336 1049.6079 724.266zM1077.5309 703.4671c-.1937-.094-.8774 1.4177-.39 3.302.47 1.8886 1.7945 2.9 1.92 2.7261.1722-.1614-.7317-1.2766-1.1311-2.9224C1077.4958 704.9354 1077.7592 703.5287 1077.5309 703.4671z" class="colorec996f svgShape"></path><path fill="#fbce9e" d="M703.4694,921.9663c-.8386.65-8.2673,9.9992-10.5078,15.6022s-1.5771,14.712-1.6575,20.0163,2.5909,6.5055,5.0609,6.3771,1.65-11.58,1.65-11.58,4.4937,31.57,9.8185,30.3242,4.1563-.7661,4.1563-.7661.0524,7.4618,4.8722,6.7062,3.24-5.9193,3.24-5.9193,4.94,2.23,6.51-2.8857,1.4925-21.83,1.4925-21.83l9.4091-8.179,1.7147-10.028a99.3279,99.3279,0,0,0-7.6377-16.4026c-2.2911-3.8186,8.0514-48.1455,8.0514-48.1455l5.9848-24.827-35.0161-9.4112Z" class="colorfbbf9e svgShape"></path><g fill="#000000" class="color000000 svgShape"><path fill="#fbce9e" d="M960.52,1141.15c-1.184,2.3869-31.4,70.026-31.4,70.026l-31.96-11.0251,19.2246-73.9Z" class="colorfbbf9e svgShape"></path><path d="M900.4879,1184.0336s19.2261,26.8531,36.9465,15.4616l.6072,8.69-4.1515,58.9967a7.6637,7.6637,0,0,1-7.0634,7.2643,7.3959,7.3959,0,0,1-6.92-3.972c-7.0364-13.575-32.6717-63.64-30.5734-68.507l4.7223-13.2092a7.1312,7.1312,0,0,1,6.432-4.7248Z" fill="#000000" class="color000000 svgShape"></path><path fill="#ffffff" d="M925.4515 1274.38l-34.5456-77.0319-.9872 2.9c-1.356 3.0455-.4129 4.7589.3839 7.2844 2.3617 7.4829 9.9959 25.0332 29.3964 62.8734a7.3994 7.3994 0 005.7525 3.9739zM901.883 1191.4809a4.4819 4.4819 0 01-.7256 5.9368 4.3092 4.3092 0 01-5.8913-.6664c-1.3417-1.7457-1.0574-5.1013.8009-6.2833s5.1669-.6443 6.0515 1.3729" opacity=".6" class="colorffffff svgShape"></path><path d="M919.9861 1239.1456c.3229.3212 3.0871-2.7385 7.8149-3.2808 4.7108-.6837 8.1638 1.5684 8.3945 1.1749.1166-.1475-.5691-.9748-2.0941-1.7455a11.8079 11.8079 0 00-12.5367 1.6285C920.2869 1238.0574 919.8355 1239.0325 919.9861 1239.1456zM921.7419 1249.972c.2248.4065 3.1795-1.0709 7.065-.88 3.89.1053 6.7229 1.8024 6.9784 1.4142.3166-.282-2.4838-2.8563-6.9184-3.001C924.4363 1247.313 921.448 1249.6666 921.7419 1249.972zM914.91 1224.3072c.21.4338 4.7435-1.8611 10.8118-2.0935 6.0662-.327 10.79 1.541 10.96 1.089.2349-.3268-4.5268-3.0091-11.0328-2.6755C919.1409 1220.8939 914.6447 1224.0029 914.91 1224.3072zM919.3677 1207.45c.043.4726 4.3625.1795 9.3436 1.6767 5.0024 1.4292 8.48 4.0071 8.7712 3.6333.3028-.2708-2.9519-3.6083-8.3243-5.1572C923.8014 1206.0071 919.2594 1207.0587 919.3677 1207.45z" fill="#000000" class="color000000 svgShape"></path><path d="M931.5614,1209.9445a6.2413,6.2413,0,0,0,.4984-2.6915,18.9976,18.9976,0,0,0-1.1015-7.4044c-.5753-1.4431-1.1273-3.2715-2.9841-4.5092a2.9783,2.9783,0,0,0-3.4179.164,4.8483,4.8483,0,0,0-1.6092,3.0623c-.5978,4.5516,2.65,9.52,7.6594,10.9293a12.1474,12.1474,0,0,0,12.7337-4.5372,4.2134,4.2134,0,0,0,.71-3.4388,2.92,2.92,0,0,0-2.7971-1.9775c-2.1715.0023-3.6927,1.0282-5.0748,1.7518a21.1921,21.1921,0,0,0-5.7047,4.8341,6.4415,6.4415,0,0,0-1.4653,2.3088c.2238.2243,2.328-3.2455,7.7138-6.1613,1.3455-.6549,2.9114-1.5034,4.4614-1.4182a1.5577,1.5577,0,0,1,1.5311,1.0679,2.896,2.896,0,0,1-.6,2.2333,10.8413,10.8413,0,0,1-11.0852,3.8065c-4.234-1.1439-7.0824-5.5171-6.6357-9.1844a3.5146,3.5146,0,0,1,1.0336-2.1848,1.6118,1.6118,0,0,1,1.8842-.1177c1.3089.7671,2.0193,2.408,2.5977,3.771C932.1454,1205.9474,931.2334,1209.9689,931.5614,1209.9445Z" fill="#000000" class="color000000 svgShape"></path><g fill="#000000" class="color000000 svgShape"><path fill="#fbce9e" d="M934.3938,1133.0272c.67,2.5786,22.17,73.4721,22.17,73.4721l-31.3662,12.6156-33.9058-68.42Z" class="colorfbbf9e svgShape"></path><path d="M917.15,1204.759s32.12,7.685,38.04-12.5319l6.1531,6.1664,35.5255,47.2847a7.6635,7.6635,0,0,1-.5752,10.1154,7.3947,7.3947,0,0,1-7.83,1.5344c-14.2107-5.6431-66.3823-26.6612-67.9872-31.7132l-5.0888-13.0719a7.1318,7.1318,0,0,1,1.7622-7.7839Z" fill="#000000" class="color000000 svgShape"></path><path fill="#ffffff" d="M995.2118 1256.6446l-76.574-35.5489 1.1548 2.8378c.9715 3.1888 2.8067 3.8654 5.0634 5.25 6.6876 4.1044 23.9552 12.3587 63.4066 28.2289a7.3985 7.3985 0 006.9492-.7683zM923.0846 1209.47a4.4821 4.4821 0 013.3425 4.96 4.3092 4.3092 0 01-4.887 3.3574c-2.1576-.4393-4.1415-3.16-3.5125-5.2709s3.4809-3.8728 5.4707-2.9287" opacity=".6" class="colorffffff svgShape"></path><path d="M967.994 1233.6116c.4544.0307.5373-4.0917 3.7528-7.6 3.11-3.6033 7.1949-4.1649 7.1109-4.6137-.0083-.1874-1.0686-.3631-2.7253.0539a11.8075 11.8075 0 00-8.4025 9.4455C967.5079 1232.5923 967.8062 1233.6245 967.994 1233.6116zM976.4151 1240.6386c.4358.16 1.6995-2.8924 4.76-5.2943 3.0078-2.47 6.2594-3.0439 6.1976-3.5051.055-.42-3.7477-.53-7.192 2.2672C976.7073 1236.8645 975.9928 1240.6 976.4151 1240.6386zM954.4355 1225.73c.4432.19 2.3638-4.5142 6.7954-8.6667 4.3678-4.2221 9.16-5.9068 8.9922-6.3593-.0364-.401-5.3912.6931-10.0872 5.2086C955.3951 1220.3785 954.0361 1225.6733 954.4355 1225.73zM946.7568 1210.0752c.3423.3287 3.4129-2.7233 8.1565-4.8563 4.7153-2.1987 9.0313-2.53 9.0063-3.0035.0514-.4029-4.5946-.7912-9.6674 1.5591C949.16 1206.08 946.4182 1209.85 946.7568 1210.0752z" fill="#000000" class="color000000 svgShape"></path><path d="M957.6017,1203.9683a6.2394,6.2394,0,0,0-1.3872-2.3592,19.0033,19.0033,0,0,0-5.6841-4.8715c-1.38-.7132-2.9956-1.7325-5.2091-1.45a2.9787,2.9787,0,0,0-2.4744,2.3635,4.85,4.85,0,0,0,.7913,3.3676c2.5311,3.83,8.24,5.4548,12.9478,3.2364a12.1476,12.1476,0,0,0,6.6454-11.7719,4.2135,4.2135,0,0,0-1.7172-3.063,2.92,2.92,0,0,0-3.4085.3389c-1.6385,1.4251-2.1157,3.1968-2.6855,4.6491a21.1975,21.1975,0,0,0-1.1411,7.39,6.4408,6.4408,0,0,0,.4063,2.7045c.3158.0229-.3686-3.9775,1.789-9.7089.5873-1.3765,1.214-3.0439,2.4405-3.9953a1.5579,1.5579,0,0,1,1.8561-.1966,2.8944,2.8944,0,0,1,1.0106,2.08,10.8416,10.8416,0,0,1-5.8785,10.1394c-3.9481,1.91-8.9652.4736-11.0313-2.5891a3.5124,3.5124,0,0,1-.6506-2.3277,1.6112,1.6112,0,0,1,1.3457-1.3236c1.4915-.2784,3.1034.4958,4.4337,1.1464C955.4238,1200.5666,957.37,1204.2017,957.6017,1203.9683Z" fill="#000000" class="color000000 svgShape"></path></g><path d="M757.3862,947.4726c1.2631.0191,76.3261,59.5579,80.4473,65.5171s6.4351,47.69,19.3206,86.6343,54.57,95.1724,54.57,95.1724l38.9246-11.6224s-31.624-163.8961-39.221-190.5454-28.8211-71.1953-28.8211-71.1953L866.53,898.4456l-2.2913-37.9681-105.7892-2.0017c-1.2631-.0193-20.0984,32.8558-16.1064,63.7737C744.3664,937.92,757.3862,947.4726,757.3862,947.4726Z" fill="#000000" class="color000000 svgShape"></path><path d="M995.2754,934.939c-8.8094-30.0377-69.2577-71.6909-69.2577-71.6909l-10.2675-2.381-62.0361-.9431s1.5939,28.664,1.5746,29.9271,28.4259,69.5048,28.4259,69.5048l38.3421,26.6952,6.6218,7.6818s-9.7471,31.3112-12.6415,55.8242-1.4975,98.5318-1.4975,98.5318l42.42,7.8048s35.3947-111.9157,39.4663-130.3851S1004.0847,964.9759,995.2754,934.939Z" fill="#000000" class="color000000 svgShape"></path><path d="M830.4739,874.2929a8.1711,8.1711,0,0,1,2.5435.4922,54.3251,54.3251,0,0,1,6.6587,2.3221c1.3744.5774,2.86,1.2613,4.4224,2.0625a26.0551,26.0551,0,0,1,4.794,2.9936c1.5672,1.1919,3.1611,2.4738,4.8783,3.6724a20.862,20.862,0,0,0,2.68,1.6036,5.5605,5.5605,0,0,0,1.375.4563,1.5576,1.5576,0,0,0,1.15-.2354c1.6921-1.0765,3.06-2.9191,4.5814-4.4441a55.3342,55.3342,0,0,1,4.9477-3.8163,57.2551,57.2551,0,0,1,8.87-5.5478,59.6829,59.6829,0,0,1,6.4351-2.872,8.2466,8.2466,0,0,1,2.4864-.7244c.0859.211-3.3218,1.5771-8.4425,4.48a64.9456,64.9456,0,0,0-8.578,5.7224c-1.4853,1.2029-3.307,2.3336-4.7237,3.7322-1.4765,1.4744-2.7312,3.3155-4.8649,4.7006a3.0614,3.0614,0,0,1-2.0693.4094,6.84,6.84,0,0,1-1.7674-.58,21.4438,21.4438,0,0,1-2.8783-1.7429c-1.7648-1.2562-3.3564-2.5735-4.8825-3.7779a26.0149,26.0149,0,0,0-4.546-2.99c-1.5118-.8319-2.9486-1.5571-4.2775-2.1846C833.9378,875.5357,830.4068,874.5148,830.4739,874.2929Z" fill="#000000" class="color000000 svgShape"></path><path d="M950.6482,1183.174a3.4241,3.4241,0,0,1-.23-.7732c-.1391-.5952-.3155-1.3516-.5362-2.2972-.464-2.124-1.1118-5.0889-1.9354-8.8579-1.66-7.803-4.0248-18.9192-6.9382-32.613-5.8834-27.5315-13.8914-65.5939-23.4444-107.4655-4.85-20.9168-9.4349-40.8886-14.7421-58.6792-2.5842-8.853-7.157-16.5455-10.8736-23.9079-3.853-7.3186-7.562-14.0761-10.9527-20.242-6.8293-12.22-12.3722-22.1381-16.2633-29.1-1.884-3.3658-3.3658-6.0133-4.4278-7.91-.4633-.8527-.8342-1.5349-1.1261-2.0721a.4049.4049,0,1,1,.1259-.0732c.3231.5184.7342,1.1777,1.2481,2.0012,1.1172,1.8652,2.6768,4.4682,4.6594,7.7778,4.005,6.7792,9.7486,16.62,16.662,28.8879,3.4491,6.1382,7.2113,12.8716,11.1156,20.1783q2.9279,5.48,5.9272,11.3956a77.2459,77.2459,0,0,1,5.1544,12.67c5.4064,17.8721,10.0237,37.8206,14.8789,58.7572,9.5576,41.8917,17.41,79.9907,23.0426,107.5781,2.7279,13.7337,4.9422,24.882,6.4965,32.7074.7124,3.7919,1.2725,6.7745,1.674,8.9115.1637.957.2946,1.7228.3976,2.3251A3.3988,3.3988,0,0,1,950.6482,1183.174Z" fill="#000000" class="color000000 svgShape"></path></g><g fill="#000000" class="color000000 svgShape"><path fill="#53d86a" d="M1008.1136,716.9985l-37.0571,21.3984s-11.9641-25.8959-23.7327-59.7954c-12.8835-37.1107-30.5456-37.38-30.5456-37.38l-10.9964,81.5729,11.3821,31.8144s17.4979,34.5145,26.71,38.8549c32.3877,15.2592,90.1285-43.5876,90.1285-43.5876Z" class="color11a64a svgShape"></path><path fill="#53d86a" d="M937.4786,727.7406c3.9979-21.1482,5.82-55.82-5.2907-74.84-2.3747-4.0647-11.7437-11.7386-16.1234-13.465-11.5032-4.5353-37.7993-11.6887-38.8582-12.78-1.2794-1.3193-46.8046-1.3213-60.8523-1.2946-1.8162.0033-1.1892.16-1.1892.16l-34.1133,12.8649a13.7,13.7,0,0,0-8.328,13.8913l7.5487,81.4778s2.8545,28.5432,3.1088,35.8547-4.6559,17.8333-4.6559,17.8333c-3.9091,8.9039-14.5018,36.74-21.52,55.3546a13.6955,13.6955,0,0,0,12.2046,18.51l151.1207,1.3991c7.6642.3461,11.2344.1147,9.73-7.4079-3.344-16.7166-10.0949-19.0677-11.0509-31.3742-1.2227-15.73,5.3274-62.0344,5.71-63.1249S932.3135,755.0662,937.4786,727.7406Z" class="color11a64a svgShape"></path><path fill="#53d86a" d="M778.4276,639.8956s-32.3513,11.8591-39.2945,59.9843-20.058,85.0383-25.544,114.1874c-4.2834,22.7586-12.52,94.6013-12.52,94.6013l33.28,6.19,36.7937-133.3769,9.5952-42.9888,7.2955-34.5811Z" class="color11a64a svgShape"></path><path d="M916.4746 673.6837a18.3071 18.3071 0 012.5077 3.0358 75.6256 75.6256 0 015.7 9.1028 85.4981 85.4981 0 015.25 68.8844 75.4834 75.4834 0 01-4.2544 9.8606 18.3241 18.3241 0 01-2.018 3.3806 24.1412 24.1412 0 011.5194-3.62 100.1546 100.1546 0 003.8-9.9428 89.2431 89.2431 0 00-5.19-68.1008 100.0419 100.0419 0 00-5.2635-9.252A24.2451 24.2451 0 01916.4746 673.6837zM769.9989 691.7435c.3842-.0823 3.53 13.077 7.0252 29.3886 3.497 16.3169 6.02 29.607 5.6355 29.6893s-3.5287-13.0744-7.0257-29.3913C772.1384 705.1188 769.6152 691.8257 769.9989 691.7435zM909.7814 839.3359a28.5254 28.5254 0 01-4.5364.8266c-2.9323.4523-7.192.9857-12.468 1.539-10.55 1.1141-25.1927 2.1207-41.39 2.1866-16.2022.0495-30.8538-.8533-41.4109-1.8927-5.2795-.5156-9.5428-1.0185-12.4779-1.45a28.5724 28.5724 0 01-4.5417-.794 28.6133 28.6133 0 014.6032.2441c3.1924.255 7.4061.5913 12.5011.9984 10.5571.7806 25.1687 1.5215 41.3212 1.4724 16.147-.0659 30.7516-.91 41.3028-1.7663l12.4945-1.0869A28.6712 28.6712 0 01909.7814 839.3359z" fill="#000000" class="color000000 svgShape"></path></g><g fill="#000000" class="color000000 svgShape"><path d="M835.0436,488.0117c-5.9872-3.8008-7.4331-12.6173-4.1888-18.9228s10.13-10.135,17.131-11.2646a32.6372,32.6372,0,0,1,28.12,9.3181c3.8644,3.979,6.9945,9.1693,12.2336,10.9928,4.6046,1.6026,9.6993.1556,14.5349.7826,6.4822.84,12.0379,5.4476,15.3619,11.0758s4.6946,12.1916,5.4627,18.6827c.7047,5.9572,1.17,12.495,5.3032,16.8427,4.03,4.24,10.3971,5.1377,15.4092,8.1542,9.43,5.6744,12.4861,19.731,6.2643,28.8093-1.984,2.8939-4.8321,5.5481-5.0622,9.05-.21,3.1967,1.856,6.0433,2.8242,9.0977,2.491,7.8632-3.9462,17.2052-12.1809,17.6782-4.1576.239-8.6116-1.3819-12.3382.4772-3.7019,1.8464-5.0794,6.31-7.447,9.7023a17.8038,17.8038,0,0,1-21.7061,5.606c-3.0579-1.5-5.9454-3.975-9.344-3.7467-3.3912.2288-6.0609,3.1243-9.3974,3.77-4.3689.8449-8.5167-2.3727-11.1144-5.9851s-4.4075-7.8683-7.7321-10.8256c-4.3528-3.8717-10.4689-4.8285-15.9773-6.7249a45.068,45.068,0,0,1-25.4506-63.1343" fill="#000000" class="color000000 svgShape"></path><path d="M898.3911,566.2991a12.2263,12.2263,0,0,1,4.8593-3.197l-.3715-.0226a7.2007,7.2007,0,0,1,1.0407-.1764,4.83,4.83,0,0,1,3.7972.4693l-.0363-.0023a8.99,8.99,0,0,1,4.9162,4.2794,10.6387,10.6387,0,0,1-1.2532,10.9615c-2.0432,2.6788-5.5554,4.4352-8.8292,3.64-3.0078-.73-5.2381-3.4583-6.0906-6.4336A10.0918,10.0918,0,0,1,898.3911,566.2991Z" fill="#000000" class="color000000 svgShape"></path><path fill="#fbce9e" d="M819.0117,623.0608l-5.9859-109.8771a9.9151,9.9151,0,0,1,8.5815-10.3038l52.2144-14.7874c16.7921-2.26,28.58,18.1613,30.1256,35.0348,1.7167,18.7455,3.0734,41.7,1.2463,55.7756-3.6734,28.3032-26.8617,32.5881-26.8617,32.5881-.0094-.0951-.1706,7.12,0,17.3616l-10.657,34.82Z" class="colorfbbf9e svgShape"></path><path fill="#ecaf6f" d="M878.3319,611.491s-17.2259,1.6748-36.3261-9.08c0,0,8.1566,20.9571,36.2816,17.5193Z" class="colorec996f svgShape"></path><path d="M922.9425,517.2075c-1.3122-4.2213-3.7278-8.25-7.4318-10.6628-2.03-1.3224-4.3876-2.1284-6.2729-3.65-4.0719-3.2867-5.0149-9.0077-7.5289-13.5974a21.2807,21.2807,0,0,0-16.2117-10.7547c-5.5839-.5707-11.3364,1.1045-16.7789-.2674-4.0228-1.0145-7.5368-3.6259-11.6127-4.4-7.937-1.5085-15.3154,4.1873-21.07,9.8587-.0211,5.6815,4.5051,9.4811,8.8617,13.1273a19.7064,19.7064,0,0,0,15.9548,4.21c4.3358-.7927,9.088-2.9844,12.8418-.674,3.9478,2.43,4.1108,8.38,7.6116,11.4195,5.0037,4.3426,12.9587.268,19.3107,2.1515,4.9053,1.4548,7.9691,6.1435,11.2281,10.0872s8.14,7.6947,13.0442,6.2386A57.5811,57.5811,0,0,0,922.9425,517.2075Z" fill="#000000" class="color000000 svgShape"></path><path d="M863.346,493.1933c-3.5581-1.018-10.8388-3.3223-12.7475-6.4084-4.1443-6.7031-11.4523-11.28-18.9187-10.8716a17.9508,17.9508,0,0,0-16.1613,14.1886c-9.0341.0676-17.8488,5.7423-22.1846,14.2809a26.9637,26.9637,0,0,0-1.4083,3.3111,19.6354,19.6354,0,0,0-1.3142,16.4862c1.2313,3.2135,3.3284,6.7891,1.6753,9.8068-1.6824,3.0716-5.9348,3.1685-9.2462,4.31a13.0394,13.0394,0,0,0-8.2136,14.5636c.46,2.138,1.482,4.2725,1.0368,6.4138-.4632,2.2283-2.3716,3.8024-3.8361,5.544a16.2277,16.2277,0,0,0,9.5159,26.4128c2.5311.46,5.2755.3539,7.4669,1.7022,2.5122,1.5464,3.6114,4.5689,5.3843,6.9271a14,14,0,0,0,15.1679,4.75,12.8092,12.8092,0,0,0,3.0483-1.5337c1.6951,2.3519,4.3556,3.9438,8.9057,3.9438l-1.0448-59.411a4.9174,4.9174,0,0,0,3.601,2.8214c9.5347,2.1569,10.9288-17.4925,8.801-22.8186,3.4492-3.0627,6.9368-6.169,9.5685-10.0605s4.95-14.5011,4.3884-19.2777C850.2677,498.4752,864.9086,493.6406,863.346,493.1933Z" fill="#000000" class="color000000 svgShape"></path><path fill="#fbce9e" d="M823.0978,552.4413c-.3018-6.0385-7.6912-7.33-12.9255-4.3045-2.8733,1.6611-5.0713,5.0009-4.8076,11.4119.7043,17.0965,17.7226,12.8624,17.7331,12.3717C823.1028,571.6153,823.4509,559.5118,823.0978,552.4413Z" class="colorfbbf9e svgShape"></path><path fill="#ecaf6f" d="M817.6079,565.6579c-.0772-.0514-.29.2212-.7831.4724a2.9784,2.9784,0,0,1-2.2244.1378c-1.8332-.5889-3.4723-3.3935-3.6821-6.4718a9.843,9.843,0,0,1,.6583-4.2978,3.4418,3.4418,0,0,1,2.1456-2.3786,1.5175,1.5175,0,0,1,1.7912.7437c.2492.4686.1546.8144.2464.84.05.0407.3549-.3018.1884-1.002a1.9052,1.9052,0,0,0-.7168-1.0437,2.249,2.249,0,0,0-1.6645-.3674,4.1894,4.1894,0,0,0-3.0023,2.7785,10.1212,10.1212,0,0,0-.8365,4.8079c.2515,3.44,2.1475,6.5915,4.6488,7.2037a3.19,3.19,0,0,0,2.705-.5641C817.5947,566.0723,817.6685,565.6869,817.6079,565.6579Z" class="colorec996f svgShape"></path><path d="M839.8062 488.5771c.1261.1813-1.7228.49-3.41 2.8558-1.6928 2.329-2.33 6.7936-1.2578 11.8228l.0923.4317-.4213.1047a16.5326 16.5326 0 00-11.0142 9.7038 12.8618 12.8618 0 00-.8848 4.17 25.1117 25.1117 0 00.5344 4.5171 33.92 33.92 0 01.6512 4.8651 8.0381 8.0381 0 01-1.3545 5.0446c-2.1265 3.2354-5.5444 4.828-8.4811 6.3724a28.7488 28.7488 0 00-7.9382 5.1992 21.3631 21.3631 0 00-6.3851 14.3251 22.3026 22.3026 0 002.253 10.5655c1.1354 2.334 2.0891 3.4474 1.9923 3.5178-.0325.0264-.282-.2377-.7307-.7684a18.0654 18.0654 0 01-1.6784-2.5331 21.7031 21.7031 0 01-2.6889-10.8039 21.9881 21.9881 0 016.4539-15.0912 29.4366 29.4366 0 018.1831-5.4629c2.9366-1.5443 6.157-3.1219 8.0075-5.9769 1.8939-2.5949 1.0467-5.9841.5489-9.0466a25.8874 25.8874 0 01-.5266-4.7446 13.8672 13.8672 0 011-4.5626 17.3274 17.3274 0 0111.8471-10.1589l-.329.536c-1.0122-5.2709-.2105-9.8933 1.7246-12.3183a7.2009 7.2009 0 012.675-2.18A4.1444 4.1444 0 01839.8062 488.5771zM811.2224 572.0579a12.219 12.219 0 014.859-3.1972l-.3712-.0226a7.0887 7.0887 0 011.04-.1765 4.8316 4.8316 0 013.7973.4694l-.0361-.0021a8.987 8.987 0 014.9157 4.2789 10.6379 10.6379 0 01-1.2532 10.9618c-2.0427 2.6791-5.5552 4.4349-8.8292 3.64-3.0073-.73-5.2379-3.458-6.09-6.4333A10.09 10.09 0 01811.2224 572.0579z" fill="#000000" class="color000000 svgShape"></path></g></g></svg>