<svg width="44" height="44" viewBox="0 0 44 44" fill="none" xmlns="http://www.w3.org/2000/svg">
<g id="Books" clip-path="url(#clip0_1_317)">
<g id="Group">
<path id="Vector" d="M22 43.6615C33.9633 43.6615 43.6615 33.9633 43.6615 22C43.6615 10.0367 33.9633 0.33847 22 0.33847C10.0367 0.33847 0.338455 10.0367 0.338455 22C0.338455 33.9633 10.0367 43.6615 22 43.6615Z" fill="#32335E"/>
<g id="Group_2">
<path id="Vector_2" d="M30.8338 7.48001H26.1631V21.6615H30.8338V7.48001Z" fill="#FE9526"/>
<path id="Vector_3" d="M24.3692 10.8308H19.6985V21.6954H24.3692V10.8308Z" fill="#FFAF5B"/>
<path id="Vector_4" d="M17.9385 14.1477H13.2677V21.6616H17.9385V14.1477Z" fill="#8486FF"/>
<path id="Vector_5" d="M32.2554 34.2523H8.86769V28.2954H32.2892C33.9477 28.2954 35.2677 29.6154 35.2677 31.2739C35.2338 32.9323 33.9138 34.2523 32.2554 34.2523Z" fill="white"/>
<path id="Vector_6" d="M21.0523 29.3785H34.5569C34.5231 29.3108 34.4554 29.2769 34.3877 29.2092C34.32 29.1415 34.2862 29.1077 34.2185 29.04H21.0523V29.3785ZM21.0523 30.0554H34.9631C34.9292 29.9877 34.8954 29.9539 34.8954 29.8862C34.8615 29.8185 34.8277 29.7846 34.7938 29.7169H21.0523V30.0554ZM21.0523 30.7662H35.2C35.2 30.6985 35.1662 30.6646 35.1662 30.5969H21.0523H35.1323C35.1323 30.5292 35.0985 30.4954 35.0985 30.4277H21.0523V30.7662ZM21.0523 31.4431H35.2338C35.2338 31.3754 35.2338 31.3415 35.2338 31.2739C35.2338 31.2062 35.2338 31.1723 35.2338 31.1046H21.0523V31.4431ZM21.0523 32.12H35.0985C35.0985 32.0523 35.1323 32.0185 35.1323 31.9508C35.1323 31.8831 35.1662 31.8492 35.1662 31.7815H21.0523V32.12ZM21.0523 32.8308H34.7938C34.8277 32.7631 34.8615 32.7292 34.8954 32.6615C34.9292 32.5939 34.9631 32.56 34.9631 32.4923H21.0523V32.8308ZM21.0523 33.5077H34.2185C34.2862 33.44 34.3538 33.4062 34.3877 33.3385C34.4554 33.2708 34.4892 33.2369 34.5569 33.1692H21.0523V33.5077Z" fill="#E6EEE7"/>
<path id="Vector_7" d="M8.49538 33.88H32.2554C33.7108 33.88 34.8954 32.6954 34.8954 31.2739C34.8954 29.8523 33.7108 28.6677 32.2554 28.6677H8.49538V27.9908H32.2554C34.0831 27.9908 35.5723 29.4462 35.5723 31.2739C35.5723 33.1016 34.0831 34.5569 32.2554 34.5569H8.49538V33.88Z" fill="#F19A3F"/>
<path id="Vector_8" d="M35.5723 21.3231C35.5384 21.1877 35.4708 21.0862 35.5723 20.9846H11.7446C10.12 20.9846 8.79999 22.3046 8.79999 23.9292C8.79999 25.5538 10.12 26.8739 11.7446 26.8739H35.6061C35.5046 26.7723 35.5384 26.7046 35.6061 26.5354C34.4554 24.9785 34.4554 22.88 35.5723 21.3231Z" fill="#E6EEE7"/>
<path id="Vector_9" d="M35.5723 26.5354H11.8461C10.3908 26.5354 9.20614 25.3508 9.20614 23.9293C9.20614 22.5077 10.3908 21.3231 11.8461 21.3231H35.6061V20.6462H11.8461C10.0185 20.6462 8.52922 22.1016 8.52922 23.9293C8.52922 25.7569 10.0185 27.2123 11.8461 27.2123H35.6061V26.5354H35.5723Z" fill="#53D86A"/>
<path id="Vector_10" d="M20.5446 22.0338V22.8462H34.8954C34.9631 22.5754 35.0646 22.3046 35.2 22.0338H20.5446ZM23.4215 24.3354H34.76C34.7261 24.0646 34.7261 23.7938 34.76 23.5231H23.4215V24.3354ZM18.04 25.8246H35.2C35.0646 25.5538 34.9969 25.2831 34.8954 25.0123H18.04V25.8246Z" fill="#595BD4"/>
</g>
</g>
</g>
<defs>
<clipPath id="clip0_1_317">
<rect width="44" height="44" fill="white"/>
</clipPath>
</defs>
</svg>
