<svg width="25" height="25" viewBox="0 0 25 25" fill="none" xmlns="http://www.w3.org/2000/svg">
<g clip-path="url(#clip0_18_1086)">
<path d="M9.95547 17.5601C10.9546 17.5634 11.9444 17.3685 12.8677 16.9867C13.791 16.605 14.6294 16.0439 15.3344 15.3359C18.2984 12.3703 18.2984 7.54452 15.3344 4.57889C13.9 3.14452 11.9898 2.35468 9.95547 2.35468C7.92109 2.35468 6.01172 3.14452 4.57813 4.57889C3.14297 6.01327 2.35234 7.92264 2.35234 9.95702C2.35234 11.9914 3.14297 13.9008 4.57813 15.3359C5.28279 16.0439 6.12091 16.605 7.04395 16.9868C7.96698 17.3686 8.95659 17.5635 9.95547 17.5601ZM5.02109 5.02108C6.33672 3.70468 8.08906 2.98046 9.95547 2.98046C11.8219 2.98046 13.5758 3.70546 14.8914 5.02108C17.6125 7.74296 17.6125 12.1719 14.8914 14.8945C13.575 16.2109 11.8219 16.9351 9.95547 16.9351C8.08906 16.9351 6.33594 16.2101 5.02109 14.8945C4.37093 14.2477 3.85558 13.4783 3.50489 12.6309C3.15421 11.7835 2.97516 10.8749 2.97812 9.9578C2.97512 9.04069 3.15414 8.1321 3.50483 7.28469C3.85552 6.43727 4.3709 5.66787 5.02109 5.02108ZM21.5742 23.7961C22.1672 24.3883 23.2008 24.3867 23.7938 23.7961C23.9399 23.6504 24.0557 23.4772 24.1346 23.2866C24.2134 23.0959 24.2537 22.8915 24.2531 22.6851C24.2531 22.2656 24.0898 21.8711 23.7938 21.5758L19.0242 16.807L16.8031 19.0266L21.5742 23.7961Z" fill="white"/>
<path d="M9.95547 16.9352C11.8227 16.9352 13.5758 16.2102 14.8914 14.8945C17.6125 12.1727 17.6125 7.74375 14.8914 5.02109C13.575 3.70469 11.8219 2.98047 9.95547 2.98047C8.08906 2.98047 6.33594 3.70469 5.02109 5.02109C4.37102 5.66782 3.85573 6.43709 3.50504 7.28436C3.15436 8.13163 2.97526 9.04006 2.97812 9.95703C2.97812 11.8242 3.70391 13.5773 5.02109 14.8937C5.66761 15.5436 6.43666 16.0586 7.28367 16.409C8.13069 16.7594 9.03883 16.9383 9.95547 16.9352Z" fill="white"/>
<path d="M9.95391 19.793C11.8188 19.793 13.6227 19.2742 15.1875 18.2914L16.1391 19.2453L16.1398 19.2461L21.1328 24.2383C21.5469 24.6516 22.0984 24.8797 22.6836 24.8797C23.2695 24.8797 23.8203 24.6516 24.2352 24.2383C24.6492 23.8234 24.8781 23.2719 24.8781 22.6851C24.8781 22.0992 24.6492 21.5476 24.2352 21.1336L19.2445 16.1445L18.2898 15.1891C20.7148 11.3281 20.1547 6.24061 16.9141 2.99843C15.057 1.14296 12.5859 0.1203 9.95469 0.1203C7.32344 0.1203 4.85313 1.14218 2.99609 2.99764C-0.838281 6.83514 -0.838281 13.0789 2.99609 16.9156C3.90813 17.8313 4.99265 18.557 6.18692 19.0509C7.3812 19.5448 8.66154 19.797 9.95391 19.793ZM19.0242 16.8062L23.7938 21.575C24.0898 21.8711 24.2531 22.2656 24.2531 22.6844C24.2537 22.8907 24.2134 23.0951 24.1346 23.2858C24.0557 23.4765 23.9399 23.6496 23.7938 23.7953C23.2008 24.3867 22.1672 24.3875 21.5742 23.7953L16.8031 19.025L19.0242 16.8062ZM4.57813 4.57889C6.01172 3.14452 7.92109 2.35468 9.95547 2.35468C11.9898 2.35468 13.9 3.14452 15.3344 4.57889C18.2984 7.54452 18.2984 12.3703 15.3344 15.3359C13.8992 16.7703 11.9898 17.5601 9.95547 17.5601C7.92109 17.5601 6.01172 16.7703 4.57813 15.3359C3.14297 13.9016 2.35234 11.9914 2.35234 9.95702C2.35234 7.92264 3.14297 6.01327 4.57813 4.57889Z" fill="#ECECEC"/>
</g>
<defs>
<clipPath id="clip0_18_1086">
<rect width="25" height="25" fill="white"/>
</clipPath>
</defs>
</svg>
