<svg width="523" height="523" viewBox="0 0 523 523" fill="none" xmlns="http://www.w3.org/2000/svg">
<path d="M150.458 200.204C150.458 200.204 110.747 159.736 135.402 156.672C135.402 156.672 150.938 145.105 136.226 127.833C136.226 127.833 117.275 112.365 135.076 101.825C135.076 101.825 134.811 107.492 150.655 115.638C153.78 117.244 156.303 119.773 157.774 122.807C161.478 130.461 167.508 145.412 164.683 156.955L157.251 203.293L150.458 200.204Z" fill="#BD97F8"/>
<path d="M139.593 117.943L139.026 118.182L160.54 169.175L161.107 168.936L139.593 117.943Z" fill="#DCEFF8"/>
<path d="M145.419 118.832H144.803V131.778H145.419V118.832Z" fill="#DCEFF8"/>
<path d="M135.61 159.581L135.125 159.961L153.289 183.155L153.774 182.775L135.61 159.581Z" fill="#DCEFF8"/>
<path d="M95.3275 282.918C27.8667 224.521 91.482 168.978 69.3621 120.678C69.3621 120.678 172.264 170.363 147.191 232.901L132.688 279.743L95.3275 282.918Z" fill="#CC4040"/>
<path d="M129.058 246.598C111.374 177.162 72.6663 128.689 72.2786 128.209L72.7586 127.821C73.1462 128.301 111.934 176.872 129.655 246.444L129.058 246.598Z" fill="#DCEFF8"/>
<path d="M93.7437 140.586L93.145 140.727L101.146 174.489L101.744 174.347L93.7437 140.586Z" fill="#DCEFF8"/>
<path d="M86.3214 177.499L85.9205 177.966L114.254 202.299L114.655 201.832L86.3214 177.499Z" fill="#DCEFF8"/>
<path d="M134.178 184.139L123.852 228.32L124.451 228.46L134.777 184.279L134.178 184.139Z" fill="#DCEFF8"/>
<path d="M98.5423 226.001L97.996 226.284L114.014 257.2L114.56 256.917L98.5423 226.001Z" fill="#DCEFF8"/>
<path d="M402.396 416.696C424.953 415.803 500.911 305.512 430.38 193.725C430.38 193.725 415.244 177.925 394.687 188.065C394.687 188.065 358.71 202.37 329.01 180.312C329.01 180.312 274.76 146.329 239.349 146.926C239.349 146.926 197.091 143.948 150.833 198.795C150.833 198.795 102.293 253.046 81.1635 300.147C81.1635 300.147 60.0343 351.419 151.978 421.169L402.396 416.696Z" fill="#DCEFF8"/>
<path d="M309.757 260.177H229.474L232.735 210.837C255.796 195.725 282.248 195.836 306.496 210.837L309.757 260.177Z" fill="#6148A9"/>
<path d="M318.63 233.843H316.784V199.558C316.784 198.168 316.169 197.239 315.726 197.177L295.889 195.141L296.08 193.307L315.941 195.35C317.51 195.553 318.63 197.325 318.63 199.564V233.843Z" fill="#E13268"/>
<path d="M317.707 231.843C316.815 232.864 312.612 246.844 317.91 253.513C318.285 253.673 324.094 243.607 317.707 231.843Z" fill="#D93A54"/>
<path d="M317.707 235.51C318.72 235.51 319.541 234.763 319.541 233.842C319.541 232.922 318.72 232.175 317.707 232.175C316.694 232.175 315.874 232.922 315.874 233.842C315.874 234.763 316.694 235.51 317.707 235.51Z" fill="#6148A9"/>
<path d="M339.71 207.84V210.271L265.949 229.172L199.928 209.84V207.169L270.434 183.167L339.71 207.84Z" fill="#6148A9"/>
<path d="M339.692 210.246L265.949 233.178L199.928 209.84L270.428 187.172L339.685 210.098C339.741 210.117 339.741 210.228 339.692 210.246Z" fill="#7A8FD3"/>
<path d="M410.549 285.355L381.919 285.896C380.436 285.927 379.206 284.74 379.175 283.257L379.15 281.928C379.12 280.445 380.307 279.214 381.79 279.184L410.42 278.642C411.902 278.611 413.133 279.799 413.164 281.282L413.188 282.611C413.213 284.1 412.032 285.324 410.549 285.355ZM409.595 294.326L383.199 294.824C381.716 294.855 380.486 293.668 380.455 292.185L380.43 290.856C380.399 289.373 381.587 288.142 383.07 288.111L409.466 287.613C410.949 287.582 412.179 288.77 412.21 290.253L412.235 291.582C412.265 293.071 411.084 294.295 409.595 294.326ZM403.528 302.725L389.586 302.989C387.008 303.038 384.885 300.99 384.836 298.411L384.811 297.255L408.081 296.818L408.106 297.975C408.155 300.547 406.106 302.675 403.528 302.725Z" fill="#362A37"/>
<path d="M437.406 213.218C436.97 190.107 417.582 171.735 394.096 172.172C370.61 172.608 351.93 191.707 352.36 214.818C352.582 226.619 358.021 239.171 366.414 248.56C370.542 253.175 372.893 259.106 373.01 265.296L373.028 266.398C373.145 272.68 378.338 277.676 384.62 277.559L407.522 277.128C413.804 277.012 418.8 271.818 418.683 265.536C418.566 259.365 420.67 253.36 424.608 248.61C432.755 238.789 437.634 225.499 437.406 213.218Z" fill="#FEC227"/>
<path d="M411.331 189.244C412.583 187.396 411.061 184.177 407.93 182.055C404.799 179.934 401.245 179.712 399.993 181.56C398.74 183.408 400.263 186.626 403.394 188.748C406.525 190.87 410.078 191.092 411.331 189.244Z" fill="#FEFFFB"/>
<path d="M414.518 190.753C422.289 188.883 436.656 202.032 431.204 219.223C430.294 222.103 426.245 222.336 425.008 219.58C424.996 219.555 424.984 219.531 424.971 219.5L422.486 213.095C420.72 208.542 417.908 204.462 414.278 201.183C413.139 200.155 412.432 198.74 412.296 197.208L412.038 194.31C411.896 192.685 412.93 191.135 414.518 190.753Z" fill="#FEFFFB"/>
<path d="M384.399 277.719L376.695 236.704C376.578 236.095 376.738 235.473 377.132 234.987C377.526 234.507 378.104 234.224 378.72 234.212C379.347 234.193 379.938 234.464 380.35 234.938L384.017 239.183L387.217 235.184C387.801 234.452 388.675 234.021 389.617 234.003L389.869 233.996C390.81 233.972 391.696 234.378 392.312 235.085L395.659 238.962L399.098 234.661C399.529 234.119 400.175 233.799 400.87 233.787L401.892 233.769C402.593 233.756 403.245 234.052 403.694 234.575L407.294 238.74L410.918 234.206C411.232 233.812 411.706 233.578 412.21 233.572C412.715 233.566 413.195 233.775 413.527 234.162C413.859 234.544 413.994 235.055 413.915 235.553L406.814 277.301L404.993 276.993L411.995 235.824L407.355 241.626L402.304 235.775C402.212 235.664 402.076 235.602 401.929 235.608L400.907 235.627C400.766 235.627 400.63 235.695 400.538 235.805L395.714 241.841L390.915 236.285C390.663 235.99 390.293 235.842 389.906 235.836L389.653 235.842C389.266 235.848 388.903 236.027 388.663 236.328L384.079 242.063L378.96 236.131C378.91 236.076 378.837 236.039 378.763 236.045C378.658 236.045 378.597 236.107 378.572 236.138C378.547 236.168 378.498 236.242 378.517 236.347L386.22 277.356L384.399 277.719Z" fill="white"/>
<path d="M327.084 332.185V344.959C327.084 349.604 322.845 353.363 317.615 353.363H215.605C219.223 350.718 221.524 346.712 221.524 342.233V334.911C221.524 330.425 219.217 326.426 215.605 323.78H317.615C322.845 323.78 327.084 327.54 327.084 332.185Z" fill="#DCEFF8"/>
<path d="M327.546 335.391H221.469V336.006H327.546V335.391Z" fill="#B7D4F4"/>
<path d="M327.546 339.501H221.469V340.116H327.546V339.501Z" fill="#B7D4F4"/>
<path d="M327.552 345.254H221.063V345.869H327.552V345.254Z" fill="#B7D4F4"/>
<path d="M325.7 349.358H219.211V349.973H325.7V349.358Z" fill="#B7D4F4"/>
<path d="M317.615 353.37C322.845 353.37 327.084 349.604 327.084 344.965V332.191C327.084 327.546 322.845 323.786 317.615 323.786H215.605C213.839 322.494 211.76 321.547 209.489 321.005V320.501H358.36C365.632 320.501 371.533 325.737 371.533 332.191V344.965C371.533 351.425 365.632 356.655 358.36 356.655H209.489V356.151C211.76 355.609 213.845 354.662 215.605 353.37H317.615Z" fill="#0843A3"/>
<path d="M334.105 373.736C334.105 365.842 340.215 359.35 348.552 356.889V356.065H190.427C184.681 356.065 180.017 360.039 180.017 364.949V382.522C180.017 387.426 184.674 391.407 190.427 391.407H348.546V390.583C340.171 388.318 333.729 380.719 334.105 373.736Z" fill="#BD97F8"/>
<path d="M183.727 384.153V363.319C183.727 361.128 185.505 359.356 187.689 359.356H312.896V388.121H187.689C185.499 388.121 183.727 386.343 183.727 384.153Z" fill="#81C4EB"/>
<path d="M335.237 373.736C335.237 367.872 338.609 362.679 342.99 359.35H277.079C268.988 359.35 262.429 365.792 262.429 373.736C262.429 381.679 268.988 388.121 277.079 388.121H342.99C338.609 384.793 335.237 379.6 335.237 373.736Z" fill="#F0F8FF"/>
<path d="M335.581 370.143H262.897V370.758H335.581V370.143Z" fill="#ABCBE9"/>
<path d="M335.12 373.957H262.398V374.573H335.12V373.957Z" fill="#ABCBE9"/>
<path d="M238.697 299.857V310.6C238.697 314.501 242.783 317.67 247.828 317.67H346.158C342.676 315.449 340.455 312.077 340.455 308.312V302.152C340.455 298.381 342.676 295.015 346.158 292.794H247.828C242.783 292.788 238.697 295.95 238.697 299.857Z" fill="#F0F8FF"/>
<path d="M340.504 302.497H238.254V303.112H340.504V302.497Z" fill="#B7D4F4"/>
<path d="M340.504 305.955H238.254V306.57H340.504V305.955Z" fill="#B7D4F4"/>
<path d="M340.898 310.791H238.254V311.406H340.898V310.791Z" fill="#B7D4F4"/>
<path d="M247.828 317.67C242.789 317.67 238.697 314.508 238.697 310.6V299.857C238.697 295.956 242.783 292.788 247.828 292.788H346.158C347.857 291.705 349.862 290.905 352.053 290.45V290.025H208.554C201.54 290.025 195.854 294.431 195.854 299.857V310.6C195.854 316.034 201.54 320.433 208.554 320.433H352.053V320.008C349.862 319.553 347.857 318.753 346.158 317.67H247.828Z" fill="#060351"/>
<path d="M344.823 275.504C344.823 268.865 350.711 263.407 358.747 261.34V260.645H206.339C200.795 260.645 196.303 263.992 196.303 268.114V282.894C196.303 287.022 200.795 290.363 206.339 290.363H358.747V289.668C350.675 287.767 344.466 281.38 344.823 275.504Z" fill="#D93A54"/>
<path d="M199.872 283.411V267.598C199.872 265.284 201.749 263.407 204.062 263.407H324.383V287.595H204.062C201.749 287.601 199.872 285.724 199.872 283.411Z" fill="#F0F8FF"/>
<path d="M345.918 275.504C345.918 270.576 349.167 266.207 353.394 263.407H289.859C282.063 263.407 275.738 268.822 275.738 275.504C275.738 282.186 282.057 287.601 289.859 287.601H353.394C349.167 284.807 345.918 280.439 345.918 275.504Z" fill="#B7D5F2"/>
<path d="M346.251 272.434H276.187V273.049H346.251V272.434Z" fill="#ABCBE9"/>
<path d="M345.808 275.639H275.707V276.255H345.808V275.639Z" fill="#ABCBE9"/>
<path d="M354.496 392.843L427.505 414.53L429.631 407.37L356.623 385.683L354.496 392.843Z" fill="#060351"/>
<path d="M354.852 372.198C352.914 352.293 336.375 336.75 316.255 336.75C297.722 336.75 282.235 349.942 278.39 367.577C280.98 348.244 298.098 333.299 318.845 333.299C341.384 333.299 359.652 350.927 359.652 372.665C359.652 378.111 358.507 383.297 356.434 388.017C356.655 386.472 356.778 384.897 356.778 383.298C356.766 379.421 356.089 375.692 354.852 372.198Z" fill="#060351"/>
<path d="M316.249 415.484C327.072 415.484 336.855 410.98 343.894 403.725C349.339 399.627 353.69 394.237 356.421 388.017C353.923 405.46 337.796 418.929 318.261 418.929C300.663 418.929 285.835 408.002 281.239 393.081C287.484 406.334 300.811 415.484 316.249 415.484Z" fill="#362A37"/>
<path d="M343.894 403.725C350.785 396.619 355.043 386.872 355.043 376.117C355.043 374.794 354.975 373.49 354.852 372.198C356.089 375.692 356.766 379.421 356.766 383.298C356.766 384.897 356.643 386.472 356.421 388.017C353.69 394.237 349.339 399.634 343.894 403.725Z" fill="#362A37"/>
<path d="M279.78 384.073C279.854 387.192 280.359 390.213 281.239 393.087C278.814 387.949 277.461 382.196 277.461 376.123C277.461 373.188 277.787 370.333 278.384 367.583C278.162 369.25 278.033 370.949 278.033 372.671C278.033 376.634 278.648 380.461 279.78 384.073Z" fill="#2B468A"/>
<path d="M316.249 336.75C336.369 336.75 352.908 352.299 354.846 372.198C353.339 367.934 350.995 364.026 347.973 360.642C342.356 348.878 330.776 340.799 317.393 340.799C302.239 340.799 289.391 351.155 284.906 365.491C281.632 370.733 279.75 376.806 279.75 383.298C279.75 383.556 279.762 383.814 279.768 384.067C278.636 380.455 278.021 376.628 278.021 372.665C278.021 370.936 278.15 369.244 278.371 367.577C282.229 349.942 297.716 336.75 316.249 336.75ZM299.771 407.472C304.921 410.733 310.951 412.61 317.399 412.61C320.501 412.61 323.503 412.167 326.358 411.355C332.88 410.18 338.861 407.509 343.894 403.725C336.855 410.98 327.072 415.484 316.249 415.484C300.811 415.484 287.484 406.334 281.239 393.081C280.353 390.207 279.848 387.186 279.78 384.067C282.949 394.201 290.24 402.605 299.771 407.472Z" fill="#2B468A"/>
<path d="M299.771 407.472C290.24 402.605 282.955 394.201 279.78 384.073C279.774 383.814 279.762 383.562 279.762 383.304C279.762 376.818 281.645 370.739 284.918 365.497C283.817 369.023 283.208 372.788 283.208 376.708C283.208 389.764 289.847 401.19 299.771 407.472ZM351.598 376.708C351.598 370.93 350.293 365.479 347.986 360.642C351.001 364.027 353.345 367.934 354.859 372.198C354.982 373.49 355.049 374.794 355.049 376.117C355.049 386.872 350.791 396.619 343.9 403.725C338.867 407.509 332.893 410.18 326.364 411.355C340.898 407.22 351.598 393.278 351.598 376.708Z" fill="#2B468A"/>
<path opacity="0.65" d="M326.358 411.355C323.503 412.167 320.501 412.61 317.399 412.61C310.951 412.61 304.915 410.733 299.771 407.472C305.463 410.383 311.948 412.038 318.839 412.038C321.411 412.038 323.922 411.798 326.358 411.355Z" fill="#DCEFF8"/>
<path opacity="0.52" d="M284.801 365.835C289.133 351.45 301.869 340.959 317.024 340.799C330.407 340.658 342.073 348.613 347.813 360.316C350.17 365.128 351.536 370.567 351.598 376.339C351.77 392.908 341.224 406.968 326.727 411.25C324.291 411.718 321.78 411.983 319.208 412.007C312.317 412.081 305.813 410.494 300.097 407.645C290.105 401.467 283.349 390.109 283.208 377.052C283.171 373.151 283.737 369.38 284.801 365.835Z" fill="#DCEFF8"/>
<path d="M156.279 406.202H159.152V382.507H156.279V406.202Z" fill="#0843A3"/>
<path d="M134.737 411.946H180.693V410.506C180.693 405.749 176.836 401.892 172.079 401.892H143.351C138.595 401.892 134.737 405.749 134.737 410.506V411.946Z" fill="#08085C"/>
<path d="M152.691 384.762C137.543 384.762 123.453 378.707 113.023 367.712L111.99 366.623L120.364 358.249L122.542 360.427L116.303 366.666C126.031 376.363 138.896 381.685 152.698 381.685C181.149 381.685 204.296 358.538 204.296 330.087C204.296 316.378 199.029 303.568 189.437 293.858L182.164 301.125L179.986 298.947L189.4 289.533L190.489 290.573C201.373 300.99 207.366 315.018 207.366 330.081C207.366 360.236 182.835 384.762 152.691 384.762Z" fill="#BD97F8"/>
<path d="M153.048 374.61C176.645 374.61 195.774 355.48 195.774 331.883C195.774 308.287 176.645 289.157 153.048 289.157C129.451 289.157 110.322 308.287 110.322 331.883C110.322 355.48 129.451 374.61 153.048 374.61Z" fill="#0843A3"/>
<path d="M193.565 329.318L189.308 325.06L186.434 323.626L183.561 320.753V317.159L179.5 315.806C179.334 315.75 179.161 315.707 178.989 315.677L174.94 315L174.51 311.105C174.344 309.598 173.175 308.392 171.667 308.176L169.206 307.832L166.332 306.398L166.191 306.256C165.354 305.42 164.813 304.318 164.671 303.143L164.179 299.217H166.332L166.012 293.717C165.908 291.945 164.64 290.456 162.905 290.074C156.254 288.628 139.426 286.869 123.84 300.78L126.117 302.811L128.27 306.404L130.424 305.684V309.991H135.451L136.884 307.838H141.911L144.065 306.404L146.218 309.278L150.526 310.711V315.738L146.932 318.612L148.366 320.765V329.379L145.492 331.533L142.619 335.126L141.899 340.873L139.746 341.593L136.872 342.313L131.845 343.746L127.538 343.026L126.818 340.153H123.945L122.511 344.46L120.358 348.053L119.638 352.36L118.106 355.726L118.61 357.067C118.61 357.067 127.987 372.019 147.511 374.037L157.848 373.324C159.158 373.231 160.426 372.801 161.521 372.074L164.16 370.315H167.754L172.061 368.161L177.088 365.288L179.241 362.414L182.115 360.981L183.794 358.175C184.108 357.652 184.459 357.147 184.84 356.674L187.142 353.8L189.295 350.207L194.39 342.953L194.322 338L194.833 332.917C194.981 331.576 194.507 330.259 193.565 329.318ZM148.686 349.549L147.664 350.915C146.785 351.358 146.231 352.256 146.231 353.24V355.941H144.077V361.688H136.669C135.488 361.688 134.411 361.024 133.882 359.966L133.31 358.815C133.685 357.683 132.965 356.483 131.79 356.286L129.722 355.941V348.041L132.817 346.718C134.023 346.201 135.408 346.331 136.503 347.057L136.909 347.327L138.343 350.921H139.856C140.705 350.921 141.499 350.496 141.973 349.789C142.41 349.13 143.08 348.656 143.85 348.466C144.791 348.232 145.382 347.297 145.191 346.349L144.809 344.454L146.243 345.174L149.836 345.894V346.164C149.818 347.383 149.418 348.57 148.686 349.549ZM165.613 359.529L162.019 361.682L159.866 364.556L159.146 363.122H156.272L154.119 361.688V360.255V358.821L153.842 357.72C153.614 356.821 154.297 355.954 155.22 355.954H157.706L159.14 352.36L160.573 351.641L162.727 353.074L164.16 355.228L165.594 357.381V359.529H165.613ZM187.874 333.68L187.154 336.554L185 338.707L183.567 341.581L182.133 343.734V345.888L178.54 348.041L177.106 349.475L169.206 350.195L165.613 348.761L164.893 345.888L160.586 346.607V340.147L164.179 339.427V335.12L167.772 332.246L172.079 331.527V323.626L176.399 323.146C177.543 323.017 178.54 323.915 178.54 325.06L185.72 327.213L185.634 327.564C185.265 329.035 185.973 330.567 187.326 331.244L187.874 331.52V333.68Z" fill="#63CBEC"/>
</svg>
