<svg width="397" height="321" viewBox="0 0 397 321" fill="none" xmlns="http://www.w3.org/2000/svg">
<path d="M87.4579 99.2044C87.4579 99.2044 47.7468 58.7366 72.4016 55.6724C72.4016 55.6724 87.9378 44.1049 73.2261 26.8335C73.2261 26.8335 54.2751 11.3651 72.0755 0.825073C72.0755 0.825073 71.811 6.49193 87.6548 14.6384C90.7805 16.2443 93.3032 18.7732 94.7737 21.8066C98.4778 29.4609 104.508 44.4125 101.683 55.9554L94.2507 102.293L87.4579 99.2044Z" fill="#BD97F8"/>
<path d="M76.593 16.9431L76.0261 17.1823L97.5402 68.1753L98.1071 67.9361L76.593 16.9431Z" fill="#DCEFF8"/>
<path d="M82.4186 17.8318H81.8033V30.7776H82.4186V17.8318Z" fill="#DCEFF8"/>
<path d="M72.6095 58.5814L72.1251 58.9608L90.2894 82.1549L90.7738 81.7756L72.6095 58.5814Z" fill="#DCEFF8"/>
<path d="M32.3275 181.918C-35.1333 123.521 28.482 67.9782 6.36214 19.6776C6.36214 19.6776 109.264 69.3626 84.1907 131.901L69.6882 178.743L32.3275 181.918Z" fill="#CC4040"/>
<path d="M66.0579 145.598C48.3744 76.1616 9.6662 27.6887 9.27856 27.2088L9.75849 26.8212C10.1461 27.3011 48.9343 75.8724 66.6547 145.444L66.0579 145.598Z" fill="#DCEFF8"/>
<path d="M30.7437 39.5855L30.145 39.7274L38.1458 73.4888L38.7445 73.3469L30.7437 39.5855Z" fill="#DCEFF8"/>
<path d="M23.3214 76.4988L22.9205 76.9656L51.2539 101.299L51.6548 100.832L23.3214 76.4988Z" fill="#DCEFF8"/>
<path d="M71.1778 83.1393L60.8518 127.32L61.451 127.46L71.777 83.2793L71.1778 83.1393Z" fill="#DCEFF8"/>
<path d="M35.5423 125.001L34.996 125.284L51.014 156.2L51.5603 155.917L35.5423 125.001Z" fill="#DCEFF8"/>
<path d="M339.396 315.696C361.953 314.803 437.911 204.512 367.38 92.7253C367.38 92.7253 352.244 76.9246 331.687 87.0646C331.687 87.0646 295.71 101.37 266.01 79.3119C266.01 79.3119 211.76 45.3292 176.349 45.926C176.349 45.926 134.091 42.948 87.8332 97.7953C87.8332 97.7953 39.2927 152.046 18.1635 199.147C18.1635 199.147 -2.96574 250.419 88.9777 320.169L339.396 315.696Z" fill="#DCEFF8"/>
<path d="M246.757 159.177H166.474L169.735 109.837C192.796 94.725 219.248 94.8358 243.496 109.837L246.757 159.177Z" fill="#6148A9"/>
<path d="M255.63 132.842H253.784V98.5583C253.784 97.1677 253.169 96.2386 252.726 96.1771L232.889 94.1404L233.08 92.3069L252.941 94.3496C254.51 94.5527 255.63 96.3247 255.63 98.5644V132.842Z" fill="#E13268"/>
<path d="M254.707 130.843C253.815 131.864 249.612 145.844 254.91 152.513C255.285 152.673 261.094 142.607 254.707 130.843Z" fill="#D93A54"/>
<path d="M254.707 134.51C255.72 134.51 256.541 133.763 256.541 132.842C256.541 131.922 255.72 131.175 254.707 131.175C253.694 131.175 252.874 131.922 252.874 132.842C252.874 133.763 253.694 134.51 254.707 134.51Z" fill="#6148A9"/>
<path d="M276.71 106.84V109.271L202.949 128.172L136.928 108.84V106.169L207.434 82.1669L276.71 106.84Z" fill="#6148A9"/>
<path d="M276.692 109.246L202.949 132.178L136.928 108.84L207.428 86.1725L276.685 109.098C276.741 109.117 276.741 109.228 276.692 109.246Z" fill="#7A8FD3"/>
<path d="M347.549 184.355L318.919 184.896C317.436 184.927 316.206 183.74 316.175 182.257L316.15 180.928C316.12 179.445 317.307 178.214 318.79 178.184L347.42 177.642C348.902 177.611 350.133 178.799 350.164 180.282L350.188 181.611C350.213 183.1 349.032 184.324 347.549 184.355ZM346.595 193.326L320.199 193.824C318.716 193.855 317.486 192.668 317.455 191.185L317.43 189.856C317.399 188.373 318.587 187.142 320.07 187.111L346.466 186.613C347.949 186.582 349.179 187.77 349.21 189.253L349.235 190.582C349.265 192.071 348.084 193.295 346.595 193.326ZM340.528 201.725L326.586 201.989C324.008 202.038 321.885 199.99 321.836 197.411L321.811 196.255L345.081 195.818L345.106 196.975C345.155 199.547 343.106 201.675 340.528 201.725Z" fill="#362A37"/>
<path d="M374.406 112.218C373.97 89.1074 354.582 70.7347 331.096 71.1716C307.61 71.6084 288.93 90.7072 289.36 113.818C289.582 125.619 295.021 138.171 303.414 147.56C307.542 152.175 309.893 158.106 310.01 164.296L310.028 165.398C310.145 171.68 315.338 176.676 321.62 176.559L344.522 176.128C350.804 176.012 355.8 170.818 355.683 164.536C355.566 158.365 357.67 152.36 361.608 147.61C369.755 137.789 374.634 124.499 374.406 112.218Z" fill="#FEC227"/>
<path d="M348.331 88.2437C349.583 86.3955 348.061 83.1772 344.93 81.0554C341.799 78.9336 338.245 78.7118 336.993 80.56C335.74 82.4082 337.263 85.6265 340.394 87.7483C343.525 89.8701 347.078 90.0919 348.331 88.2437Z" fill="#FEFFFB"/>
<path d="M351.518 89.7534C359.289 87.883 373.656 101.032 368.204 118.223C367.294 121.103 363.245 121.336 362.008 118.58C361.996 118.555 361.984 118.531 361.971 118.5L359.486 112.095C357.72 107.542 354.908 103.462 351.278 100.183C350.139 99.1551 349.432 97.74 349.296 96.2079L349.038 93.3098C348.896 91.6855 349.93 90.1349 351.518 89.7534Z" fill="#FEFFFB"/>
<path d="M321.399 176.719L313.695 135.704C313.578 135.095 313.738 134.473 314.132 133.987C314.526 133.507 315.104 133.224 315.72 133.212C316.347 133.193 316.938 133.464 317.35 133.938L321.017 138.183L324.217 134.184C324.801 133.452 325.675 133.021 326.617 133.003L326.869 132.996C327.81 132.972 328.696 133.378 329.312 134.085L332.659 137.962L336.098 133.661C336.529 133.119 337.175 132.799 337.87 132.787L338.892 132.769C339.593 132.756 340.245 133.052 340.694 133.575L344.294 137.74L347.918 133.206C348.232 132.812 348.706 132.578 349.21 132.572C349.715 132.566 350.195 132.775 350.527 133.162C350.859 133.544 350.994 134.055 350.915 134.553L343.814 176.301L341.993 175.993L348.995 134.824L344.355 140.626L339.304 134.775C339.212 134.664 339.076 134.602 338.929 134.608L337.907 134.627C337.766 134.627 337.63 134.695 337.538 134.805L332.714 140.841L327.915 135.285C327.663 134.99 327.293 134.842 326.906 134.836L326.653 134.842C326.266 134.848 325.903 135.027 325.663 135.328L321.079 141.063L315.96 135.131C315.91 135.076 315.837 135.039 315.763 135.045C315.658 135.045 315.597 135.107 315.572 135.138C315.547 135.168 315.498 135.242 315.517 135.347L323.22 176.356L321.399 176.719Z" fill="white"/>
<path d="M264.084 231.185V243.959C264.084 248.604 259.845 252.363 254.615 252.363H152.605C156.223 249.718 158.524 245.712 158.524 241.233V233.911C158.524 229.425 156.217 225.426 152.605 222.78H254.615C259.845 222.78 264.084 226.54 264.084 231.185Z" fill="#DCEFF8"/>
<path d="M264.546 234.391H158.469V235.006H264.546V234.391Z" fill="#B7D4F4"/>
<path d="M264.546 238.501H158.469V239.116H264.546V238.501Z" fill="#B7D4F4"/>
<path d="M264.552 244.254H158.063V244.869H264.552V244.254Z" fill="#B7D4F4"/>
<path d="M262.7 248.358H156.211V248.973H262.7V248.358Z" fill="#B7D4F4"/>
<path d="M254.615 252.37C259.845 252.37 264.084 248.604 264.084 243.965V231.191C264.084 226.546 259.845 222.786 254.615 222.786H152.605C150.839 221.494 148.76 220.547 146.489 220.005V219.501H295.36C302.632 219.501 308.533 224.737 308.533 231.191V243.965C308.533 250.425 302.632 255.655 295.36 255.655H146.489V255.151C148.76 254.609 150.845 253.662 152.605 252.37H254.615Z" fill="#0843A3"/>
<path d="M271.105 272.736C271.105 264.842 277.215 258.35 285.552 255.889V255.065H127.427C121.681 255.065 117.017 259.039 117.017 263.949V281.522C117.017 286.426 121.674 290.407 127.427 290.407H285.546V289.583C277.171 287.318 270.729 279.719 271.105 272.736Z" fill="#BD97F8"/>
<path d="M120.727 283.153V262.319C120.727 260.128 122.505 258.356 124.689 258.356H249.896V287.121H124.689C122.499 287.121 120.727 285.343 120.727 283.153Z" fill="#81C4EB"/>
<path d="M272.237 272.736C272.237 266.872 275.609 261.679 279.99 258.35H214.079C205.988 258.35 199.429 264.792 199.429 272.736C199.429 280.679 205.988 287.121 214.079 287.121H279.99C275.609 283.793 272.237 278.6 272.237 272.736Z" fill="#F0F8FF"/>
<path d="M272.581 269.143H199.897V269.758H272.581V269.143Z" fill="#ABCBE9"/>
<path d="M272.12 272.957H199.398V273.573H272.12V272.957Z" fill="#ABCBE9"/>
<path d="M175.697 198.857V209.6C175.697 213.501 179.783 216.67 184.828 216.67H283.158C279.676 214.449 277.455 211.077 277.455 207.312V201.152C277.455 197.381 279.676 194.015 283.158 191.794H184.828C179.783 191.788 175.697 194.95 175.697 198.857Z" fill="#F0F8FF"/>
<path d="M277.504 201.497H175.254V202.112H277.504V201.497Z" fill="#B7D4F4"/>
<path d="M277.504 204.955H175.254V205.57H277.504V204.955Z" fill="#B7D4F4"/>
<path d="M277.898 209.791H175.254V210.407H277.898V209.791Z" fill="#B7D4F4"/>
<path d="M184.828 216.67C179.789 216.67 175.697 213.508 175.697 209.6V198.857C175.697 194.956 179.783 191.788 184.828 191.788H283.158C284.857 190.705 286.862 189.905 289.053 189.45V189.025H145.554C138.54 189.025 132.854 193.431 132.854 198.857V209.6C132.854 215.034 138.54 219.433 145.554 219.433H289.053V219.008C286.862 218.553 284.857 217.753 283.158 216.67H184.828Z" fill="#060351"/>
<path d="M281.823 174.504C281.823 167.865 287.711 162.407 295.747 160.34V159.645H143.339C137.795 159.645 133.303 162.992 133.303 167.114V181.894C133.303 186.022 137.795 189.363 143.339 189.363H295.747V188.668C287.675 186.767 281.466 180.38 281.823 174.504Z" fill="#D93A54"/>
<path d="M136.872 182.411V166.598C136.872 164.284 138.749 162.407 141.062 162.407H261.383V186.595H141.062C138.749 186.601 136.872 184.724 136.872 182.411Z" fill="#F0F8FF"/>
<path d="M282.918 174.504C282.918 169.576 286.167 165.207 290.394 162.407H226.859C219.063 162.407 212.738 167.822 212.738 174.504C212.738 181.186 219.057 186.601 226.859 186.601H290.394C286.167 183.807 282.918 179.439 282.918 174.504Z" fill="#B7D5F2"/>
<path d="M283.251 171.434H213.187V172.049H283.251V171.434Z" fill="#ABCBE9"/>
<path d="M282.808 174.639H212.707V175.255H282.808V174.639Z" fill="#ABCBE9"/>
<path d="M291.496 291.843L364.505 313.53L366.631 306.37L293.623 284.683L291.496 291.843Z" fill="#060351"/>
<path d="M291.852 271.198C289.914 251.293 273.375 235.75 253.255 235.75C234.722 235.75 219.235 248.942 215.39 266.577C217.98 247.244 235.098 232.299 255.845 232.299C278.384 232.299 296.652 249.927 296.652 271.665C296.652 277.111 295.507 282.297 293.434 287.017C293.655 285.472 293.778 283.897 293.778 282.298C293.766 278.421 293.089 274.692 291.852 271.198Z" fill="#060351"/>
<path d="M253.249 314.484C264.072 314.484 273.855 309.98 280.894 302.725C286.339 298.627 290.69 293.237 293.421 287.017C290.923 304.46 274.796 317.929 255.261 317.929C237.663 317.929 222.835 307.002 218.239 292.081C224.484 305.334 237.811 314.484 253.249 314.484Z" fill="#362A37"/>
<path d="M280.894 302.725C287.785 295.619 292.043 285.872 292.043 275.117C292.043 273.794 291.975 272.49 291.852 271.198C293.089 274.692 293.766 278.421 293.766 282.298C293.766 283.897 293.643 285.472 293.421 287.017C290.69 293.237 286.339 298.634 280.894 302.725Z" fill="#362A37"/>
<path d="M216.78 283.073C216.854 286.192 217.359 289.213 218.239 292.087C215.814 286.949 214.461 281.196 214.461 275.123C214.461 272.188 214.787 269.333 215.384 266.583C215.162 268.25 215.033 269.949 215.033 271.671C215.033 275.634 215.648 279.461 216.78 283.073Z" fill="#2B468A"/>
<path d="M253.249 235.75C273.369 235.75 289.908 251.299 291.846 271.198C290.339 266.934 287.995 263.026 284.973 259.642C279.356 247.878 267.776 239.799 254.393 239.799C239.239 239.799 226.391 250.155 221.906 264.491C218.632 269.733 216.75 275.806 216.75 282.298C216.75 282.556 216.762 282.814 216.768 283.067C215.636 279.455 215.021 275.628 215.021 271.665C215.021 269.936 215.15 268.244 215.371 266.577C219.229 248.942 234.716 235.75 253.249 235.75ZM236.771 306.472C241.921 309.733 247.951 311.61 254.399 311.61C257.501 311.61 260.503 311.167 263.358 310.355C269.88 309.18 275.861 306.509 280.894 302.725C273.855 309.98 264.072 314.484 253.249 314.484C237.811 314.484 224.484 305.334 218.239 292.081C217.353 289.207 216.848 286.186 216.78 283.067C219.949 293.201 227.24 301.605 236.771 306.472Z" fill="#2B468A"/>
<path d="M236.771 306.472C227.24 301.605 219.955 293.201 216.78 283.073C216.774 282.814 216.762 282.562 216.762 282.304C216.762 275.818 218.645 269.739 221.918 264.497C220.817 268.023 220.208 271.788 220.208 275.708C220.208 288.764 226.847 300.19 236.771 306.472ZM288.598 275.708C288.598 269.93 287.293 264.479 284.986 259.642C288.001 263.027 290.345 266.934 291.859 271.198C291.982 272.49 292.049 273.794 292.049 275.117C292.049 285.872 287.791 295.619 280.9 302.725C275.867 306.509 269.893 309.18 263.364 310.355C277.898 306.22 288.598 292.278 288.598 275.708Z" fill="#2B468A"/>
<path opacity="0.65" d="M263.358 310.355C260.503 311.167 257.501 311.61 254.399 311.61C247.951 311.61 241.915 309.733 236.771 306.472C242.463 309.383 248.948 311.038 255.839 311.038C258.411 311.038 260.922 310.798 263.358 310.355Z" fill="#DCEFF8"/>
<path opacity="0.52" d="M221.801 264.835C226.133 250.45 238.869 239.959 254.024 239.799C267.407 239.658 279.073 247.613 284.813 259.316C287.17 264.128 288.536 269.567 288.598 275.339C288.77 291.908 278.224 305.968 263.727 310.25C261.291 310.718 258.78 310.983 256.208 311.007C249.317 311.081 242.813 309.494 237.097 306.645C227.105 300.467 220.349 289.109 220.208 276.052C220.171 272.151 220.737 268.38 221.801 264.835Z" fill="#DCEFF8"/>
<path d="M93.2786 305.202H96.152V281.507H93.2786V305.202Z" fill="#0843A3"/>
<path d="M71.7371 310.946H117.693V309.506C117.693 304.749 113.836 300.892 109.079 300.892H80.3512C75.595 300.892 71.7371 304.749 71.7371 309.506V310.946Z" fill="#08085C"/>
<path d="M89.6914 283.762C74.5429 283.762 60.4526 277.707 50.0234 266.712L48.9897 265.623L57.3638 257.249L59.542 259.427L53.3029 265.666C63.0307 275.363 75.8965 280.685 89.6975 280.685C118.149 280.685 141.296 257.538 141.296 229.087C141.296 215.378 136.029 202.568 126.437 192.858L119.164 200.125L116.986 197.947L126.4 188.533L127.489 189.573C138.373 199.99 144.366 214.018 144.366 229.081C144.366 259.236 119.835 283.762 89.6914 283.762Z" fill="#BD97F8"/>
<path d="M90.0483 273.61C113.645 273.61 132.774 254.48 132.774 230.883C132.774 207.287 113.645 188.157 90.0483 188.157C66.4513 188.157 47.3222 207.287 47.3222 230.883C47.3222 254.48 66.4513 273.61 90.0483 273.61Z" fill="#0843A3"/>
<path d="M130.565 228.318L126.308 224.06L123.434 222.626L120.561 219.753V216.159L116.5 214.806C116.334 214.75 116.161 214.707 115.989 214.677L111.94 214L111.51 210.105C111.344 208.598 110.175 207.392 108.667 207.176L106.206 206.832L103.332 205.398L103.191 205.256C102.354 204.42 101.813 203.318 101.671 202.143L101.179 198.217H103.332L103.012 192.717C102.908 190.945 101.64 189.456 99.9053 189.074C93.2539 187.628 76.4256 185.869 60.8402 199.78L63.1168 201.811L65.2703 205.404L67.4239 204.684V208.991H72.4508L73.8845 206.838H78.9114L81.0649 205.404L83.2185 208.278L87.5255 209.711V214.738L83.9322 217.612L85.3659 219.765V228.379L82.4924 230.533L79.619 234.126L78.8991 239.873L76.7456 240.593L73.8722 241.313L68.8452 242.746L64.5381 242.026L63.8182 239.153H60.9448L59.5112 243.46L57.3577 247.053L56.6378 251.36L55.1057 254.726L55.6102 256.067C55.6102 256.067 64.9873 271.019 84.5106 273.037L94.8475 272.324C96.1581 272.231 97.4256 271.801 98.5208 271.074L101.16 269.315H104.754L109.061 267.161L114.088 264.288L116.241 261.414L119.115 259.981L120.794 257.175C121.108 256.652 121.459 256.147 121.84 255.674L124.142 252.8L126.295 249.207L131.39 241.953L131.322 237L131.833 231.917C131.981 230.576 131.507 229.259 130.565 228.318ZM85.6858 248.549L84.6644 249.915C83.7845 250.358 83.2308 251.256 83.2308 252.24V254.941H81.0773V260.688H73.6691C72.4877 260.688 71.411 260.024 70.8818 258.966L70.3096 257.815C70.6849 256.683 69.965 255.483 68.7898 255.286L66.7224 254.941V247.041L69.8174 245.718C71.0233 245.201 72.4078 245.331 73.503 246.057L73.9091 246.327L75.3427 249.921H76.8563C77.7054 249.921 78.4992 249.496 78.9729 248.789C79.4098 248.13 80.0805 247.656 80.8496 247.466C81.791 247.232 82.3817 246.297 82.1909 245.349L81.8095 243.454L83.2431 244.174L86.8364 244.894V245.164C86.8179 246.383 86.418 247.57 85.6858 248.549ZM102.613 258.529L99.0192 260.682L96.8657 263.556L96.1458 262.122H93.2724L91.1188 260.688V259.255V257.821L90.842 256.72C90.6143 255.821 91.2973 254.954 92.2202 254.954H94.706L96.1397 251.36L97.5733 250.641L99.7268 252.074L101.16 254.228L102.594 256.381V258.529H102.613ZM124.874 232.68L124.154 235.554L122 237.707L120.567 240.581L119.133 242.734V244.888L115.54 247.041L114.106 248.475L106.206 249.195L102.613 247.761L101.893 244.888L97.5856 245.607V239.147L101.179 238.427V234.12L104.772 231.246L109.079 230.527V222.626L113.399 222.146C114.543 222.017 115.54 222.915 115.54 224.06L122.72 226.213L122.634 226.564C122.265 228.035 122.973 229.567 124.326 230.244L124.874 230.52V232.68Z" fill="#63CBEC"/>
</svg>
