<svg xmlns="http://www.w3.org/2000/svg" xmlns:xlink="http://www.w3.org/1999/xlink" enable-background="new 0 0 7000 2919.88" viewBox="0 0 7000 2919.88" id="BooksDigitization"><defs><path id="a" d="m1080.443 2085.457 561.96-170.775s-114.944-716.958-146.401-832.79c-31.457-115.832-89.854-203.299-153.297-190.365-63.444 12.934-90.064-93.139-286.106 99.314s-273.491 165.458-319.319 396.481-89.279 211.213-31.719 289.767c57.559 78.555 374.882 408.368 374.882 408.368z" fill="#000000" class="color000000 svgShape"></path></defs><clipPath id="b"><use overflow="visible" xlink:href="#a" fill="#000000" class="color000000 svgShape"></use></clipPath><g clip-path="url(#b)" fill="#000000" class="color000000 svgShape"><path fill="#5f9568" d="M1256.62 2058.501s-248.662-523.051-418.374-540.575 298.76 628.01 298.76 628.01l119.614-87.435z" class="color5f9563 svgShape"></path><path fill="#53d86a" d="M811.255 1602.458a314.583 314.583 0 0 1-2.51-8.077l55.862 6.429a18247.47 18247.47 0 0 0-54.753-75.68 23.246 23.246 0 0 1 6.072-4.332 18120.695 18120.695 0 0 1 52.543 72.619l-3.867-69.05c2.401.897 4.812 1.871 7.236 2.933l4.3 76.777a18338.452 18338.452 0 0 1 42.747 59.713l19.689-90.639a452.98 452.98 0 0 1 5.957 5.469l-20.17 92.859a15475.326 15475.326 0 0 1 28.982 40.846l29.497-94.073a781.336 781.336 0 0 1 5.393 6.137l-29.822 95.109a12658.496 12658.496 0 0 1 37.703 53.674l41.62-86.689c1.571 2.122 3.138 4.255 4.703 6.396l-41.717 86.893a9568.364 9568.364 0 0 1 29.475 42.501l49.626-75.804a1817.3 1817.3 0 0 1 4.253 6.394l-49.552 75.692a7126.258 7126.258 0 0 1 26.02 38.068l48.815-74.566c1.382 2.196 2.758 4.391 4.128 6.586l-48.651 74.314c12.181 18 23.796 35.377 34.569 51.772l30.937-98.666c1.615 2.669 3.217 5.33 4.812 7.988l-30.801 98.232c1.485 2.273 2.955 4.529 4.404 6.76a6730.491 6730.491 0 0 1 24.336 37.758l29.877-95.286c1.589 2.776 3.162 5.534 4.722 8.278l-29.69 94.688a8514.827 8514.827 0 0 1 31.237 49.326l28.292-90.229c1.567 2.892 3.114 5.756 4.629 8.573l-28.04 89.428a9656.328 9656.328 0 0 1 33.047 53.075l-5.993 4.381a9751.109 9751.109 0 0 0-31.877-51.205l-93.173 11.578a5135.799 5135.799 0 0 1-4.886-7.101l93.572-11.628a8537.903 8537.903 0 0 0-31.487-49.754l-95.717 11.894a4322.021 4322.021 0 0 1-4.772-7.115l95.928-11.921a6714.776 6714.776 0 0 0-25.81-40.062c-1.266-1.95-2.551-3.921-3.845-5.904l-96.658 12.011a4296.244 4296.244 0 0 1-4.658-7.129l96.651-12.01c-10.974-16.718-22.838-34.474-35.296-52.884l-92.197 16.953a3971.717 3971.717 0 0 1-4.39-6.938l91.92-16.901a7172.843 7172.843 0 0 0-25.964-37.979l-89.857 16.522c-1.425-2.319-2.847-4.64-4.265-6.961l89.387-16.435a9795.202 9795.202 0 0 0-28.92-41.693l-88.678 11.02a2211.261 2211.261 0 0 1-4.193-7.187l87.92-10.926a12699.695 12699.695 0 0 0-37.132-52.858l-81.01 10.067c-1.31-2.417-2.608-4.825-3.894-7.224l79.898-9.929a15472.671 15472.671 0 0 0-28.98-40.843l-74.383 5.033a1028.101 1028.101 0 0 1-3.59-7.451l72.745-4.922a18182.663 18182.663 0 0 0-42.843-59.851l-59.463-6.844z" class="color75a378 svgShape"></path></g><g clip-path="url(#b)" fill="#000000" class="color000000 svgShape"><path fill="#53d86a" d="M1405.704 2008.152c15.07-4.58 26.128-17.474 28.34-33.068 10.897-76.821 38.979-304.336.745-375.373-46.262-85.952-48.257-126.907-51.937-179.271-9.511-135.349-25.204-240.321-102.658-214.555-77.454 25.766-79.556 224.998-88.433 256.236-15.687 55.205-79.826 54.971-80.14 170.902-.247 90.98 60.71 306.757 86.959 395.42 6.385 21.568 29.121 33.802 50.643 27.262l156.481-47.553z" class="color75a378 svgShape"></path><path fill="#9fc6a6" d="M1170.734 1787.006a2.829 2.829 0 0 1 3.927-.754l100.838 68.382c-3.653-40.201-6.567-88.134-6.743-139.648l-80.102-137.215a2.828 2.828 0 0 1 4.883-2.851l75.225 128.861c.028-6.349.095-12.743.213-19.183.936-51.173 3.411-113.607 6.313-174.394l-30.975-68.223a2.827 2.827 0 0 1 5.149-2.337l26.423 58.197c5.801-118.761 12.96-227.796 13.071-229.475a2.828 2.828 0 0 1 5.642.372c-.113 1.705-7.491 114.096-13.334 234.925l64.76-49.715a2.827 2.827 0 1 1 3.443 4.485l-68.559 52.632c-2.888 60.549-5.347 122.684-6.279 173.637-.149 8.172-.219 16.272-.225 24.294l100-65.001a2.826 2.826 0 1 1 3.082 4.74l-103.072 66.999c.203 51.516 3.147 99.403 6.815 139.481l121.055-82.991a2.825 2.825 0 0 1 3.931.733 2.827 2.827 0 0 1-.733 3.931l-123.651 84.77c6.276 65.82 14.27 109.009 14.41 109.755a2.828 2.828 0 0 1-2.569 3.342 2.826 2.826 0 0 1-2.987-2.297c-.141-.75-8.197-44.259-14.506-110.53l-104.69-70.994a2.827 2.827 0 0 1-.755-3.928z" class="color9fc6a2 svgShape"></path></g><ellipse cx="3321.542" cy="2448.94" fill="#5cc66e" rx="2391.789" ry="19" class="color5cbec6 svgShape"></ellipse><path fill="#e7f2e9" d="M2215.302 942.861h155.716V2440.94h-155.716z" class="colore7f2f2 svgShape"></path><path fill="#b1deb9" d="M2354.607 942.861h30.826V2440.94h-30.826z" class="colorb1d5de svgShape"></path><path fill="#5254e3" d="M2203.738 1381.155h-32.288v38.124h35.253z" class="color529ae3 svgShape"></path><path fill="#60cf73" d="M2161.178 1381.155h11.564v335.016h-11.564zM2203.738 1381.155h11.564v335.016h-11.564z" class="color60cfc9 svgShape"></path><path fill="#ffffff" d="M2172.743 1401.658s8.801 7.183 30.995 0v314.512h-30.995v-314.512z" class="colorffffff svgShape"></path><path fill="#5cc66e" d="M2161.178 1381.155h-247.713c-3.326 0-6.022 2.042-6.022 4.562v325.892c0 2.519 2.696 4.562 6.022 4.562h247.713v-335.016z" class="color5cbec6 svgShape"></path><path fill="#dd964b" d="M2104.213 1273.884h-54.046v23.836h57.011z" class="colordd8a4b svgShape"></path><path fill="#ffa648" d="M2039.896 1273.884h11.564v442.286h-11.564zM2104.213 1273.884h11.564v442.286h-11.564z" class="colorffc648 svgShape"></path><path fill="#ffffff" d="M2051.46 1275.744s10.3 4.127 25.255 4.35c.644.01 1.371.369 2.594 7.434.105.605.599-7.445 1.227-7.464 7.194-.221 15.267-1.403 23.677-4.32v440.427h-22.674l-1.184-3.318-1.524 3.318h-6.37l-1.274-2.172-1.752 2.172h-17.976v-440.427z" class="colorffffff svgShape"></path><path fill="#ffb464" d="M2039.896 1273.884h-247.713a6.022 6.022 0 0 0-6.022 6.023v430.241a6.022 6.022 0 0 0 6.022 6.022h247.713v-442.286z" class="colorfff364 svgShape"></path><path fill="#ed9a43" d="M1799.699 1273.884h6.728v442.286h-6.728z" class="colored8b43 svgShape"></path><path fill="#3d3e84" d="M1956.659 1326.051h-47.672v21.025h50.287z" class="color6a3d84 svgShape"></path><path fill="#3d3e84" d="M1899.927 1326.051h10.2v390.12h-10.2zM1956.659 1326.051h10.2v390.12h-10.2z" class="color6a3d84 svgShape"></path><path fill="#ffffff" d="M1910.128 1327.691s9.085 3.641 22.276 3.837c.568.008 2.817-.009 3.371-.026 6.345-.195 13.467-1.237 20.884-3.811v388.479h-46.531v-388.479z" class="colorffffff svgShape"></path><path fill="#5758b2" d="M1899.927 1326.051h-218.496a5.312 5.312 0 0 0-5.312 5.312v379.495a5.312 5.312 0 0 0 5.312 5.312h218.496v-390.119z" class="color9557b2 svgShape"></path><path fill="#3d3e84" d="M1688.062 1326.051h5.934v390.12h-5.934z" class="color6a3d84 svgShape"></path><path fill="#ce8d49" d="M2280.399 882.246h-40.844v18.013h43.084z" class="colorce4949 svgShape"></path><path fill="#ce8d49" d="M2178.103 1216.484h-8.739l62.429-334.238h8.74zM2226.708 1216.484h-8.739l62.43-334.238h8.739z" class="colorce4949 svgShape"></path><path fill="#ffffff" d="M2239.879 885.748s8.993 7.022 20.296 7.022c8.646 0 13.12-2.918 19.475-5.123l-61.681 328.838h-39.866l61.776-330.737z" class="colorffffff svgShape"></path><path fill="#ffa74a" d="M2231.793 882.246h-187.198a4.55 4.55 0 0 0-4.551 4.551l-62.43 325.136a4.55 4.55 0 0 0 4.551 4.551h187.198l62.43-334.238z" class="colorff5f4a svgShape"></path><path fill="#ce8d49" d="M1992.93 1216.484h-5.084l62.429-334.238h5.085z" class="colorce4949 svgShape"></path><path fill="#5cc66e" d="M2043.245 966.541h48.742v257.849h-48.742z" transform="rotate(-180 2067.616 1095.466)" class="color5cbec6 svgShape"></path><path fill="#5254e3" d="M1949.815 966.541h93.43v257.849h-93.43z" transform="rotate(-180 1996.53 1095.466)" class="color529ae3 svgShape"></path><path fill="#ffffff" d="M2064.081 1017.217h7.069v156.498h-7.069v-156.498z" class="colorffffff svgShape"></path><path fill="#c17525" d="M1605.313 1342.728h113.874v373.442h-113.874z" transform="rotate(-180 1662.25 1529.45)" class="colorc16425 svgShape"></path><path fill="#e8861f" d="M1713.546 1342.728h74.026c2.481 0 4.493 2.236 4.493 4.995v363.452c0 2.759-2.011 4.995-4.493 4.995h-74.026c-2.481 0-4.493-2.236-4.493-4.995v-363.452c.001-2.758 2.012-4.995 4.493-4.995z" class="colore87d1f svgShape"></path><path fill="#ffad57" d="m1721.056 1406.84 15.547 11.155 15.547 11.155 15.547-11.155 15.547-11.155-15.547-11.155-15.547-11.155-15.547 11.155-15.547 11.155zm18.616 0 2.404-1.725 10.074-7.228 10.074 7.228 2.404 1.725-2.404 1.725-10.074 7.228-10.074-7.228-2.404-1.725zM1721.056 1477.014l15.547 11.155 15.547 11.155 15.547-11.155 15.547-11.155-15.547-11.155-15.547-11.155-15.547 11.155-15.547 11.155zm18.616 0 2.404-1.725 10.074-7.228 10.074 7.228 2.404 1.725-2.404 1.725-10.074 7.228-10.074-7.228-2.404-1.725zM1721.056 1547.188l15.547 11.155 15.547 11.155 15.547-11.155 15.547-11.155-15.547-11.155-15.547-11.155-15.547 11.155-15.547 11.155zm18.616 0 2.404-1.725 10.074-7.228 10.074 7.228 2.404 1.725-2.404 1.725-10.074 7.228-10.074-7.228-2.404-1.725zM1721.056 1617.363l15.547 11.155 15.547 11.155 15.547-11.155 15.547-11.155-15.547-11.155-15.547-11.155-15.547 11.155-15.547 11.155zm18.616 0 2.404-1.725 10.074-7.228 10.074 7.228 2.404 1.725-2.404 1.725-10.074 7.228-10.074-7.228-2.404-1.725z" class="colorffbe57 svgShape"></path><path fill="#c17525" d="M1790.787 1374.462h-77.273c-1.34 0-2.436-1.219-2.436-2.709s1.096-2.709 2.436-2.709h77.273c1.34 0 2.436 1.219 2.436 2.709 0 1.489-1.096 2.709-2.436 2.709zM1713.514 1509.392h77.273c1.34 0 2.436 1.219 2.436 2.709s-1.096 2.709-2.436 2.709h-77.273c-1.34 0-2.436-1.219-2.436-2.709s1.096-2.709 2.436-2.709zM1713.514 1439.218h77.273c1.34 0 2.436 1.219 2.436 2.709s-1.096 2.709-2.436 2.709h-77.273c-1.34 0-2.436-1.219-2.436-2.709s1.096-2.709 2.436-2.709zM1713.514 1579.567h77.273c1.34 0 2.436 1.219 2.436 2.709s-1.096 2.709-2.436 2.709h-77.273c-1.34 0-2.436-1.219-2.436-2.709s1.096-2.709 2.436-2.709zM1713.514 1649.741h77.273c1.34 0 2.436 1.219 2.436 2.709s-1.096 2.709-2.436 2.709h-77.273c-1.34 0-2.436-1.219-2.436-2.709s1.096-2.709 2.436-2.709z" class="colorc16425 svgShape"></path><path fill="#b1deb9" d="M1598.169 1215.162h737.381v18.741h-737.381zM1598.169 1713.954h737.381v18.741h-737.381z" class="colorb1d5de svgShape"></path><path fill="#ce8d49" d="M2130.947 1826.474h100.99v393.321h-100.99z" transform="rotate(-180 2181.442 2023.134)" class="colorce4949 svgShape"></path><path fill="#ffa74a" d="M2210.12 1826.474h72.135v393.321h-72.135z" transform="rotate(-180 2246.188 2023.134)" class="colorff5f4a svgShape"></path><path fill="#5cc66e" d="M2044.869 1918.837h114.663v300.958h-114.663z" transform="rotate(-180 2102.2 2069.316)" class="color5cbec6 svgShape"></path><path fill="#5254e3" d="M1964.704 1918.837h80.165v300.958h-80.165z" transform="rotate(-180 2004.786 2069.316)" class="color529ae3 svgShape"></path><path fill="#ffffff" d="M2093.886 1977.984h16.629v182.662h-16.629v-182.662z" class="colorffffff svgShape"></path><path fill="#ffa74a" d="M1948.469 1755.715h56.317v464.08h-56.317z" transform="rotate(-180 1976.628 1987.755)" class="colorff5f4a svgShape"></path><path fill="#e7f2e9" d="M1959.875 2120.483h33.505v99.312h-33.505z" transform="rotate(-180 1976.628 2170.139)" class="colore7f2f2 svgShape"></path><path fill="#ffb464" d="M1948.469 1755.715h56.317v156.775h-56.317z" transform="rotate(-180 1976.628 1834.103)" class="colorfff364 svgShape"></path><path fill="#074a13" d="M1957.023 1766.646h39.208v19.987h-39.208z" transform="rotate(-180 1976.628 1776.64)" class="color074a42 svgShape"></path><path fill="#ffa648" d="M1824.82 1755.715h123.649v464.08H1824.82z" transform="rotate(-180 1886.644 1987.755)" class="colorffc648 svgShape"></path><path fill="#ffbe7a" d="M1836.537 1852.365h62.633v367.43h-62.633z" transform="rotate(-180 1867.854 2036.08)" class="colorff867a svgShape"></path><path fill="#f2cea7" d="M1836.537 2159.627h62.633v17.586h-62.633z" transform="rotate(-180 1867.854 2168.42)" class="colorf2c3a7 svgShape"></path><path fill="#f2cea7" d="M1836.537 1886.671h62.633v17.586h-62.633z" transform="rotate(-180 1867.854 1895.464)" class="colorf2c3a7 svgShape"></path><path fill="#f2b779" d="M1687.537 1852.365h149v367.43h-149z" transform="rotate(-180 1762.037 2036.08)" class="colorf27c79 svgShape"></path><ellipse cx="1762.037" cy="1987.365" fill="#f2cea7" rx="40.699" ry="76.593" class="colorf2c3a7 svgShape"></ellipse><path fill="#ce8d49" d="M1709.491 1877.73h-32.288v36.522h35.253z" class="colorce4949 svgShape"></path><path fill="#8e5b25" d="M1666.932 1877.73h11.564v335.016h-11.564zM1709.491 1877.73h11.564v335.016h-11.564z" class="color8e2543 svgShape"></path><path fill="#ffffff" d="M1678.497 1898.234s8.801 7.183 30.995 0v314.512h-30.995v-314.512z" class="colorffffff svgShape"></path><path fill="#ce8d49" d="M1666.932 1877.73h-151.964c-3.326 0-6.022 2.042-6.022 4.562v325.892c0 2.52 2.696 4.562 6.022 4.562h151.964V1877.73z" class="colorce4949 svgShape"></path><path fill="#e7f2e9" d="M1443.451 942.861h155.716V2440.94h-155.716z" class="colore7f2f2 svgShape"></path><path fill="#b1deb9" d="M1582.756 942.861h30.826V2440.94h-30.826z" class="colorb1d5de svgShape"></path><path fill="#b1deb9" d="M1598.169 2212.746h737.381v18.741h-737.381z" class="colorb1d5de svgShape"></path><path fill="#434359" d="M3802.812 2440.94h-1306c-25.85 0-48.529-21.15-50.397-47l-137.205-1898c-1.869-25.85 17.752-47 43.602-47h1306c25.85 0 48.529 21.15 50.398 47l137.205 1898c1.869 25.85-17.752 47-43.603 47z" class="color434a59 svgShape"></path><path fill="#f5fff7" d="M3850.812 2440.94h-1306c-25.85 0-48.529-21.15-50.397-47l-137.205-1898c-1.869-25.85 17.752-47 43.602-47h1306c25.85 0 48.529 21.15 50.398 47l137.205 1898c1.869 25.85-17.752 47-43.603 47z" class="colorfff9f5 svgShape"></path><path fill="#5cc66e" d="M3851.499 2325.94c.353 4.879-3.471 9-8.349 9h-1306c-4.879 0-9.298-4.121-9.651-9l-130.554-1806c-.353-4.879 3.471-9 8.349-9h1306c4.879 0 9.298 4.121 9.651 9l130.554 1806z" class="color5cbec6 svgShape"></path><path fill="#60cf73" d="m3851.499 2325.94-26.594-367.88c-89.134-81.171-173.951-164.724-186.394-199.12-27.494-76-47.88-192-100.506-256s-307.542-298-343.759-384c-36.217-86-85.904-220-144.844-316s-145.108-292-145.108-292h-382s235.084 264 288.072 416 19.831 302 137.229 432 250.145 168 291.976 304 70.193 224 145.807 274 256.771 398 256.771 398h201c4.88 0 8.703-4.121 8.35-9z" class="color60cfc9 svgShape"></path><path fill="#434359" d="m3851.499 2325.94-130.554-1806c-.353-4.879-4.772-9-9.651-9h-20.644c4.879 0 9.298 4.121 9.651 9l130.554 1806c.353 4.879-3.471 9-8.35 9h20.644c4.88 0 8.703-4.121 8.35-9zM3257.566 2402.94h-125c-10.725 0-20.134-8.775-20.91-19.5-.775-10.725 7.365-19.5 18.09-19.5h125c10.725 0 20.134 8.775 20.91 19.5.775 10.725-7.365 19.5-18.09 19.5z" class="color434a59 svgShape"></path><ellipse cx="3056.053" cy="479.94" fill="#434359" rx="10.127" ry="10.886" transform="rotate(-46.036 3055.957 479.912)" class="color434a59 svgShape"></ellipse><path fill="#a8f7b6" d="M3029.533 885.714c-6.481 59.789-26.046 70.634-51.489 67.876-24.946-2.704-41.67-17.962-35.191-77.722 6.545-60.373 29.231-67.349 51.225-64.965 22.89 2.482 41.913 15.238 35.455 74.811zm-54.577-6.759c-3.938 36.332-4.401 49.079 6.025 50.209 10.215 1.107 12.49-11.402 16.403-47.5 3.937-36.316 4.054-45.078-6.246-46.195-9.456-1.026-12.422 8.803-16.182 43.486zM3124.203 905.869l19.926-104.097c-3.615-.844-9.331-2.663-12.481-3.775l4.252-22.211c10.2 1.023 19.706-1.624 24.688-5.507l21.832 4.179-26.323 137.516-31.894-6.105zM2744.409 990.802c-4.297 39.637-17.267 46.827-34.134 44.998-16.538-1.793-27.625-11.908-23.33-51.526 4.339-40.024 19.379-44.649 33.959-43.068 15.175 1.645 27.786 10.102 23.505 49.596zm-36.181-4.481c-2.611 24.086-2.918 32.536 3.994 33.286 6.772.734 8.28-7.559 10.874-31.49 2.61-24.075 2.688-29.885-4.141-30.625-6.268-.68-8.235 5.836-10.727 28.829zM2934.538 1337.881c-4.297 39.637-17.267 46.827-34.134 44.998-16.538-1.793-27.625-11.908-23.33-51.526 4.339-40.024 19.379-44.649 33.959-43.068 15.175 1.646 27.786 10.102 23.505 49.596zm-36.182-4.481c-2.611 24.087-2.918 32.536 3.994 33.286 6.772.734 8.28-7.559 10.874-31.49 2.61-24.075 2.688-29.885-4.141-30.625-6.268-.68-8.234 5.836-10.727 28.829zM2729.64 1233.905c-2.656 24.497-10.672 28.941-21.096 27.811-10.221-1.108-17.073-7.36-14.419-31.845 2.681-24.736 11.977-27.595 20.988-26.618 9.379 1.017 17.173 6.243 14.527 30.652zm-22.362-2.77c-1.614 14.886-1.803 20.109 2.469 20.572 4.186.454 5.117-4.672 6.721-19.462 1.613-14.88 1.661-18.47-2.559-18.927-3.875-.42-5.09 3.607-6.631 17.817zM3056.175 1646.594c6.8 52.959-7.842 66.377-30.378 69.271-22.096 2.837-39.697-6.868-46.493-59.801-6.866-53.476 11.273-64.201 30.754-66.703 20.275-2.603 39.342 4.466 46.117 57.233zm-48.517 5.479c4.132 32.182 6.375 43.281 15.61 42.096 9.048-1.162 8.418-12.432 4.313-44.407-4.13-32.167-5.845-39.756-14.969-38.585-8.375 1.076-8.898 10.176-4.954 40.896zM2798.049 996.155l13.21-69.011c-2.397-.56-6.186-1.766-8.274-2.502l2.819-14.725c6.762.678 13.063-1.077 16.367-3.651l14.473 2.771-17.45 91.165-21.145-4.047zM2763.687 1518.634l-4.292-48.875c-1.717.081-4.492-.006-6.035-.102l-.916-10.428c4.671-.835 8.569-3.216 10.297-5.574l10.25-.9 5.67 64.565-14.974 1.314z" class="colora8f5f7 svgShape"></path><path fill="#b9c4bb" d="m3860.869 1929.883-19.253-266.323-447.429 99.961z" class="colorc4b9b9 svgShape"></path><path fill="#a8f7b6" d="m2798.049 1322.373 13.21-69.011c-2.397-.56-6.186-1.766-8.274-2.502l2.819-14.725c6.762.678 13.063-1.077 16.367-3.651l14.473 2.771-17.45 91.165-21.145-4.047zM2881.398 1716.309l-8.436-69.756c-2.453.197-6.43.203-8.643.136l-1.8-14.884c6.647-1.414 12.115-5.004 14.478-8.462l14.63-1.769 11.143 92.149-21.372 2.586z" class="colora8f5f7 svgShape"></path><path fill="#dd964b" d="m5713.331 1889.191-41.391-78.895-34.795 18.255 43.662 83.223z" class="colordd8a4b svgShape"></path><path fill="#f2a95c" d="M5336.155 1608.559h19.063v729.089h-19.063z" transform="rotate(62.316 5345.878 1973.181)" class="colorf2a25c svgShape"></path><path fill="#f2a95c" d="M5385.412 1702.447h19.063v729.089h-19.063z" transform="rotate(62.316 5395.12 2067.052)" class="colorf2a25c svgShape"></path><path fill="#ffffff" d="M5670.215 1813.608s1.863 18.197 12.991 40.198c.479.948.512 2.284-8.865 9.481-.803.617 11.326-4.828 11.835-3.926 5.832 10.332 13.74 21.212 24.439 31.254L5067.7 2227.911l-17.365-33.099 3.938-4.269-6.011.317-4.878-9.299 2.194-3.523-4.511-.894-13.767-26.24 642.915-337.296z" class="colorffffff svgShape"></path><path fill="#ffa84d" d="m5664.074 1795.302-189.708-361.601c-2.547-4.855-8.548-6.726-13.403-4.179l-628.048 329.496c-4.855 2.547-6.726 8.548-4.179 13.404l189.709 361.601 645.629-338.721z" class="colorffcc4d svgShape"></path><path fill="#ed9a43" d="M4795.338 1615.444h729.088v7h-729.088z" transform="rotate(-27.675 5160.47 1618.711)" class="colored8b43 svgShape"></path><path fill="#95a397" d="m5297.767 1515.14-303.539 159.247-145.673 135.814 169.888 323.822 8.857 16.881 13.766 26.241 4.512.894-2.194 3.523 4.878 9.298 6.011-.317-3.938 4.269 5.686 10.838 517.722-473.297z" class="colora39a95 svgShape"></path><path fill="#4e50ad" d="m5469.057 1628.549-315.072-152.49-458.609 509.007-347.368-255.169c-.711 3.981-.185 9.349 1.658 14.43l61.265 173.9c3.407 9.39 8.384 16.887 13.618 20.512l372.006 249.884c10.147 7.029 19.953 7.435 27.656 1.147l650.183-532.141c5.762-4.705 2.253-23.822-5.337-29.08z" class="colorad4ea8 svgShape"></path><path fill="#e7f2e9" d="m4790.109 2068.309 2.078-13.995-11.545-12.097-113.458-312.696-282.513 11.073 59.681 169.531 375.597 246.168.194-.159z" class="colore7f2f2 svgShape"></path><path fill="#b1deb9" d="m4667.184 1729.521 113.458 312.696 11.545 12.097-2.078 13.995 30.034 87.825 628.319-512.938-68.945-195.068z" class="colorb1d5de svgShape"></path><path fill="#f9b873" d="m5427.163 1442.55-387.196-280.728-689.418 562.818c-1.27 1.036-2.121 2.906-2.541 5.257l386.563 282.616 3.417 2.367c10.147 7.029 19.953 7.435 27.656 1.147l666.855-544.398c5.763-4.704 2.254-23.821-5.336-29.079z" class="colorf973b1 svgShape"></path><path fill="#ffd3a4" d="m5176.33 1414.672-108.829-75.38-244.953 199.971c-.451.368-.753 1.032-.903 1.868l108.604 76.051 1.214.841c3.605 2.497 7.089 2.642 9.827.407l236.936-193.427c2.048-1.671.801-8.463-1.896-10.331z" class="colorffa4d2 svgShape"></path><path fill="#9b9cc4" d="m4786.444 1999.047 631.71-441.604-19.951-57.815z" class="color9bbcc4 svgShape"></path><path fill="#95a397" d="M5053.773 1171.832a1136.038 1136.038 0 0 0-16.614-7.719l-679.809 554.972-8.639 8.27a13.14 13.14 0 0 0-.704 2.541c-.711 3.981-.185 9.349 1.658 14.43l61.265 173.9c3.407 9.39 8.384 16.887 13.618 20.512l4.538 3.048 372.164-2.063 327.292-713.681-74.769-54.21z" class="colora39a95 svgShape"></path><path fill="#ce8d49" d="M3932.332 1859.347c6.21 17.067 9.904 29.726 41.691 32.024 31.787 2.298 782.545-1.403 799.855-5.682 16.125-3.986 366.915-776.221 414.878-881.956-2.994-3.366-7.502-5.444-12.768-4.873l-794.625-50.513-455.194 824.574 1.813 19.239c.001-.001-1.86 50.12 4.35 67.187z" class="colorce4949 svgShape"></path><path fill="#ffa74a" d="M4773.878 1885.688c-17.31 4.279-768.068 7.979-799.855 5.682-31.787-2.298-35.481-14.957-41.691-32.024-6.21-17.067-4.349-67.187-4.349-67.187l3.941-12.097-5.754-7.142-4.603 8.338a48.095 48.095 0 0 0-5.953 25.539c.708 14.77 2.912 39.042 9.635 62.921 5.086 18.061 21.125 30.842 39.886 31.183 134.032 2.436 732.972 12.434 808.723-1.955a35.587 35.587 0 0 0 20.141-11.529l395.528-864.552c4.779-6.264 3.682-14.126-.771-19.133-47.963 105.736-398.753 877.97-414.878 881.956z" class="colorff5f4a svgShape"></path><path fill="#e7f2e9" d="M3938.625 1784.969s1.027 55.066 9.622 76.425c8.595 21.359 812.291.808 812.291.808l408.749-863.768-4.925-39.121-8.004 3.108 5.662-21.711-5.839-46.384-1217.556 890.643z" class="colore7f2f2 svgShape"></path><path fill="#b1deb9" d="m5164.36 959.312-8.004 3.108 5.662-21.712-5.839-46.384-604.503 442.196 208.862 525.681 408.748-863.767z" class="colorb1d5de svgShape"></path><path fill="#ffa74a" d="m5144.639 868.526-735.544 25.234-489.201 890.828 803.302-20.763a15.973 15.973 0 0 0 10.61-5.701l426.472-864.316c8.688-11.619-1.363-27.867-15.639-25.282z" class="colorff5f4a svgShape"></path><path fill="#ffa84d" d="m4610.896 1498.311-278.973 8.294 192.881-421.893 278.973-8.294z" class="colorff774d svgShape"></path><path fill="#9b9cc4" d="M4128.938 1810.254a2 2 0 0 1-.021-4l606.339-6.555 224.36-444.399a2 2 0 1 1 3.571 1.802l-225.456 446.569-1.216.014-607.555 6.568-.022.001z" class="color9bbcc4 svgShape"></path><path fill="#9b9cc4" d="M4435.25 1841.611a2.001 2.001 0 0 1-.022-4l313.636-3.554 59-126.526a2 2 0 0 1 3.625 1.691l-60.063 128.807-1.258.015-314.894 3.568-.024-.001zM4753.277 1718.664l407.082-791.133-3.399-26.998z" class="color9bbcc4 svgShape"></path><path fill="#95a397" d="m4546.509 1741.509 198.208-859.263-335.622 11.514-457.695 833.456-25.231 45.705-4.603 8.338a48.613 48.613 0 0 0-1.652 3.291l-.021.038h.004a48.134 48.134 0 0 0-4.237 17.016l630.849-60.095z" class="colora39a95 svgShape"></path><defs><path id="c" d="m3291.231 877.743 46.068-179.305s657.674-34.178 714.421 18.903c0 0 233.927-165.51 388.679-188.016 154.752-22.506 259.457 44.435 259.457 44.435l70.193 445.68-199.646 674.711-299.06 112.563-721.714 7.887-420.062 43.663-98.735-85.683-6.071-218.432s218.233-31.741 366.785-16.568l56.213-189.918-168.739 3.958 41.544-149.693s145.291-13.39 213.097-3.151l25.132-166.411s-144.369 2.487-223.52 10.219l46.831-168.375-90.873 3.533z" fill="#000000" class="color000000 svgShape"></path></defs><clipPath id="d"><use overflow="visible" xlink:href="#c" fill="#000000" class="color000000 svgShape"></use></clipPath><g clip-path="url(#d)" fill="#000000" class="color000000 svgShape"><path fill="#167ffc" d="m3274.153 1526.404-110.744 277.543 2.142 17.016s189.913-39.183 325.619-52.035c89.393-8.466 358.655-19.226 358.655-19.226s9.177 19.491 38.071 20.175c28.894.683 70.529-27.125 70.529-27.125l556.221-41.582 189.75-838.22-2.142-17.016-1218.825 9.41-209.276 671.06z" class="color5acbf2 svgShape"></path><path fill="#5254e3" d="m3272.01 1509.388-108.602 294.559s189.913-39.183 325.619-52.035c89.392-8.466 358.655-19.226 358.655-19.226s9.177 19.491 38.071 20.175c28.894.684 70.529-27.125 70.529-27.125l556.221-41.582 189.75-838.22-1220.968-7.606-209.275 671.06z" class="color529ae3 svgShape"></path><path fill="#3537b5" d="m3904.371 1603.261-56.689 129.426s9.177 19.491 38.071 20.175c28.894.684 70.529-27.125 70.529-27.125s9.246-101.996 10.307-105.011c1.061-3.015-62.218-17.465-62.218-17.465z" class="color357bb5 svgShape"></path><path fill="#d8c6b2" d="m3899.403 1685.842 3.76 29.864s345.82-88.105 581.057-73.154l175.55-751.542-10.473-83.189-227.379 740.307c-304.336 19.59-522.515 137.714-522.515 137.714z" class="colord8c2b2 svgShape"></path><path fill="#e6fae9" d="m4083.449 798.394-184.047 887.448s244.604-102.726 548.941-122.316l200.954-755.705s-319.893-115.296-565.848-9.427z" class="colorfaefe6 svgShape"></path><path fill="#d8c6b2" d="m3172.812 1591.597-56.645 87.793 12.178.382-8.787 26.558 18.612-.903-7.238 34.04 3.382 15.419s352.762-106.349 768.849-39.181l-3.76-29.864-20.378-79.448c0 .001-509.511-77.01-706.213-14.796z" class="colord8c2b2 svgShape"></path><path fill="#e6fae9" d="M3078.978 1652.769s573.118-54.869 820.425 33.074l184.047-887.448s-303.367-136.583-717.616-40.255l-286.856 894.629z" class="colorfaefe6 svgShape"></path><path fill="#f5fff7" d="M4083.449 798.394s167.98-211.572 450.177-258.625l-164.381 959.97s-212.124-50.732-469.843 186.103l184.047-887.448z" class="colorfff9f5 svgShape"></path><path fill="#a6c9ac" d="M3893.535 1698.769c-.235.03-.479.018-.723-.042-174.759-42.634-370.52-38.011-503.97-26.625-144.625 12.339-249.204 35.051-250.243 35.279a2 2 0 1 1-.857-3.907c1.042-.229 105.879-22.995 250.761-35.358 85.096-7.261 167.166-9.566 243.93-6.852 95.99 3.394 183.914 14.69 261.328 33.576a2 2 0 0 1-.226 3.929z" class="colorc9b4a6 svgShape"></path><path fill="#a6c9ac" d="M3899.651 1687.827c-.289.036-.59.01-.885-.089-144.804-48.633-346.427-47.682-490.069-38.321-155.738 10.151-278.772 32.103-279.997 32.323a2 2 0 0 1-.709-3.937c1.227-.221 124.447-22.208 280.401-32.375 91.613-5.972 176.441-6.758 252.129-2.337 94.684 5.531 175.27 19.276 239.519 40.854a2 2 0 0 1-.389 3.882z" class="colorc9b4a6 svgShape"></path><path fill="#eadaca" d="M4024.375 877.082c-264.002-65.588-401.962-51.527-523.682-39.121-37.495 3.821-72.91 7.431-109.589 8.363l-.737-28.99c35.573-.904 70.455-4.459 107.385-8.223 59.387-6.053 126.697-12.913 211.524-9.749 97.022 3.619 202.379 19.836 322.091 49.577l-6.992 28.143zM4013.098 957.247c-264.002-65.589-401.962-51.528-523.682-39.121-37.495 3.821-72.911 7.431-109.589 8.363l-.736-28.99c35.573-.904 70.455-4.459 107.385-8.223 59.387-6.052 126.698-12.913 211.524-9.749 97.022 3.619 202.379 19.836 322.09 49.577l-6.992 28.143zM3975.84 1040.683c-264.002-65.588-401.962-51.527-523.682-39.121-37.495 3.821-72.91 7.431-109.589 8.363l-.736-28.99c35.573-.904 70.455-4.459 107.385-8.223 59.387-6.053 126.697-12.913 211.524-9.749 97.022 3.619 202.379 19.836 322.091 49.577l-6.993 28.143zM3957.882 1121.689c-103.621-25.744-195.362-41.071-280.465-46.857l1.967-28.933c86.817 5.903 180.201 21.488 285.49 47.646l-6.992 28.144zM3548.607 1073.308c-41.675 1.847-78.65 5.615-114.407 9.259-37.495 3.822-72.909 7.431-109.587 8.363l-.737-28.99c35.573-.904 70.454-4.459 107.384-8.223 36.164-3.686 73.559-7.497 116.064-9.381l1.283 28.972zM3924.973 1204.578c-264.002-65.589-401.962-51.528-523.682-39.122-37.495 3.821-72.91 7.431-109.588 8.363l-.737-28.99c35.573-.904 70.455-4.459 107.385-8.223 59.387-6.052 126.698-12.913 211.524-9.749 97.022 3.619 202.379 19.836 322.091 49.577l-6.993 28.144zM3900.212 1286.44c-264.002-65.589-401.962-51.528-523.682-39.122-37.495 3.821-72.91 7.431-109.589 8.363l-.736-28.99c35.573-.904 70.455-4.459 107.385-8.223 59.387-6.052 126.698-12.913 211.524-9.749 97.022 3.619 202.379 19.836 322.091 49.577l-6.993 28.144zM3882.085 1367.468c-49.34-12.258-96.938-22.329-141.472-29.934l4.881-28.587c45.24 7.726 93.549 17.946 143.583 30.376l-6.992 28.145zM3612.889 1321.429a1173.627 1173.627 0 0 0-61.354-3.148c-59.826-1.474-108.693 2.049-148.605 5.69l-2.634-28.881c38.356-3.498 90.29-7.32 151.953-5.801 20.614.507 41.769 1.593 62.877 3.226l-2.237 28.914zM3331.019 1331.095c-24.261 2.36-53 4.872-82.205 5.614l-.737-28.99c28.291-.719 56.384-3.177 80.134-5.487l2.808 28.863zM3848.283 1450.469c-106.963-26.574-201.464-42.079-288.901-47.401l1.762-28.947c89.222 5.431 185.433 21.198 294.131 48.203l-6.992 28.145zM3497.708 1400.967c-66.811-.454-120.848 5.053-173.106 10.38-37.495 3.821-72.91 7.431-109.589 8.363l-.737-28.991c35.574-.904 70.455-4.459 107.385-8.223 50.558-5.153 107.861-10.993 176.245-10.528l-.198 28.999zM3823.523 1532.331c-264.002-65.589-401.962-51.528-523.682-39.122-37.495 3.821-72.91 7.431-109.589 8.363l-.736-28.991c35.573-.904 70.455-4.459 107.385-8.223 59.387-6.052 126.698-12.913 211.524-9.749 97.022 3.619 202.379 19.836 322.091 49.577l-6.993 28.145z" class="coloread8ca svgShape"></path></g><path fill="#e6fae9" d="m3327.231 911.965-72.562-3.014-29.494 104.913 72.74 4.734z" class="colorfaefe6 svgShape"></path><path fill="#9dedab" d="m3234.051 1071.877-10.045 75.389-84.241-1.404 12.165-76.81z" class="color9dedea svgShape"></path><path fill="#b6fac2" d="m3063.64 1171.331-10.045 75.389-84.241-1.403 12.165-76.811z" class="colorb6faf7 svgShape"></path><path fill="#a8f7b6" d="m3119.814 981.389-6.869 51.551-57.603-.96 8.318-52.522z" class="colora8f5f7 svgShape"></path><path fill="#b6fac2" d="m2999.793 1438.543-13.716 119.369-64.028 3.779 15.36-121.232z" class="colorb6faf7 svgShape"></path><path fill="#a8f7b6" d="m2993.519 1057.928-4.631 34.752-38.832-.647 5.608-35.407zM2846.526 1119.168l-4.63 34.752-38.833-.647 5.608-35.407z" class="colora8f5f7 svgShape"></path><path fill="#9dedab" d="m3259.16 1200.086-103.889-2.366-19.577 137.862 93.56-6.275z" class="color9dedea svgShape"></path><path fill="#e6fae9" d="m3347.061 1065.504-27.268 117.001s87.131-16.84 167.92-6.266l17.818-117.981c0 .001-102.134-2.223-158.47 7.246zM3153.272 1313.856l-100.212 6.721-17.66 124.363s48.473-7.076 109.456-9.415c1.662-40.779 12.882-99.399 17.31-121.246l-8.894-.423zM3206.392 1406.745c-4.984 24.59-17.614 90.571-19.484 136.472 39.022-1.497 82.593-1.271 123.283 3.123l31.012-133.18-134.811-6.415z" class="colorfaefe6 svgShape"></path><path fill="#ffa74a" d="M1875.994 1215.948h-224.907c-6.564 0-12.751-2.572-17.422-7.244-4.671-4.671-7.244-10.858-7.244-17.422v-33.128c0-6.564 2.573-12.751 7.244-17.422 4.671-4.671 10.858-7.244 17.422-7.244h224.907c1.277 0 2.312 1.035 2.312 2.312v77.834a2.314 2.314 0 0 1-2.312 2.314z" class="colorff5f4a svgShape"></path><path fill="#ce8d49" d="M1667.12 1191.283v-33.128c0-6.564 2.572-12.751 7.244-17.422 4.671-4.671 10.858-7.244 17.422-7.244h-40.698c-6.564 0-12.751 2.572-17.422 7.244-4.671 4.671-7.244 10.858-7.244 17.422v33.128c0 6.564 2.573 12.751 7.244 17.422 4.671 4.671 10.858 7.244 17.422 7.244h40.698c-6.564 0-12.751-2.572-17.422-7.244-4.672-4.671-7.244-10.859-7.244-17.422z" class="colorce4949 svgShape"></path><path fill="#ffffff" d="M2005.813 1213.636H1788.39c-5.827 0-11.321-2.428-15.468-6.837s-6.431-10.249-6.431-16.445v-31.27c0-6.196 2.284-12.036 6.431-16.445 4.147-4.409 9.64-6.837 15.468-6.837h217.423c1.134 0 2.053.977 2.053 2.183v17.703c0 .979-2.766 1.982-2.766 3.006 0 1.721 2.766 3.5 2.766 5.318v15.261c0 1.086-1.148 2.166-1.148 3.237 0 1.327 1.148 2.64 1.148 3.931v25.012c0 1.206-.919 2.183-2.053 2.183z" class="colorffffff svgShape"></path><path fill="#ffecd7" d="M2006.719 1182.51c0-1.025 1.049-2.059 1.139-3.098h-164.375l163.249 3.344a2.252 2.252 0 0 1-.013-.246z" class="colorffe2d7 svgShape"></path><path fill="#ce8d49" d="M2013.814 1215.948h-224.907c-6.564 0-12.751-2.572-17.422-7.244s-7.244-10.858-7.244-17.422v-33.128c0-6.564 2.572-12.751 7.244-17.422 4.671-4.671 10.858-7.244 17.422-7.244h224.907a2.312 2.312 0 1 1 0 4.624h-224.907c-11.051 0-20.041 8.99-20.041 20.041v33.128c0 11.051 8.99 20.041 20.041 20.041h224.907a2.312 2.312 0 1 1 0 4.626z" class="colorce4949 svgShape"></path><path fill="#ffecd7" d="M2007.866 1196.062h-196.912l196.903 2.004z" class="colorffe2d7 svgShape"></path><path fill="#ffbe7a" d="M1887.179 1165.168h52.02v69.6l-26.01-12.949-26.01 12.024z" class="colorff867a svgShape"></path><path fill="#ffecd7" d="M2005.146 1158.462c.357-.944 2.72-1.87 2.72-2.775l-226.596 2.775h223.876zM1832.845 1146.73h158.631s-117.008 3.392-158.631 0z" class="colorffe2d7 svgShape"></path><path fill="#ce863a" d="M707.606 1860.641c-29.813-21.901-140.981-44.937-140.981-44.937s-57.219-7.343-79.929 14.568c.204 2.104.443 4.196.751 6.265 12.562 84.313 206.163 66.099 206.163 66.099s13.957.631 18.282-19.995c2.566-12.241.23-18.682-4.286-22z" class="colorce643a svgShape"></path><path fill="#5cc66e" d="M233.945 2444.188s373.361-7.864 526.461-7.756l456.747.323c85.906.061 142.513-.647 240.896.17 20.47.17 62.854 2.402 87.52 5.393 34.381 4.169 25.16 12.831 18.753 12.831H269.59c-50.894 0-50.468-10.961-35.645-10.961z" class="color5cbec6 svgShape"></path><path fill="#333456" d="M288.756 2320.877c7.611-12.119 20.766-16.853 21.467-17.602 3.029-3.238 3.676-18.43-6.182-14.851-19.43 7.056-8.768-20.838-13.613-14.983-14.42 17.428-44.205 39.017-40.996 45.189 6.837 13.149 29.204 66.14 36.201 60.598 4.2-3.325-1.934-50.299 3.123-58.351zM647.039 2419.697c-9.463-3.482-11.13-11.621-15.522-19.171-.296-.509-2.485-11.601-2.55-12.493-.279-3.855-12.047-13.431-16.758-5.083-9.286 16.454-23.586-7.073-22.594-.499 2.953 19.57-2.583 51.294 4.876 53.005 15.889 3.645 89.082 4.589 90.002-3.147.552-4.642-21.089-6.59-37.454-12.612z" class="color333f56 svgShape"></path><path fill="#434359" d="M623.193 1904.223s51.362 201.075 46.339 258.76c-5.022 57.685-18.761 231.272-18.761 231.272l-72.713 4.63s-2.772-210.169-2.39-223.167c.599-20.383-60.401-238.179-48.62-271.496 20.681-58.489 96.145.001 96.145.001z" class="color434a59 svgShape"></path><path fill="#434359" d="M573.685 1912.867s-59.347 229.238-75.77 258.725c-18.802 33.758-84.121 98.173-126.211 136.069-18.355 16.527-30.954 41.089-30.954 41.089s-23.852-22.465-28.551-27.482c-22.662-24.199-31.503-45.114-31.503-45.114s122.355-121.303 128.98-152.601c3.694-17.45 6.738-200.156 23.92-222.819 17.183-22.663 140.089 12.133 140.089 12.133z" class="color434a59 svgShape"></path><path fill="#2c2c3d" d="M628.581 1925.95c-20.983-5.491-52.253-13.043-67.923-13.724-24.864-1.081-123.692 25.83-123.692 25.83s58.469 21.736 109.999 26.421c37.192 3.381 74.192 4.885 91.905 5.054a3257.884 3257.884 0 0 0-10.289-43.581z" class="color2c323d svgShape"></path><path fill="#f2a95c" d="M643.716 1945.564c-22.521-132.434-1.165-257.547-26.934-294.657-35.531-51.169-108.272-35.366-141.982 16.227-36.651 56.094-3.629 151.46-58.58 259.615 15.188 13.931 70.476 36.414 157.989 32.771 18.67-.778 50.347-7.641 69.507-13.956z" class="colorf2a25c svgShape"></path><path fill="#ce863a" d="M489.489 1890.965c-20.772-10.5-42.699-25.345-49.012-29.706-3.147 12.693-7.157 25.671-12.331 38.882 9.732 7.213 28.887 19.444 50.262 22.445 30.81 4.326 83.239-.003 83.239-.003s-47.564-19.186-72.158-31.618z" class="colorce643a svgShape"></path><path fill="#2c2c3d" d="M403.621 2138.46a1.622 1.622 0 0 1-1.118-2.797c15.157-14.423 18.312-30.918 18.343-31.083.16-.88.999-1.456 1.884-1.306a1.623 1.623 0 0 1 1.307 1.882c-.129.715-3.336 17.667-19.298 32.857a1.615 1.615 0 0 1-1.118.447z" class="color2c323d svgShape"></path><path fill="#f2a95c" d="m650.341 1869.006-139.283-29.757s-57.617-2.856-78.549 20.76c.367 2.082.769 4.149 1.238 6.188 19.102 83.077 210.691 49.813 210.691 49.813s9.189-4.504 11.891-25.404c1.605-12.406-5.988-21.6-5.988-21.6z" class="colorf2a25c svgShape"></path><path fill="#f2a95c" d="M511.058 1839.249s23.294-70.08 7.372-154.041c-2.823-14.885-43.63-18.073-43.63-18.073s-56.889 110.122-42.29 192.874c20.931-23.617 78.548-20.76 78.548-20.76z" class="colorf2a25c svgShape"></path><path fill="#ce863a" d="M576.574 1854.861a1.648 1.648 0 0 1-.27-.018c-11.987-1.793-21.874-4.522-31.434-7.161-11.805-3.258-22.955-6.336-35.563-6.637-22.091-.549-48.042 11.553-48.301 11.676a1.622 1.622 0 1 1-1.382-2.935c1.089-.511 26.96-12.52 49.759-11.983 13.009.311 24.346 3.44 36.35 6.753 9.467 2.613 19.258 5.316 31.052 7.08a1.621 1.621 0 0 1-.211 3.225z" class="colorce643a svgShape"></path><path fill="#ce863a" d="M511.085 1840.87a1.623 1.623 0 0 1-1.555-2.166c8.496-23.833 12.388-55.483 12.426-55.8a1.628 1.628 0 0 1 1.805-1.415 1.623 1.623 0 0 1 1.416 1.805c-.039.321-3.976 32.33-12.592 56.5a1.62 1.62 0 0 1-1.5 1.076z" class="colorce643a svgShape"></path><path fill="#2c2c3d" d="M543.178 2028.827a2.06 2.06 0 0 1-2.031-2.423c.907-5.099 9.057-49.995 15.563-56.132a2.063 2.063 0 0 1 2.828 3.001c-4.154 3.918-10.995 35.113-14.333 53.855a2.06 2.06 0 0 1-2.027 1.699z" class="color2c323d svgShape"></path><path fill="#ffa74a" d="M552.96 1566.588c-1.315-3.272-2.241-7.277-1.828-10.803.829-7.078 14.402-20.915 21.307-22.674 3.948-1.006 9.706 3.445 13.92 7.444-7.184 3.625-25.766 13.847-33.399 26.033z" class="colorffb94a svgShape"></path><path fill="#434359" d="M586.358 1540.554a76.97 76.97 0 0 1 5.45 5.737c-5.599 9.229-32.365 27.83-34.653 26.71-1.149-.562-2.87-3.115-4.195-6.413 7.633-12.186 26.215-22.408 33.398-26.034z" class="color434a59 svgShape"></path><path fill="#fe9526" d="M601.724 1543.787c-8.122-1.116-19.741 3.492-29.119 11.013-14.323 11.487-24.018 19.978-23.358 26.984.66 7.006 19.638 2.768 33.38-3.678 12.712-5.962 33.615-32.323 19.097-34.319z" class="colorf2923b svgShape"></path><path fill="#434359" d="M571.454 1558.724c7.786-4.052 7.786-4.052 13.842-7.764 3.106-1.904 10.472-7.332 16.533-.108 5.74 6.842-1.537 18.147-12.58 16.924-2.2-.244-4.367-.459-6.473-.699-2.215 10.002-9.11 24.802-17.587 22.325-5.863-1.713-3.696-4.816-4.117-12.589-.489-9.027 1.913-13.682 10.382-18.089z" class="color434a59 svgShape"></path><path fill="#ffbe7a" d="M566.489 1572.951s-3.674 17.038-6.312 26.116c-1.542 5.307-7.768 21.247-7.768 21.247.31 4.403 22.602 9.511 29.107 3.393 1.904-1.791-.045-48.112-.045-48.112l-14.982-2.644z" class="colorff867a svgShape"></path><path fill="#c69867" d="M581.898 1587.467c-6.028.28-13.675 1.149-13.675 1.149s1.035 7.689 8.257 12.961a20.106 20.106 0 0 0 5.823 2.944 961.703 961.703 0 0 0-.405-17.054z" class="colorc66c67 svgShape"></path><path fill="#ffbe7a" d="m574.419 1561.394-8.355 17.808c-2.285 6.083.669 12.894 6.689 15.342 4.81 1.956 8.033 2.359 14.493 2.37 5.382.009 8.729-4.746 9.582-11.697 1.108-9.018-.435-17.638-1.52-22.205-2.471-10.411-14.593-12.826-20.889-1.618z" class="colorff867a svgShape"></path><path fill="#c69867" d="M589.74 1590.217c-5.788-1.918-11.4 6.516-20.904-3.297-1.773-1.831-2.342-5.775-2.59-8.108l-.183.389c-2.285 6.083.669 12.894 6.689 15.342 4.81 1.956 8.033 2.359 14.493 2.37 3.283.006 5.804-1.768 7.468-4.725-1.078.04-3.205-1.386-4.973-1.971z" class="colorc66c67 svgShape"></path><path fill="#ffbe7a" d="M572.394 1569.744c-.49-1.116-.805-2.292-1.049-3.486-.465-2.27-1.681-5.535-4.71-3.19-4.405 3.412-1.268 15.369 4.531 15.142 4.306-.169 2.462-5.653 1.228-8.466z" class="colorff867a svgShape"></path><path fill="#ffffff" d="m582.356 1577.436 12.403-.068s-.129 5.266-2.666 6.277c-3.227 1.284-7.769-1.247-9.737-6.209z" class="colorffffff svgShape"></path><path fill="#c69867" d="M589.989 1573.079a7.465 7.465 0 0 0 3.521-.825c.846-.429 1.351.957.515 1.381a8.399 8.399 0 0 1-3.894.911c-.94-.008-1.09-1.475-.142-1.467z" class="colorc66c67 svgShape"></path><path fill="#434359" d="M587.104 1561.989s-4.203 1.902-4.704 1.173c-.5-.729-.578-1.219-.578-1.219l4.511-1.057.771 1.103zM596.488 1564.548c.166-.855-2.835-1.675-2.835-1.675l-.245 1.302 2.682 1.66c0-.001.232-.432.398-1.287z" class="color434a59 svgShape"></path><path fill="#ffbe7a" d="M642.177 1879.992s-16.738 6.077-15.376 15.701 10.882 7.923 15.846 5.823c4.964-2.1 6.219-21.666-.47-21.524z" class="colorff867a svgShape"></path><path fill="#434359" d="m808.066 2383.401-.377-1.291 7.817-2.011a30.86 30.86 0 0 1 1.748-.45l.238-.061.002.008a30.642 30.642 0 0 1 6.769-.713c16.864.12 30.438 13.889 30.317 30.753-.097 13.56-9.02 24.985-21.279 28.882l.001.005-.072.019a30.35 30.35 0 0 1-3.276.841l-5.162 1.324-.224-.767c-.248.004-.494.015-.742.013-16.864-.12-30.437-13.889-30.317-30.753.079-10.925 5.89-20.465 14.557-25.799z" class="color434a59 svgShape"></path><circle cx="815.123" cy="2411.735" r="30.536" fill="#434359" transform="rotate(-12.709 814.835 2411.713)" class="color434a59 svgShape"></circle><circle cx="815.123" cy="2411.735" r="12.287" fill="#e8e8ff" transform="rotate(-74.948 815.191 2411.755)" class="coloreae8ff svgShape"></circle><path fill="#f2a95c" d="M1494.217 2407.014H842.779v-7.589c0-12.508 10.14-22.648 22.648-22.648h606.142c12.508 0 22.648 10.14 22.648 22.648v7.589z" class="colorf2a25c svgShape"></path><path fill="#434359" d="M743.977 2233.86a8.16 8.16 0 0 1-8.01-6.658l-62.997-341.367a8.159 8.159 0 0 1 6.517-9.521c4.429-.832 8.691 2.089 9.521 6.517l62.997 341.367a8.16 8.16 0 0 1-8.028 9.662z" class="color434a59 svgShape"></path><path fill="#434359" d="M689.553 1972.499c-14.684 0-33.729-10.617-50.854-53.387a31.746 31.746 0 0 1 1.208-26.276 31.663 31.663 0 0 1 20.551-16.3l32.546-8.087c9.947-2.472 20.155-.111 28.005 6.478 7.858 6.595 11.957 16.25 11.247 26.489-1.164 16.775-3.869 30.847-8.04 41.826-6.221 16.374-15.733 25.994-28.271 28.593a31.504 31.504 0 0 1-6.392.664zm-25.161-80.127c-4.372 1.086-7.91 3.892-9.962 7.9a15.44 15.44 0 0 0-.584 12.776c5.348 13.357 19.149 43.107 35.898 43.108.954 0 1.917-.096 2.889-.298 12.567-2.605 21.077-22.86 23.346-55.57.345-4.972-1.645-9.66-5.459-12.862-3.807-3.195-8.756-4.34-13.581-3.141l-32.547 8.087zM729.652 2134.94l-5.773.673c-10.225 1.192-17.615 10.533-16.423 20.758l6.446 55.294c1.192 10.225 10.533 17.615 20.757 16.423l5.773-.673c10.225-1.192 17.615-10.533 16.423-20.757l-6.446-55.294c-1.191-10.225-10.532-17.616-20.757-16.424zM798.836 2384.992H680.78v-21.922c0-36.131 29.29-65.42 65.42-65.42h52.635v87.342z" class="color434a59 svgShape"></path><path fill="#434359" d="M721.17 2218.634c-12.726 0-23.043 10.317-23.043 23.043v74.001h83.361v-97.044H721.17zM760.87 2383.401l-.377-1.291 7.817-2.011a30.86 30.86 0 0 1 1.748-.45l.237-.061.002.008a30.642 30.642 0 0 1 6.769-.713c16.864.12 30.437 13.889 30.317 30.753-.097 13.56-9.02 24.985-21.278 28.882l.001.005-.072.019a30.35 30.35 0 0 1-3.276.841l-5.162 1.324-.224-.767c-.248.004-.494.015-.743.013-16.864-.12-30.437-13.889-30.317-30.753.08-10.925 5.892-20.465 14.558-25.799z" class="color434a59 svgShape"></path><circle cx="767.927" cy="2411.735" r="30.536" fill="#434359" transform="rotate(-45.001 767.903 2411.756)" class="color434a59 svgShape"></circle><path fill="#e8e8ff" d="M755.641 2411.647c-.049 6.786 5.413 12.326 12.199 12.374s12.326-5.413 12.374-12.199c.049-6.786-5.413-12.326-12.199-12.374-6.786-.048-12.326 5.414-12.374 12.199z" class="coloreae8ff svgShape"></path><path fill="#434359" d="m1257.488 2383.401-.377-1.291 7.817-2.011a30.86 30.86 0 0 1 1.748-.45l.238-.061.002.008a30.636 30.636 0 0 1 6.769-.713c16.864.12 30.437 13.889 30.317 30.753-.097 13.56-9.02 24.985-21.279 28.882l.001.005-.072.019c-1.069.337-2.16.622-3.276.841l-5.162 1.324-.224-.767c-.248.004-.494.015-.743.013-16.864-.12-30.438-13.889-30.317-30.753.08-10.925 5.892-20.465 14.558-25.799z" class="color434a59 svgShape"></path><circle cx="1264.545" cy="2411.735" r="30.536" fill="#434359" transform="rotate(-45.001 1264.523 2411.761)" class="color434a59 svgShape"></circle><path fill="#e8e8ff" d="M1252.258 2411.647c-.048 6.786 5.413 12.326 12.199 12.374 6.786.049 12.326-5.413 12.374-12.199.048-6.786-5.413-12.326-12.199-12.374-6.785-.048-12.325 5.414-12.374 12.199z" class="coloreae8ff svgShape"></path><path fill="#434359" d="m1210.292 2383.401-.377-1.291 7.817-2.011a30.86 30.86 0 0 1 1.748-.45l.238-.061.002.008a30.642 30.642 0 0 1 6.769-.713c16.864.12 30.438 13.889 30.317 30.753-.097 13.56-9.02 24.985-21.279 28.882l.001.005-.072.019a30.35 30.35 0 0 1-3.276.841l-5.162 1.324-.224-.767c-.248.004-.494.015-.743.013-16.864-.12-30.437-13.889-30.317-30.753.08-10.925 5.892-20.465 14.558-25.799z" class="color434a59 svgShape"></path><circle cx="1217.349" cy="2411.735" r="30.536" fill="#434359" transform="rotate(-45.001 1217.327 2411.76)" class="color434a59 svgShape"></circle><path fill="#e8e8ff" d="M1205.063 2411.647c-.048 6.786 5.413 12.326 12.199 12.374s12.326-5.413 12.374-12.199-5.413-12.326-12.199-12.374c-6.786-.048-12.326 5.414-12.374 12.199z" class="coloreae8ff svgShape"></path><path fill="#ffb464" d="M779.681 2183.838h70.629a50.777 50.777 0 0 1 44.868 27.004l87.921 165.936H722.487l6.467-144.434c1.215-27.133 23.566-48.506 50.727-48.506z" class="colorffe164 svgShape"></path><path fill="#f2a95c" d="M805.922 2183.838h70.629a50.777 50.777 0 0 1 44.868 27.004l87.921 165.936H748.728l6.467-144.434c1.215-27.133 23.566-48.506 50.727-48.506z" class="colorf2a25c svgShape"></path><path fill="#ffb464" d="M1308.015 2407.014H656.577v-7.589c0-12.508 10.14-22.648 22.648-22.648h606.142c12.508 0 22.648 10.14 22.648 22.648v7.589z" class="colorffe164 svgShape"></path><path fill="#ffbe7a" d="M663.364 1878.765c1.696 4.829 2.459 5.461 2.296 8.693-.22 4.336-4.036 4.298-4.474 3.569-.969-1.615-3.219-4.372-3.219-4.372s-1.271-.593-.219 2.201c1.052 2.795 3.793 5.388-5.523 9.811-3.91 1.856-9.07-5.376-9.07-5.376-.567 1.782 5.53 5.4 2.18 7.121s-10.392-5.281-9.565-7.743c0 0-5.745-9.846 16.718-17.316 7.705-2.561 7.987-.63 10.876 3.412z" class="colorff867a svgShape"></path><path fill="#f2b779" d="M700.814 1863.137c-1.696 4.829-2.459 5.461-2.296 8.693.22 4.336 4.036 4.298 4.474 3.569.969-1.615 3.219-4.372 3.219-4.372s1.271-.593.219 2.202c-1.052 2.795-3.793 5.388 5.523 9.811 3.91 1.856 9.07-5.376 9.07-5.376.567 1.782-5.53 5.4-2.18 7.121s10.392-5.281 9.565-7.743c0 0 5.745-9.846-16.718-17.316-7.705-2.562-7.988-.631-10.876 3.411z" class="colorf27c79 svgShape"></path><path fill="#5052e2" d="M874.964 2176.132v48.496c0 19.074 15.477 34.552 34.551 34.552h535.927v-14.68h-21.872v-84.683h21.872v-18.258H909.515c-11.08 0-20.94 5.24-27.268 13.323a34.45 34.45 0 0 0-7.283 21.25z" class="color508be2 svgShape"></path><path fill="#5cc66e" d="M1129.012 2259.168h316.43V2244.5h-21.872v-84.683h21.872v-18.247h-316.43s-35.439 53.381 0 117.598z" class="color5cbec6 svgShape"></path><path fill="#e7f2e9" d="M1429.455 2159.817v84.702h-289.608c-14.45-27.344-14.457-60.583-.007-84.583l289.615-.119z" class="colore7f2f2 svgShape"></path><path fill="#ffa74a" d="M1429.455 2082.375v34.56c0 13.593-11.03 24.623-24.623 24.623H883.259v-10.461h15.587v-60.349h-15.587v-13.011h521.573c7.896 0 14.923 3.734 19.433 9.495a24.553 24.553 0 0 1 5.19 15.143z" class="colorff5f4a svgShape"></path><path fill="#ffa84d" d="M1108.763 2141.551H883.259v-10.453h15.587v-60.349h-15.587v-13.004h225.504c0-.001 25.255 38.042 0 83.806z" class="colorff954d svgShape"></path><path fill="#e7f2e9" d="M894.652 2070.748v60.363h206.389c10.298-19.487 10.303-43.174.005-60.278l-206.394-.085z" class="colore7f2f2 svgShape"></path><path fill="#ffb464" d="M1368.594 1924.736v23.864c0 9.386-7.616 17.002-17.002 17.002H991.447v-7.224h10.763v-41.671h-10.763v-8.984h360.145c5.452 0 10.304 2.579 13.418 6.556a16.954 16.954 0 0 1 3.584 10.457z" class="colorfff364 svgShape"></path><path fill="#ffa84d" d="M1147.157 1965.597h-155.71v-7.218h10.763v-41.671h-10.763v-8.979h155.71s17.438 26.268 0 57.868z" class="colorff954d svgShape"></path><path fill="#e7f2e9" d="M999.314 1916.708v41.681h142.511c7.111-13.456 7.114-29.812.003-41.622l-142.514-.059z" class="colore7f2f2 svgShape"></path><path fill="#464777" d="M809.899 2293.721v48.504c0 19.088 15.479 34.544 34.567 34.544h650.639v-16.293h-21.866v-85.717h21.866v-15.582H844.466c-11.087 0-20.94 5.223-27.279 13.319-4.581 5.865-7.288 13.224-7.288 21.225z" class="color464977 svgShape"></path><path fill="#5d5e8b" d="M1186.853 2376.778h308.256v-16.302h-21.872v-85.717h21.872v-15.58h-308.256s-35.44 53.382 0 117.599zM1152.502 2259.179h-121.051s-35.439 53.381 0 117.598h121.051c-35.439-64.216 0-117.598 0-117.598z" class="color5d5e8b svgShape"></path><path fill="#e7f2e9" d="M1478.74 2274.989v85.157h-281.057c-14.451-25-14.451-57.032 0-85.157h281.057z" class="colore7f2f2 svgShape"></path><path fill="#8485c1" d="M1099.018 2332.22H866.881c-3.3 0-6-2.7-6-6v-16.483c0-3.3 2.7-6 6-6h232.137c3.3 0 6 2.7 6 6v16.483c0 3.3-2.7 6-6 6z" class="color8487c1 svgShape"></path><path fill="#5758b2" d="M886.877 1993.044v38.212c0 15.038 12.195 27.214 27.233 27.214h558.124v-12.836h-17.226v-67.529h17.226v-12.276H914.11c-8.735 0-16.497 4.115-21.491 10.493a27.044 27.044 0 0 0-5.742 16.722z" class="color9557b2 svgShape"></path><path fill="#3d3e84" d="M1106.185 2058.478h366.052v-12.843h-17.231v-67.529h17.231v-12.274h-366.052s-27.92 42.054 0 92.646z" class="color6a3d84 svgShape"></path><path fill="#e7f2e9" d="M1459.341 1978.287v67.088h-344.624c-11.384-19.696-11.384-44.931 0-67.088h344.624z" class="colore7f2f2 svgShape"></path><path fill="#7f80cc" d="M1035.714 2023.374H933.042c-3.3 0-6-2.7-6-6v-10.439c0-3.3 2.7-6 6-6h102.672c3.3 0 6 2.7 6 6v10.439c0 3.3-2.7 6-6 6z" class="colorb07fcc svgShape"></path><path fill="#5cc66e" d="M2057.314 2472.155s-288.545 44.844-143.594 53.852c144.951 9.008 551.209 8.313 593.724 0 42.515-8.313 27.149-11.463 98.605-5.164 71.456 6.299 195.9 5.473 201.388-9.073 5.487-14.547-6.169-24.875-100.331-26.797-94.16-1.921-477.939-22.14-649.792-12.818z" class="color5cbec6 svgShape"></path><path fill="#ceaa84" d="m2476.068 1447.199-102.222 161.83s-139.002-91.472-161.885-70.144-22.259 51.353 0 80.17 128.291 137.063 187.08 116.796 92.909-139.446 96.058-173.815c3.151-34.368-19.031-114.837-19.031-114.837z" class="colorce9d84 svgShape"></path><path fill="#434359" d="M2707.107 2484.973c9.597-5.51 21.22-12.249 19.89-37.003-.021-.379 3.447-9.465 1.217-5.989-2.418 3.771 11.068-18.33 17.134-8.395 11.957 19.583 2.848-4.813 9.231 1.178 10.622 9.968 22.665 55.823 16.694 62.25-11.417 12.289-102.721 20.06-104.687 10.44-1.179-5.774 23.924-12.952 40.521-22.481zM2483.684 2486.006c10.327-5.6 22.844-12.449 25.714-37.72.044-.387 4.97-9.653 2.201-6.11-3.003 3.843 13.927-18.682 18.193-8.526 8.408 20.02 3.6-4.906 8.842 1.226 8.722 10.202 12.787 57.038 5.857 63.583-13.251 12.515-103.971 20.213-104.274 10.389-.184-5.894 25.608-13.158 43.467-22.842z" class="color434a59 svgShape"></path><path fill="#a6723c" d="M2616.823 1957.4h-138.811s29.462-95.741 44.344-99.231c14.882-3.49 67.587.212 73.161 33.527 5.574 33.314 21.306 65.704 21.306 65.704z" class="colora64f3c svgShape"></path><path fill="#ffffff" d="M2711.91 1714.726c-26.533-57.34-43.262-55.771-51.862-106.462-12.834-75.648 6.845-153.007-52.883-185.017-31.712-16.996-67.679-5.809-97.286 2.639-58.238 16.618-32.493 133.477-38.259 164.929-1.894 10.332-17.622 53.037-32.811 119.924 60.93 17.963 181.728 44.116 273.101 3.987z" class="colorffffff svgShape"></path><path fill="#232340" d="M2543.3 1320.292s4.497-10.962 24.39-6.369c14.234 3.286 20.69 22.411 21.609 29.367.918 6.955 1.444 25.658 3.937 31.726 2.493 6.068-17.198 12.596-22.578 13.908-5.38 1.312-31.761 1.706-40.682-2.756-8.921-4.462 1.328-23.132 1.387-27.117s-4.791-36.266 11.937-38.759z" class="color402823 svgShape"></path><path fill="#434359" d="M2722.099 1740.047c-3.563-9.836-6.976-18.372-10.251-25.956-92.132 41.283-212.438 14.448-273.029-3.992-20.88 87.27-41.627 214.592-32.531 364.832 10.37 171.282 70.023 411.271 107.592 411.799 59.225.832 27.13-199.338 21.735-277.657-1.669-24.237-2.371-85.037-1.976-116.263.241-19.005 4.468-175.08 13.639-208.074 7.083 32.208 165.868 602.692 191.603 601.997 52.922-1.429 25.333-212.15 7.269-404.43-14.889-158.501-15.65-319.066-24.051-342.256z" class="color434a59 svgShape"></path><path fill="#f2cea7" d="M2670.613 1560.256c-13.051-60.245 18.131-115.5-64.565-140.131-43.637-12.997-60.055-12.248-89.265-4.133-77.28 21.472-48.381 134.109-54.056 159.124-4.231 18.649-136.044 347.672-65.093 390.504 29.42 17.76 71.646 27.303 116.977 31.27 10.056.88-30.963-332.504-10.122-496.083 6.762-53.073 38.93-91.082 56.49-91.109 5.698-.009 10.955-.47 15.208 6.759 47.762 81.191 10.095 582.596 23.586 582.031 78.823-3.303 148.994-18.462 159.975-31.709 10.49-12.656-79.264-360.957-89.135-406.523z" class="colorf2c3a7 svgShape"></path><path fill="#ceaa84" d="M2721.875 1771.895c-23.173-.122-66.798-.669-87.325-3.004-13.299-1.513-25.209-1.623-34.168-1.306-.112 6.494-.231 12.944-.355 19.337 12.305 11.186 31.185 24.253 55.519 28.745 29.274 5.405 58.98 2.26 76.442-.67a7677.491 7677.491 0 0 0-10.113-43.102z" class="colorce9d84 svgShape"></path><path fill="#ffbe7a" d="m2570.341 1373.206 2.758 33.282 2.262 9.46c.269 7.057-19.782 25.836-31.187 17.233-3.339-2.519-2.228-12.236.629-19.656l10.184-37.194 15.354-3.125z" class="colorff867a svgShape"></path><path fill="#c69867" d="m2549.158 1397.619 4.421-16.148 12.89-2.985s-3.153 18.372-17.311 19.133z" class="colorc66c67 svgShape"></path><path fill="#ffa74a" d="m2519.123 1580.465-134.175-3.615s-9.081-5.423-17.116 2.915l-54.055 61.921 2.296 168.441 69.86-54.073 133.19 4.667v-180.256z" class="colorff5f4a svgShape"></path><path fill="#916639" d="m2383.255 1617.734-13.718 1.321-1.704-39.289c8.035-8.338 17.116-2.915 17.116-2.915l1.105 5.334-2.799 35.549z" class="color913b39 svgShape"></path><path fill="#ffffff" d="m2521.846 1586.238 4.482 9.649-145.61-4.65-37.709 60.021-16.817-5.852 43.416-59.645s15.837 5.069 16.444-3.576l135.794 4.053z" class="colorffffff svgShape"></path><path fill="#eadaca" d="m2343.532 1817.547-4.704-1.39.049-1.316-2.117.705-4.322-1.278.078-1.673-2.196 1.048-4.127-1.22v-167.017l16.817 5.851zM2526.329 1595.886v172.355l-145.61-3.368v-173.637z" class="coloread8ca svgShape"></path><path fill="#e6fae9" d="M2380.719 1591.236v173.637l-37.187 52.674-.522-166.29z" class="colorfaefe6 svgShape"></path><path fill="#d8c6b2" d="M2330.32 1813.643v-166.776l38.379-58.679-35.817 59.852-.366 164.555z" class="colord8c2b2 svgShape"></path><path fill="#f2cea7" d="M2740.101 1789.781c113.344-60.044-35.44-291.397-73.743-337.348-31.057-37.257-49.934-5.795-51.383 6.977-5.757 50.742 49.206 209.46 49.206 209.46s-49.311 0-105.439-5.755c-17.347-1.779-23.066 29.261-21.681 52.945.82 14.02 10.067 31.528 21.681 38.676 64.147 39.482 134.558 59.837 181.359 35.045z" class="colorf2c3a7 svgShape"></path><path fill="#ffbe7a" d="m2564.411 1341.533 7.358 14.956c5.833 11.857-.734 28.32-13.349 32.258-16 4.994-24.272 3.776-28.081-11.021-2.233-8.677 1.4-26.342 2.895-33.197 3.406-15.629 21.457-19.573 31.177-2.996z" class="colorff867a svgShape"></path><path fill="#c69867" d="M2541.451 1361.734a12.25 12.25 0 0 1-5.453-2.346c-1.244-.936-2.458 1.157-1.228 2.083a13.798 13.798 0 0 0 6.03 2.592c1.52.257 2.184-2.07.651-2.329z" class="colorc66c67 svgShape"></path><path fill="#232340" d="M2549.734 1350.67c-.248-.042-1.009-.223-1.457.672-.337.674-.546 1.54-.462 2.306.099.894 1.003 1.401 1.827 1.067 1.141-.462 1.758-3.766.092-4.045zM2534.724 1351.148c-.248-.042-1.009-.223-1.457.672-.337.674-.547 1.54-.462 2.306.099.894 1.003 1.401 1.827 1.067 1.141-.462 1.758-3.766.092-4.045z" class="color402823 svgShape"></path><path fill="#ffffff" d="M2553.546 1367.555s-10.315-.458-21.179.748c0 0 8.104 14.074 21.179-.748z" class="colorffffff svgShape"></path><path fill="#ffbe7a" d="M2570.14 1355.512c.586-1.343.961-2.757 1.251-4.193.552-2.73 2.005-6.658 5.651-3.848 5.304 4.088 1.568 18.468-5.402 18.213-5.175-.191-2.975-6.788-1.5-10.172zM2557.989 1679.729s-13.767-30.605-16.041-33.625-40.999-10.797-49.034-8.021c-8.035 2.776 20.109 11.82 20.109 11.82s-20.124-4.004-22.9.88c-2.776 4.884 2.791 7.096 2.791 7.096s.94 5.135 0 7.786c-.94 2.65 16.335 10.362 16.335 10.362s-13.265 1.542-13.265 3.702 23.903 6.869 27.684 8.062c3.781 1.193 9.026 19.702 25.067 19.702 16.04 0 19.434-15.116 9.254-27.764z" class="colorff867a svgShape"></path><path fill="#ceaa84" d="M2664.181 1670.971a2.102 2.102 0 0 1-1.94-1.295c-39.945-96.125-49.372-192.092-49.462-193.051a2.1 2.1 0 0 1 4.181-.395c.09.952 9.466 96.316 49.159 191.834a2.098 2.098 0 0 1-1.133 2.744 2.09 2.09 0 0 1-.805.163z" class="colorce9d84 svgShape"></path><path fill="#ceaa84" d="M2627.948 1554.923c-.55 0-1.099-.215-1.511-.642-12.248-12.705-19.982-39.46-20.306-40.593a2.1 2.1 0 0 1 4.038-1.153c.076.268 7.773 26.884 19.291 38.831a2.1 2.1 0 0 1-1.512 3.557zM2699.346 1690.95a2.097 2.097 0 0 1-1.677-.833c-.159-.21-16.199-20.86-48.923-20.86l-.366.001a2.1 2.1 0 0 1-.009-4.199l.387-.001c34.899 0 51.569 21.607 52.264 22.53a2.099 2.099 0 0 1-1.676 3.362z" class="colorce9d84 svgShape"></path><path fill="#232340" d="M2547.455 1344.759s6.155-.532 7.005.441c.851.973-.708 1.364-1.126 1.219-.419-.145-5.365.15-5.783-.316s-.096-1.344-.096-1.344zM2538.162 1344.42s-.274.877-.809 1.076c-.535.199-4.67.363-4.833-.137-.162-.5 1.492-2.1 5.642-.939z" class="color402823 svgShape"></path><circle cx="2028.379" cy="2496.885" r="29.122" fill="#434359" class="color434a59 svgShape"></circle><circle cx="2380.812" cy="2496.885" r="29.122" fill="#434359" class="color434a59 svgShape"></circle><path fill="#e4eae5" d="M2422.912 2496.885h-438.669v-655.284h383.117l55.552 197.458z" class="coloreae6e4 svgShape"></path><path fill="#e4eae5" d="M1944.102 1841.601h421.387v45.693h-421.387z" class="coloreae6e4 svgShape"></path><path fill="#e4eae5" d="M1867.337 1677.355h421.387v45.693h-421.387z" transform="rotate(-44.618 2077.923 1700.122)" class="coloreae6e4 svgShape"></path><path fill="#cdd1ce" d="M2038.595 2143.958h107.262v11.492h-107.262zM2038.595 2169.243h107.262v11.492h-107.262zM2038.595 2194.529h107.262v11.492h-107.262z" class="colord1cfcd svgShape"></path><path fill="#ffbe7a" d="M2219.836 1542.926s-13.671-24.299-19.079-22.744c-5.408 1.556-6.099 7.016-7.759 8.866-1.66 1.851-5.705 4.919-7.719 7.977-2.014 3.057-1.114 10.395-3.053 12.827-1.939 2.432-7.516 10.899-8.899 15.047-1.383 4.148 8.356 15.284 15.502 14.258 7.146-1.026 2.467-8.942 2.467-8.942s10.943-3.021 13-6.05c2.057-3.029 3.224 1.899 7.812-6.545.549-1.01-10.742-21.464-10.742-21.464s9.739 13.374 14.085 13.431c4.344.056 4.385-6.661 4.385-6.661z" class="colorff867a svgShape"></path><ellipse cx="5860.864" cy="2691.833" fill="#5cc66e" rx="371.234" ry="14.999" class="color5cbec6 svgShape"></ellipse><path fill="#ffbe7a" d="M6001.149 2155.597c53.346 242.711 70.128 494.557 117.419 435.44 8.901-11.127 45.195-195.702 28.712-446.84-44.666 6.223-99.184 8.719-146.131 11.4z" class="colorff867a svgShape"></path><path fill="#ffbe7a" d="M6117.781 2594.751c-8.761 9.808-37.685 59.935-52.929 61.493-8.223.841-25.453-.134-30.257-1.208 8.211-7.772 49.326-69.718 32.858-157.26l29.938 1.702c19.958 1.135 35.235 18.209 34.144 38.17-1.076 19.678-1.884 40.485-.643 42.667-6.166-.136-7.703 8.383-13.111 14.436z" class="colorff867a svgShape"></path><path fill="#4b4b66" d="M5999.148 2676.731c4.597-5.447 13.569-11.87 30.56-18.407 1.681-.646 3.305-1.792 4.886-3.289 4.805 1.075 22.034 2.049 30.257 1.208 15.245-1.559 44.168-51.685 52.929-61.493 5.408-6.053 6.945-14.572 13.11-14.436 5.423 9.541 14.18 26.692 13.846 37.483-.48 15.586-2.23 57.432-3.047 74.035h-19.483l-1.299-40.524s-15.148-1.559-21.063 7.014c-2.218 3.215-3.822 8.731-4.96 14.37-2.36 11.691-12.362 19.14-25.048 19.14h-61.246c-7.899.001-14.009-9.689-9.442-15.101z" class="color4b5266 svgShape"></path><path fill="#ffbe7a" d="M5669.726 2593.801c46.897-2.764 89.582-175.738 149.295-426.116-69.317-.534-103.055-19.157-131.254-20.682-12.533 122.394-14.213 226.886-20.335 305.427-6.766 86.805-16.65 142.487 2.294 141.371z" class="colorff867a svgShape"></path><path fill="#ffbe7a" d="M5688.27 2587.208c-12.465 9.808-65.768 67.477-81.601 69.036-8.541.841-15.26-.134-19.659-1.208 11.146-7.771 63.614-64.589 78.717-157.26l69.036-19.923s-24.046 98.222-23.238 102.463c-6.113-.138-15.561.838-23.255 6.892z" class="colorff867a svgShape"></path><path fill="#4b4b66" d="M5543.371 2676.731c6.654-5.447 18.051-11.87 37.512-18.406 1.924-.646 3.982-1.793 6.127-3.289 4.398 1.075 11.118 2.049 19.659 1.208 15.833-1.559 69.136-59.228 81.601-69.036 7.694-6.054 17.142-7.03 23.256-6.893 1.82 9.541 4.1 26.692-.309 37.482-6.367 15.586-17.388 50.804-24.752 74.035h-19.483l7.75-40.524s-14.56-1.559-23.712 7.014c-3.432 3.215-7.119 8.731-10.388 14.37-6.776 11.691-19.591 19.141-32.277 19.141h-61.246c-7.9 0-10.35-9.69-3.738-15.102z" class="color4b5266 svgShape"></path><path fill="#54558c" d="M5881.187 586.625s-6.064 6.55-27.411 0-39.055 10.188-39.298 23.045c-.243 12.857 11.644 45.847 9.946 56.278-1.698 10.431-40.025 7.796-48.273 37.253-8.248 29.456 26.684 36.491 25.229 52.259-1.456 15.768-8.005 42.936 20.862 61.858 28.867 18.921 101.883-4.609 115.71-24.258 13.827-19.649 31.292-114.012 17.708-147.488s-36.145-86.116-74.473-58.947z" class="color54678c svgShape"></path><path fill="#f2b779" d="M5806.491 801.711c-60.141 32.761-60.858 168.536-68.48 223.744 6.849-59.628 3.117-166.255-25.399-177.878-35.25-14.366-178.124 394.674-39.475 409.708 113.511 12.308 199.67-277.208 179.323-399.816-12.457-75.06-25.055-67.151-45.969-55.758z" class="colorf27c79 svgShape"></path><path fill="#ce8d49" d="M6131.914 1486.375c-5.123-66.008 10.383-148.09-70.376-318.046h-.001c-55.872-191.216-11.593-290.734-39.984-349.054-10.497-21.561-33.393-51.881-83.613-60.138-50.22-8.257-144.89-9.371-187.654 106.193-10.872 29.379 28.785 106.85 11.106 312.453-18.254 26.729-53.336 732.392-100.014 1062.409 24.959 1.338 104.603 14.646 165.496 15.115 49.29.38 106.167-.378 163.864-3.652 41.444-2.352 143.807-6.003 183.585-11.463-40.01-335.574-37.916-695.943-42.409-753.817z" class="colorce4949 svgShape"></path><path fill="#ffbe7a" d="M5740.773 874.531s11.796-9.885-1.155-34.071c-6.056-11.31-4.38-18.101-6.569-20.136-4.358-4.052-9.621 8.045-9.538 14.757.084 6.711.708 42.685 17.262 39.45z" class="colorff867a svgShape"></path><path fill="#2e2f82" d="M6127.749 2236.384a3.5 3.5 0 0 1-3.484-3.211c-.279-3.372-28.06-337.698-33.976-378.453-2.906-20.021-1.494-96.511.001-177.493 1.614-87.413 3.443-186.489-.024-226.709-6.57-76.215-35.634-205.566-35.927-206.864a3.5 3.5 0 1 1 6.829-1.541c.294 1.302 29.462 131.12 36.073 207.803 3.499 40.586 1.745 135.577.049 227.44-1.489 80.688-2.896 156.901-.072 176.358 5.946 40.966 33.744 375.506 34.024 378.881a3.5 3.5 0 0 1-3.493 3.789z" class="color822e46 svgShape"></path><path fill="#434359" d="m5702.582 732.83-40.954 7.482a6.94 6.94 0 0 0-5.579 8.073l21.339 116.629a6.939 6.939 0 0 0 8.072 5.579l40.954-7.482a6.939 6.939 0 0 0 5.579-8.073l-21.338-116.629a6.939 6.939 0 0 0-8.073-5.579z" class="color434a59 svgShape"></path><path fill="#54558c" d="m5727.413 855.874-1.17-6.405-20.149-110.119-.019-.105a6.939 6.939 0 0 0-8.073-5.579l-40.954 7.482a6.939 6.939 0 0 0-5.579 8.073l.113.617 19.875 108.62.181.986 1.169 6.405a6.94 6.94 0 0 0 8.073 5.579l40.954-7.482a6.939 6.939 0 0 0 5.579-8.072z" class="color54678c svgShape"></path><path fill="#ffbe7a" d="m5911.768 683.343 14.64 73.212c2.361 12.062-21.578 48.669-43.501 36.944-6.418-3.432-2.195-21.406.722-34.931l2.58-65.722 25.559-9.503z" class="colorff867a svgShape"></path><path fill="#c69867" d="m5910.574 702.234-25.208 12.047-.888 22.641 3.174-1.202c18.481-7.002 22.922-33.486 22.922-33.486z" class="colorc66c67 svgShape"></path><path fill="#ffbe7a" d="m5893.276 638.398 14.805 24.944c11.737 19.776 7.514 46.815-17.793 57.392-19.587 8.187-42.789 4.666-49.782-22.561-5.88-22.893-2.567-38.229-.91-50.325 3.777-27.579 34.556-36.884 53.68-9.45z" class="colorff867a svgShape"></path><path fill="#ffbe7a" d="M5900.318 657.066c.82-2.563 1.243-5.216 1.507-7.894.501-5.09 2.425-12.536 9.61-8.08 10.451 6.482 6.297 33.451-6.484 34.279-9.492.614-6.699-11.848-4.633-18.305z" class="colorff867a svgShape"></path><path fill="#c69867" d="M5690.63 1161.39a2.565 2.565 0 0 1-2.119-4.357c33.62-33.844 38.891-107.323 38.941-108.061a2.562 2.562 0 0 1 2.731-2.389 2.565 2.565 0 0 1 2.389 2.732c-.206 3.093-5.461 76.143-40.422 111.335a2.554 2.554 0 0 1-1.52.74z" class="colorc66c67 svgShape"></path><path fill="#ad763b" d="M6002.06 939.209c0 4.445-2.223 217.828-45.937 296.365s-111.137 63.719-130.401 40.009c-19.264-23.709-50.834-114.176-50.834-114.176s101.958-48.824 139.744-105.134c37.787-56.309 87.428-117.064 87.428-117.064z" class="colorad3b56 svgShape"></path><path fill="#434359" d="M6121.863 1052.401c-18.667-22-70-14-71.333-20.667-1.333-6.667-17.333-217.333-35.333-237.313-18-19.98-32.854-15.041-45.167-12.52-72.544 14.85-55.397 274.372-55.397 274.372s-28.103 10.128-49.965 22.464c-21.863 12.336-29.049 169.664-9.22 206.33 19.831 36.667 289.749-15.402 293.749-27.402s-8.667-183.264-27.334-205.264zm-173.833 0s-2.461-227.617 16.5-243.5c18.96-15.883 42.353-1.5 46.5 7 4.147 8.5 8 220.93 8 220.93l-71 15.57z" class="color434a59 svgShape"></path><path fill="#c69867" d="M5719.618 1151.561a2.564 2.564 0 0 1-2.706-3.424c3.044-8.396 1.314-33.471.392-42.426-.146-1.409.798-2.724 2.288-2.815a2.567 2.567 0 0 1 2.816 2.29c.141 1.362 3.393 33.49-.672 44.701a2.563 2.563 0 0 1-2.118 1.674z" class="colorc66c67 svgShape"></path><path fill="#ffffff" d="M5845.054 686.407s22.701-2.897 34.87-1.764c0 0-5.89 18.538-17.269 18.557-11.379.02-17.601-16.793-17.601-16.793z" class="colorffffff svgShape"></path><path fill="#ffbe7a" d="M5981.632 804.597c-79.746 32.133-119.143 282.795-119.143 282.795s-94.856-211.716-128.211-230.058c-33.354-18.342-15.369 379.152 120.616 410.1 111.33 25.337 154.534-290.365 166.507-376.267 10.504-75.36-17.678-95.472-39.769-86.57z" class="colorff867a svgShape"></path><path fill="#ffbe7a" d="M5749.595 878.768s-5.009-16.598-8.769-29.245c-3.76-12.647-21.317-37.883-22.286-37.156-3.769 2.826 6.425 25.924 4.169 26.078-.986.067-7.938-25.497-11.546-25.417-5.733.127-9.252 11.873-8.499 19.083 2.564 24.533 14.673 68.714 14.673 68.714l32.258-22.057z" class="colorff867a svgShape"></path><path fill="#c69867" d="m5873.116 1169.981-.093-.001a2.565 2.565 0 0 1-2.473-2.655c1.571-44.923-10.679-86.709-10.804-87.125a2.567 2.567 0 0 1 1.729-3.191 2.56 2.56 0 0 1 3.192 1.728c.125.426 12.611 43.016 11.01 88.769a2.563 2.563 0 0 1-2.561 2.475zM5860.357 676.575c-3.559-.132-6.795-1.052-9.895-2.807-2.347-1.33-3.963 2.54-1.642 3.855a23.921 23.921 0 0 0 10.94 3.1c2.673.1 3.289-4.048.597-4.148z" class="colorc66c67 svgShape"></path><path fill="#434359" d="M5871.858 652.169c-.466-.004-1.915-.111-2.4 1.604-.366 1.292-.43 2.888.004 4.224.507 1.559 2.336 2.206 3.71 1.381 1.904-1.143 1.814-7.183-1.314-7.209zM5844.758 657.243c-.466-.004-1.915-.112-2.401 1.604-.366 1.292-.43 2.888.005 4.224.507 1.559 2.335 2.206 3.71 1.381 1.904-1.142 1.814-7.182-1.314-7.209zM5867.502 642.425c1.733-1.374 5.069-1.736 7.131-1.162 2.129.593 4.698 1.94 5.989 3.87.204.189.326.413.379.652a.88.88 0 0 1-.215 1.109c-.347.533-1.02.861-1.809.522-3.198-1.375-7.142-2.102-10.575-2.22-1.657-.058-2.111-2.279-.9-2.771zM5838.121 650.141c.098-.079.208-.148.339-.195.936-.334 2.076-.958 3.243-1.432.088-.047.17-.086.24-.109.031-.01.062-.013.094-.023 1.718-.648 3.459-.882 4.659.702.154.203.212.425.207.642.28.812-.04 1.88-1.109 2.03-2.385.333-4.764.684-7.114 1.258-1.715.419-2.094-2.258-.559-2.873z" class="color434a59 svgShape"></path><path fill="#5cc66e" d="M4042.979 2438.087s-149.77-17.524-105.202 37.158 162.431 65.569 265.887 71.012 419.187-45.89 419.189-74.129c.003-28.239-261.507-17.259-346.68-13.296s-233.194-20.745-233.194-20.745z" class="color5cbec6 svgShape"></path><path fill="#f2b779" d="M4159.717 2072.709s-81.493 142.425-73.413 182.795c8.08 40.37 47.089 34.384 68.408 21.047s44.38-85.458 48.952-122.653c4.572-37.195-25.788-98.875-43.947-81.189z" class="colorf27c79 svgShape"></path><path fill="#ffb464" d="M4402.997 2354.501c4.875-5.471 8.19-141.798 8.01-156.398-.926-74.912 12.639-134.656-37.047-155.511-54.104-22.709-171.777-34.857-212.061 25.201-11.556 17.229 8.367 77.284 15.029 149.383 4.325 46.813-4.775 109-5.038 132.789-.059 5.334 4.285 9.718 8.162 12.865 14.522 11.786 42.985 21.473 78.449 24.66 80.02 7.191 115.869-.859 144.496-32.989z" class="colorffe164 svgShape"></path><path fill="#f2a95c" d="M4373.959 2042.593c-15.531-6.519-36.305-12.163-58.979-15.483 6.068 16.831 37.845 43.309 41.892 102.445 3.901 56.996 3.531 206.839-47.856 260.353 46.301-.486 72.229-10.994 93.98-35.407 4.875-5.471 8.19-141.798 8.01-156.398-.925-74.912 12.64-134.655-37.047-155.51z" class="colorf2a25c svgShape"></path><path fill="#5d5e7f" d="M4173.127 2348.446c63.495 19.433 132.931 22.464 198.785 7.885 60.284-13.345 129.505-24.476 158.691-13.646 56.677 21.031 58.756 95.441 11.471 131.124s-301.218 55.662-389.445 45.36c-88.227-10.303-253.479-81.364-185.727-162.392 39.318-47.023 133.826-30.49 206.225-8.331z" class="color7f635d svgShape"></path><path fill="#414159" d="M3958.331 2369.075c-42.536 75.812 110.565 140.316 194.298 150.094 88.227 10.303 342.159-9.677 389.445-45.36 35.85-27.053 43.314-76.36 20.135-107.795-66.026 20.276-220.72 65.385-308.271 71.259-86.074 5.774-230.808-43.904-295.607-68.198z" class="color594541 svgShape"></path><path fill="#414159" d="M4075.507 2354.243s36.587 3.134 68.857 27.23 64.059 57.914 52.98 68.059c-11.076 10.145-139.64-77.71-121.837-95.289zM4348.292 2434.366s17.464-28.391 55.274-45.17c37.81-16.779 85.646-29.402 92.012-16.509 6.366 12.894-135.716 82.894-147.286 61.679z" class="color594541 svgShape"></path><path fill="#5d5e7f" d="M4068.992 2350.849c-31.714-16.003-64.271-13.226-86.065-8.065-6.01 3.862-11.41 8.474-16.025 13.993-67.752 81.028 97.5 152.089 185.727 162.391 3.765.44 7.853.82 12.192 1.15 21.847-6.099 39.369-15.468 52.444-27.967 28.857-27.583-93.544-113.886-148.273-141.502z" class="color7f635d svgShape"></path><path fill="#414159" d="M4164.821 2520.319c15-4.188 27.96-9.917 38.843-17.142-27.137-7.486-95.08-28.319-160.685-65.089-50.611-28.366-73.584-54.195-83.876-70.359-45.125 76.393 109.298 141.604 193.526 151.44 3.765.439 7.853.82 12.192 1.15z" class="color594541 svgShape"></path><path fill="#e8e8e8" d="M4194.614 2480.924s56.579 7.344 63.136 15.615c6.557 8.271-20.369 27.82-38.406 28.743-18.038.923-48.641-7.795-46.083-18.739s14.591-26.57 21.353-25.619z" class="colore8e8e8 svgShape"></path><path fill="#5d5e7f" d="M4514.007 2359.799c-40.513 3.688-181.184 69.43-219.573 97.976s-34.442 41.255-34.442 41.255-3.964 9.948 2.309 20.948c23.893 21.286 249.045-19.321 282.471-46.35 35.549-28.746 49.807-86.131 9.567-116.473-11.769-2.673-21.328.915-40.332 2.644z" class="color7f635d svgShape"></path><path fill="#414159" d="M4577.091 2391.736c-28.951 18.694-82.086 50.819-140.369 75.339-61.481 25.865-137.97 35.421-177.947 38.815-.13 3.807.526 8.825 3.527 14.088 23.893 21.285 249.045-19.321 282.471-46.351 24.464-19.783 38.844-53.129 32.318-81.891z" class="color594541 svgShape"></path><path fill="#434359" d="M4240.211 2507.022c-2.65-5.01 1.603-11.736 5.812-16.646a177.09 177.09 0 0 0-7.879.626c-15.415 1.557-44.262 6.339-55.465 20.697-15.617 20.015 18.663 27.96 47.926 17.338 2.371-.861 4.584-1.677 6.723-2.469 9.998-3.703 18.324-6.132 25.268-7.597-9.342-2.964-19.89-7.233-22.385-11.949z" class="color434a59 svgShape"></path><path fill="#ffffff" d="M4275.235 2487.292c-12.239-.414-27.027 2.983-27.027 2.983s-.786.022-2.186.101c-4.208 4.91-8.462 11.636-5.812 16.646 2.495 4.716 13.043 8.984 22.384 11.95 7.296-1.539 13.065-2.013 17.592-1.748 9.76.572 7.289-29.517-4.951-29.932z" class="colorffffff svgShape"></path><path fill="#434359" d="m4277.665 2380.991 122.09-26.514.004 4.964c.003 3.705-120.274 29.84-120.274 29.84a18.043 18.043 0 0 1-3.665.378l-258.666.27a8.65 8.65 0 0 1-8.658-8.644v-.016l269.169-.278z" class="color434a59 svgShape"></path><path fill="#6f6f84" d="m4399.754 2354.477-122.089 26.514-269.169.279 122.09-26.514z" class="color6f7784 svgShape"></path><path fill="#434359" d="m4344.117 2357.36-200.651.219 12.756-2.64 200.651-.22z" class="color434a59 svgShape"></path><path fill="#434359" d="m4277.941 2389.413-263.495 1.24a6.177 6.177 0 0 1-6.177-5.571l-17.831-180.827c-.674-6.836 4.321-12.924 11.157-13.598l244.364 1.174c6.836-.674 12.924 4.321 13.598 11.157l18.384 186.425z" class="color434a59 svgShape"></path><ellipse cx="4113.093" cy="2292.542" fill="#ffffff" rx="11.716" ry="16.049" transform="rotate(-7.252 4111.175 2292.346)" class="colorffffff svgShape"></ellipse><path fill="#434359" d="M4256.923 1936.414c-4.675-4.121-14.76-9.192-26.964-6.902-12.204 2.29-18.612 22.93-13.051 26.258s6.337 2.698 6.724 4.201c.387 1.502-1.477 5.679.072 9.266 1.549 3.587 7.507 7.758 9.107 6.839s38.005 13.873 40.157 12.944c1.334-.576 1.816-5.455 1.606-10.235-.2-4.55.161-9.107 1.129-13.558 1.167-5.369 1.262-12.68-2.286-16.109-6.204-5.997-9.818-2.813-9.818-2.813s-4.186-7.697-6.676-9.891z" class="color434a59 svgShape"></path><path fill="#ffbe7a" d="m4266.468 1977.081 23.7 47.812c1.72 5.633-4.529 33.78-30.109 31.372-3.472-.327-8.239-15.95-7.517-22.54l-.928-40.31 14.854-16.334z" class="colorff867a svgShape"></path><path fill="#ffbe7a" d="m4255.538 1961.354 13.715 23.35c3.905 8.049.721 17.76-7.22 21.88-6.345 3.292-10.712 4.254-19.566 5.089-7.377.696-12.568-5.398-14.621-14.818-2.664-12.221-1.643-24.234-.737-30.631 2.065-14.585 18.375-19.434 28.429-4.87z" class="colorff867a svgShape"></path><path fill="#434359" d="m4264.529 1986.374-3.488-26.371c-1.229-1.781-8.159-5.522-9.438-3.131 1.474 4.964 5.053 17.993 3.912 20.041-1.31 2.35-4.149-.992-12.646.592-5.41 1.009-15.802 1.759-18.088 6.358-1.636 3.293 2.055 7.755-.382 16.288-2.648 9.271 7.271 14.49 16.614 13.991 8.88-.474 14.673-4.266 21.019-7.558 7.941-4.12 6.402-12.161 2.497-20.21z" class="color434a59 svgShape"></path><path fill="#ffbe7a" d="M4262.694 1965.796c.302-2.832 1.407-6.97 5.388-4.455 5.79 3.657 4.416 17.43-2.705 17.832-5.288.3-2.842-11.887-2.683-13.377z" class="colorff867a svgShape"></path><path fill="#c69867" d="M4235.878 1975.399a10.555 10.555 0 0 1-4.905-1.451c-1.16-.674-1.985 1.241-.838 1.908 1.66.965 3.506 1.51 5.424 1.603 1.327.064 1.657-1.995.319-2.06z" class="colorc66c67 svgShape"></path><path fill="#434359" d="M4242.627 1965.895c-.217-.01-.886-.088-1.178.724-.22.611-.311 1.373-.16 2.02.176.755 1.001 1.097 1.672.727.93-.512 1.12-3.402-.334-3.471zM4229.759 1967.708c-.217-.01-.886-.088-1.178.724-.22.611-.311 1.373-.16 2.02.176.755 1.001 1.097 1.672.727.929-.512 1.12-3.402-.334-3.471zM4232.06 1961.965c-1.969.596-3.843 1.427-5.653 2.401-1.676.902-3.019-1.73-1.343-2.632a34.674 34.674 0 0 1 6.4-2.664c1.817-.55 2.407 2.347.596 2.895zM4240.567 1958.011c1.799.189 3.608.275 5.399.541 1.883.279 1.487 3.208-.396 2.929-1.791-.266-3.6-.352-5.399-.541-1.896-.199-1.493-3.128.396-2.929z" class="color434a59 svgShape"></path><path fill="#ffffff" d="m4228.726 1982.143 17.839-2.964s-1.512 5.604-8.467 6.889-9.372-3.925-9.372-3.925z" class="colorffffff svgShape"></path><path fill="#ffbe7a" d="M4397.884 2060.974c51.234 41.97 139.219 177.22 124.078 226.875-15.141 49.655-68.8-3.342-93.883-50.55-10.738-20.209-48.109-78.708-52.323-114.558-5.63-47.895 9.439-72.161 22.128-61.767z" class="colorff867a svgShape"></path><path fill="#ffbe7a" d="M4455.899 2240.232s-142.986 104.683-110.251 134.109 165.362-51.853 173.187-78.769c7.825-26.915-19.865-86.814-62.936-55.34z" class="colorff867a svgShape"></path><path fill="#ffbe7a" d="M4352.933 2350.305c-.666.266-24.493.788-31.751 3.938-7.258 3.15-22.452-3.102-25.854 3.17-3.402 6.272 13.834 7.86 20.865 7.633s6.351 6.804 1.134 9.752c-5.216 2.948-17.039 7.129-16.117 9.688s27.911 5.281 41.972 2.332c14.062-2.948 26.536-5.872 33.113-14.616s-12.023-26.433-23.362-21.897z" class="colorff867a svgShape"></path><path fill="#c69867" d="M4492.184 2265.611c-.479 0-.965-.115-1.416-.357-23.633-12.681-52.044-8.375-52.33-8.332a3 3 0 1 1-.937-5.926c1.242-.195 30.71-4.656 56.104 8.971a3 3 0 0 1-1.421 5.644z" class="colorc66c67 svgShape"></path><path fill="#434359" d="M6393.983 1699.917s-4.203-17.772-44.144-15.046c-39.94 2.727-47.732 20.907-51.628 31.946-3.896 11.038-17.207 131.484 0 149.664 17.206 18.181 59.411 22.726 80.513 13.635 21.103-9.09 28.894-120.481 15.259-180.199z" class="color434a59 svgShape"></path><path fill="#595bd4" d="m6382.178 1675.921.526-3.378s1.34-3.358 8.077-4.819c6.736-1.461 24.592-2.191 31.897 1.38s8.928 8.522 8.766 13.229c-.163 4.708-6.412 12.337-13.148 12.743-6.737.405-32.384-8.523-36.118-19.155zM6550.834 1738.822s70.45 97.72 56.49 123.367c-13.96 25.647-50.149 16.822-66.229 3.896-16.08-12.927-49.022-62.333-50.97-76.618-1.948-14.284 56.658-56.407 60.709-50.645z" class="color4c87c2 svgShape"></path><path fill="#434359" d="M6390.12 1654.939s-1.101 1.838 4.396 1.391c5.497-.447 37.496-10.677 41.543-15.339s6.807-7.35 2.077-9.601c-4.73-2.251-25.676 2.398-33.02 6.135s-15.073 13.659-14.996 17.414z" class="color434a59 svgShape"></path><path fill="#5cc66e" d="M6315.304 2436.125h192.654c9.489 0 49.202 1.418 40.29 4.538-8.265 2.894-65.14 4.538-74.629 4.538h-173.593c-28.857 0-54.452-2.042-45.009-4.538 9.444-2.496 28.883-4.538 60.287-4.538z" class="color5cbec6 svgShape"></path><path fill="#404059" d="M6477.167 2430.148c-6.534-2.861-7.365-8.678-10.146-14.196-.188-.372-1.262-8.297-1.27-8.93-.034-2.734-7.936-9.995-11.617-4.301-7.255 11.223-15.21-6.315-14.79-1.631 1.253 13.943-5.146 36.427.048 37.952 11.064 3.249 62.704 7.025 63.683 1.602.589-3.254-14.609-5.548-25.908-10.496zM6313.455 2430.148c-6.534-2.861-7.365-8.678-10.146-14.196-.188-.372-1.262-8.297-1.27-8.93-.033-2.734-7.936-9.995-11.616-4.301-7.256 11.223-15.21-6.315-14.79-1.631 1.253 13.943-5.146 36.427.047 37.952 11.064 3.249 62.704 7.025 63.683 1.602.589-3.254-14.609-5.548-25.908-10.496z" class="color404859 svgShape"></path><path fill="#434359" d="M6351.76 1918.442c13.048-28.818 112.257-66.207 138.427-72.365 1.915 29.019 15.301 47.097 31.138 78.398 22.14 43.757-38.48 484.211-38.48 484.211s-7.392 4.491-24.803 4.482c-23.01-.012-29.502-4.482-29.502-4.482l14.769-398.327s-20.313 102.349-56.03 207.711c-16.288 48.05-69.646 190.616-69.646 190.616s-9.599 4.482-23.215 4.482c-14.286 0-24.108-4.482-24.108-4.482l39.734-219.623s34.022-253.628 41.716-270.621z" class="color434a59 svgShape"></path><path fill="#5cc66e" d="M6338.84 1855.282c.754-63.775-4.179-100.02 1.894-121.737 7.787-27.844 39.455-45.202 62.763-48.438 19.172-2.661 71.342 5.162 88.403 17.11 23.816 16.679 42.953 240.389 47.512 298.085a16.93 16.93 0 0 1-11.88 17.507c-25.132 7.774-26.368 13.199-85.433 25.2-49.175 9.991-82.854 7.663-103.556 6.336-15.135-.97-25.82-15.25-22.512-30.051 8.276-37.036 22.136-107.157 22.809-164.012z" class="color5cbec6 svgShape"></path><path fill="#ffa84d" d="M6395.875 1643.699c-.115.601 3.592 19.966 9.009 19.114 5.417-.852 14.025-26.358 8.169-26.297-5.856.061-16.387 3.043-17.178 7.183z" class="colorffcc4d svgShape"></path><path fill="#ffbe7a" d="m6404.082 1651.671-4.915 35.188c-.554 6.22 19.378 21.651 26.26 16.844 2.015-1.407 1.867-5.538.512-10.125l-8.49-32.093-13.367-9.814z" class="colorff867a svgShape"></path><path fill="#c69867" d="M6418.754 1666.421c-4.344-1.233-10.003-2.916-10.003-2.916s-1.074 4.207 4.627 10.404c2.578 2.802 5.663 4.501 8.763 5.316l-3.387-12.804z" class="colorc66c67 svgShape"></path><path fill="#ffbe7a" d="m6407.134 1637.576-3.364 14.808c-.922 6.629 2.091 13.264 8.304 15.751 5.731 2.294 9.48 3.683 15.974 2.235 5.41-1.207 7.698-6.741 6.985-13.919-.924-9.312-4.423-17.626-6.544-21.969-2.271-4.65-6.281-7.047-10.289-6.97-4.527.088-2.373 6.091-11.066 10.064z" class="colorff867a svgShape"></path><path fill="#c69867" d="M6425.408 1649.765a8.245 8.245 0 0 0 3.049-2.581c.616-.847 1.809.262 1.199 1.1a9.274 9.274 0 0 1-3.371 2.852c-.929.464-1.812-.904-.877-1.371z" class="colorc66c67 svgShape"></path><path fill="#ffffff" d="M6432.102 1653.445c-1.966.17-5.637.551-9.677 1.292-1.033.189-1.312 1.547-.432 2.12 3.377 2.196 9.649 5.123 11.343-1.999.182-.764-.453-1.481-1.234-1.413z" class="colorffffff svgShape"></path><path fill="#ffbe7a" d="M6406.665 1649.887c-.553-1.016-.944-2.102-1.271-3.212-.621-2.108-2.032-5.098-4.707-2.639-3.891 3.576.03 14.628 5.492 13.95 4.058-.502 1.877-5.539.486-8.099z" class="colorff867a svgShape"></path><path fill="#434359" d="M6419.235 1636.403c-.82-.257-2.08.076-2.747.571-.69.511-1.434 1.357-1.633 2.236a.482.482 0 0 0-.047.289l-.001.005a.341.341 0 0 0 .233.366c.2.145.49.17.729-.063.968-.943 2.297-1.756 3.525-2.276.593-.249.449-1.118-.059-1.128z" class="color434a59 svgShape"></path><path fill="#ffa84d" d="M6403.815 1643.112s1.25 4.888 2.63 6.349c1.38 1.461 2.354-1.989 2.557-3.003.203-1.015-1.103-6.777-.491-8.847.612-2.07-4.863-.609-4.905 1.664-.041 2.273.209 3.837.209 3.837z" class="colorffcc4d svgShape"></path><path fill="#434359" d="M6430.153 1636.63a.44.44 0 0 0-.139-.062c-.375-.093-.839-.289-1.309-.426a.586.586 0 0 0-.097-.033l-.037-.005c-.689-.183-1.371-.205-1.773.454a.396.396 0 0 0-.055.256c-.076.325.089.725.508.741.935.035 1.867.078 2.798.208.68.094.721-.955.104-1.133z" class="color434a59 svgShape"></path><path fill="#434359" d="M6394.075 1650.119c7.85-6.949 24.708-15.854 39.089-17.991l4.973-.739-15.523-10.002-8.949-12.333s-17.792-1.392-25.853 13.436l2.326 10.366s-.42 15.668-.017 22.083c-.001 0 2.766-3.769 3.954-4.82zM6563.33 1669.541h-75.579c-1.721 0-3.288 1.382-3.499 3.086l-14.847 119.922c-.211 1.705 1.013 3.086 2.734 3.086h75.579c1.722 0 3.288-1.382 3.499-3.086l14.847-119.922c.211-1.704-1.013-3.086-2.734-3.086zM6355.882 1701.649s27.391 18.018 34.148 42.124-13.696 91.629-60.202 102.304l3.165 26.989s31.686-6.087 54.818-47.237c23.131-41.15 19.687-72.931 18.502-82.299-2.711-21.427-21.202-40.414-35.579-49.672-14.377-9.258-14.852 7.791-14.852 7.791z" class="color434a59 svgShape"></path><path fill="#ffbe7a" d="M6467.383 1739.038s4.238-9.572 6.349-13.381c2.11-3.809 1.736-12.168 4.241-10.891 2.505 1.277.65 8.682 2.021 11.553 1.371 2.872 16.505-7.314 19.12-4.948 2.615 2.367.183 13.514-4.316 17.751-2.955 2.782-13.497 8.105-18.066 10.796-4.571 2.691-11.441-3.769-9.349-10.88z" class="colorff867a svgShape"></path><path fill="#595bd4" d="M6479.014 1819.535s-7.394 53.368-21.679 81.937-36.686 37.984-65.255 33.764c-28.569-4.22-43.503-32.79-48.048-49.996-4.545-17.206.325-45.776.325-45.776s27.273 52.594 53.893 53.892c26.62 1.298 80.764-73.821 80.764-73.821z" class="color4c87c2 svgShape"></path><path fill="#5cc66e" d="M6367.766 1716.265c15.991 6.527 38.547 116.381 38.547 116.381s39.288-90.578 54.871-95.123c15.583-4.545 30.842 14.609 32.79 18.83 1.948 4.22-28.654 143.496-71.833 161.027s-71.292-23.591-75.513-41.393c-9.94-41.926-26.586-179.201 21.138-159.722z" class="color5cbec6 svgShape"></path><path fill="#595bd4" d="M6392.078 1858.196a2.501 2.501 0 0 1-2.185-3.713c.19-.343 19.092-34.44 25.176-47.094 6.293-13.088 28.735-54.303 30.059-56.267a2.5 2.5 0 0 1 4.147 2.794c-1.381 2.099-23.673 43.107-29.699 55.639-6.146 12.784-25.118 47.009-25.309 47.354a2.5 2.5 0 0 1-2.189 1.287z" class="color4c87c2 svgShape"></path><path fill="#5cc66e" d="M6420.284 1690.57s-31.897-14.609-32.871-18.262c-.974-3.652-3.287-1.826-5.357 1.096s-11.688 15.583-2.07 22.157 32.993 16.314 43.584 12.661 8.644-8.644 8.522-11.444c-.122-2.8.399-18.87-1.504-19.601-1.903-.729-4.702 1.462-10.304 13.393z" class="color5cbec6 svgShape"></path><path fill="#595bd4" d="M6404.045 1836.335a2.5 2.5 0 0 1-2.449-2.015c-.022-.112-2.304-11.685-8.188-46.199-5.809-34.065-16.823-54.117-16.935-54.316a2.5 2.5 0 0 1 4.369-2.432c.468.841 11.543 21.006 17.495 55.909 5.869 34.424 8.141 45.956 8.163 46.068a2.499 2.499 0 0 1-2.455 2.985z" class="color4c87c2 svgShape"></path></svg>