<svg width="21" height="21" viewBox="0 0 21 21" fill="none" xmlns="http://www.w3.org/2000/svg">
<path d="M6.34587 7.75347C5.48432 6.9535 5.9821 5.42163 7.1497 5.27944L10.1553 4.84305L11.4973 2.12294C11.7433 1.62422 12.2421 1.3125 12.7966 1.3125C13.3511 1.3125 13.8499 1.62422 14.096 2.12294L15.4379 4.84305C15.4379 4.84305 18.4435 5.27944 18.4435 5.27945C19.6136 5.42088 20.1065 6.95466 19.2474 7.75346L17.072 9.87308C17.072 9.87308 17.6002 12.9541 17.6002 12.9541C17.5806 12.9697 16.9177 13.1556 16.885 13.1739L15.3001 13.6661C15.0573 12.8688 14.3158 12.2848 13.4397 12.2848C13.4397 12.2848 10.3718 12.2848 10.3718 12.2847C10.1774 12.301 9.98329 12.1474 9.82386 12.0518C9.65652 11.9468 9.45309 11.8188 9.40715 11.7893C9.04581 11.5624 8.69352 11.4046 8.27514 11.2906L8.51796 9.87308C8.51796 9.87308 6.34583 7.75346 6.34587 7.75347ZM18.0268 13.5086C17.4298 13.6931 15.9967 14.1357 15.3789 14.3289C15.3526 15.3199 14.447 16.1926 13.443 16.1697H9.50558C9.07248 16.1631 9.07574 15.52 9.50558 15.5134H13.4397C14.1517 15.5134 14.7259 14.9359 14.7259 14.2272C14.7259 13.5152 14.1517 12.941 13.4397 12.941H10.3718C10.1323 12.941 9.89277 12.8721 9.68934 12.7441C9.61057 12.6949 9.14794 12.3996 9.05606 12.3438C8.05063 11.6985 6.73787 11.6233 5.66005 12.1568C5.66005 12.1568 4.63961 12.6588 4.63961 12.6588C4.37712 12.7901 4.07852 12.859 3.78323 12.859H1.3125V17.5084H3.8226C4.09821 17.5084 4.36398 17.5642 4.61336 17.6757L8.4589 19.3951C9.33497 19.7855 10.3292 19.7855 11.2052 19.3918L18.9324 15.9006C19.3917 15.6939 19.6871 15.2378 19.6871 14.7325C19.71 13.8958 18.8175 13.233 18.0268 13.5086Z" fill="#457FE6"/>
</svg>
